M48
;DRILL file {KiCad 5.0.1+dfsg1-3} date Sun 04 Nov 2018 01:21:05 CET
;FORMAT={-:-/ absolute / metric / decimal}
FMAT,2
METRIC,TZ
T1C0.700
T2C0.760
T3C1.000
%
G90
G05
M71
T1
X85.192Y-63.924
X85.364Y-54.003
X85.385Y-56.629
X85.402Y-59.588
X85.408Y-62.591
X86.228Y-91.887
X90.312Y-104.399
X92.857Y-57.099
X93.457Y-70.612
X93.548Y-94.158
X93.716Y-68.489
X95.01Y-68.103
X95.371Y-103.08
X95.555Y-92.685
X96.205Y-73.492
X96.225Y-75.268
X96.916Y-91.877
X97.561Y-99.136
X98.052Y-85.164
X98.598Y-91.842
X98.857Y-106.294
X99.238Y-70.871
X99.314Y-97.561
X99.495Y-95.766
X101.244Y-101.194
X101.859Y-63.602
X102.21Y-71.161
X102.21Y-90.673
X102.382Y-68.184
X102.413Y-66.319
X102.601Y-101.163
X103.835Y-92.161
X104.216Y-57.669
X105.566Y-57.692
X105.71Y-95.082
X106.68Y-60.366
X107.412Y-71.171
X108.178Y-55.985
X109.179Y-61.493
X114.325Y-78.549
X114.833Y-85.217
X117.018Y-97.727
X117.257Y-76.982
X117.272Y-92.329
X117.326Y-94.034
X117.627Y-84.01
X117.993Y-81.577
X119.431Y-95.186
X119.507Y-102.001
X119.553Y-87.732
X120.802Y-62.23
X121.907Y-92.964
X122.525Y-79.03
X125.633Y-65.598
X127.686Y-57.302
X129.134Y-60.96
X130.962Y-60.909
X134.681Y-57.211
X135.331Y-62.738
X107.112Y-98.996
X90.754Y-59.588
X107.213Y-85.09
X109.334Y-97.727
X107.112Y-96.456
X109.334Y-100.266
X125.197Y-54.204
X109.22Y-68.961
X104.267Y-63.436
X95.491Y-58.699
X90.754Y-56.642
X109.499Y-86.423
X104.318Y-105.435
X90.754Y-62.586
X90.754Y-54.
X111.984Y-73.777
X107.213Y-82.486
X109.499Y-83.82
X107.95Y-66.23
X104.872Y-79.827
T2
X126.873Y-71.374
X126.873Y-73.914
X126.873Y-76.454
X126.873Y-78.994
X129.413Y-72.644
X129.413Y-75.184
X129.413Y-77.724
X129.413Y-80.264
X126.873Y-94.285
X126.873Y-96.825
X126.873Y-99.365
X126.873Y-101.905
X129.413Y-95.555
X129.413Y-98.095
X129.413Y-100.635
X129.413Y-103.175
T3
X96.048Y-54.016
X110.617Y-54.356
X113.157Y-54.356
X137.363Y-86.004
X137.363Y-88.544
X95.701Y-77.499
X95.701Y-80.039
X95.701Y-82.579
X95.701Y-85.119
X106.934Y-54.356
X117.627Y-54.305
X120.167Y-54.305
X117.627Y-57.937
X117.627Y-60.477
X113.157Y-58.039
X132.779Y-85.979
X132.779Y-88.519
X99.405Y-83.053
X86.868Y-66.04
X86.868Y-68.58
X86.868Y-71.12
X86.868Y-73.66
X86.868Y-76.2
X86.868Y-78.74
X86.868Y-81.28
X86.868Y-83.82
X86.868Y-86.36
X86.868Y-88.9
X89.408Y-66.04
X89.408Y-68.58
X89.408Y-71.12
X89.408Y-73.66
X89.408Y-76.2
X89.408Y-78.74
X89.408Y-81.28
X89.408Y-83.82
X89.408Y-86.36
X89.408Y-88.9
T0
M30
