G04 #@! TF.GenerationSoftware,KiCad,Pcbnew,5.0.1+dfsg1-3*
G04 #@! TF.CreationDate,2018-11-04T01:21:10+01:00*
G04 #@! TF.ProjectId,stk3700_beesensors,73746B333730305F62656573656E736F,rev?*
G04 #@! TF.SameCoordinates,Original*
G04 #@! TF.FileFunction,Paste,Top*
G04 #@! TF.FilePolarity,Positive*
%FSLAX46Y46*%
G04 Gerber Fmt 4.6, Leading zero omitted, Abs format (unit mm)*
G04 Created by KiCad (PCBNEW 5.0.1+dfsg1-3) date Sun 04 Nov 2018 01:21:10 CET*
%MOMM*%
%LPD*%
G01*
G04 APERTURE LIST*
%ADD10R,1.600000X2.600000*%
%ADD11R,1.750000X0.550000*%
%ADD12R,2.600000X1.600000*%
%ADD13C,0.100000*%
%ADD14C,0.975000*%
%ADD15C,0.875000*%
%ADD16R,0.500000X2.000000*%
%ADD17R,2.000000X1.700000*%
%ADD18C,0.950000*%
%ADD19R,1.550000X0.600000*%
%ADD20R,0.600000X1.550000*%
G04 APERTURE END LIST*
D10*
G04 #@! TO.C,C5*
X102539800Y-95177200D03*
X102539800Y-98777200D03*
G04 #@! TD*
D11*
G04 #@! TO.C,U5*
X112149400Y-82550000D03*
X112149400Y-83820000D03*
X112149400Y-85090000D03*
X112149400Y-86360000D03*
X119549400Y-86360000D03*
X119549400Y-85090000D03*
X119549400Y-83820000D03*
X119549400Y-82550000D03*
G04 #@! TD*
D12*
G04 #@! TO.C,C1*
X99958300Y-66319400D03*
X96358300Y-66319400D03*
G04 #@! TD*
D13*
G04 #@! TO.C,C2*
G36*
X123568542Y-59836374D02*
X123592203Y-59839884D01*
X123615407Y-59845696D01*
X123637929Y-59853754D01*
X123659553Y-59863982D01*
X123680070Y-59876279D01*
X123699283Y-59890529D01*
X123717007Y-59906593D01*
X123733071Y-59924317D01*
X123747321Y-59943530D01*
X123759618Y-59964047D01*
X123769846Y-59985671D01*
X123777904Y-60008193D01*
X123783716Y-60031397D01*
X123787226Y-60055058D01*
X123788400Y-60078950D01*
X123788400Y-60566450D01*
X123787226Y-60590342D01*
X123783716Y-60614003D01*
X123777904Y-60637207D01*
X123769846Y-60659729D01*
X123759618Y-60681353D01*
X123747321Y-60701870D01*
X123733071Y-60721083D01*
X123717007Y-60738807D01*
X123699283Y-60754871D01*
X123680070Y-60769121D01*
X123659553Y-60781418D01*
X123637929Y-60791646D01*
X123615407Y-60799704D01*
X123592203Y-60805516D01*
X123568542Y-60809026D01*
X123544650Y-60810200D01*
X122632150Y-60810200D01*
X122608258Y-60809026D01*
X122584597Y-60805516D01*
X122561393Y-60799704D01*
X122538871Y-60791646D01*
X122517247Y-60781418D01*
X122496730Y-60769121D01*
X122477517Y-60754871D01*
X122459793Y-60738807D01*
X122443729Y-60721083D01*
X122429479Y-60701870D01*
X122417182Y-60681353D01*
X122406954Y-60659729D01*
X122398896Y-60637207D01*
X122393084Y-60614003D01*
X122389574Y-60590342D01*
X122388400Y-60566450D01*
X122388400Y-60078950D01*
X122389574Y-60055058D01*
X122393084Y-60031397D01*
X122398896Y-60008193D01*
X122406954Y-59985671D01*
X122417182Y-59964047D01*
X122429479Y-59943530D01*
X122443729Y-59924317D01*
X122459793Y-59906593D01*
X122477517Y-59890529D01*
X122496730Y-59876279D01*
X122517247Y-59863982D01*
X122538871Y-59853754D01*
X122561393Y-59845696D01*
X122584597Y-59839884D01*
X122608258Y-59836374D01*
X122632150Y-59835200D01*
X123544650Y-59835200D01*
X123568542Y-59836374D01*
X123568542Y-59836374D01*
G37*
D14*
X123088400Y-60322700D03*
D13*
G36*
X123568542Y-57961374D02*
X123592203Y-57964884D01*
X123615407Y-57970696D01*
X123637929Y-57978754D01*
X123659553Y-57988982D01*
X123680070Y-58001279D01*
X123699283Y-58015529D01*
X123717007Y-58031593D01*
X123733071Y-58049317D01*
X123747321Y-58068530D01*
X123759618Y-58089047D01*
X123769846Y-58110671D01*
X123777904Y-58133193D01*
X123783716Y-58156397D01*
X123787226Y-58180058D01*
X123788400Y-58203950D01*
X123788400Y-58691450D01*
X123787226Y-58715342D01*
X123783716Y-58739003D01*
X123777904Y-58762207D01*
X123769846Y-58784729D01*
X123759618Y-58806353D01*
X123747321Y-58826870D01*
X123733071Y-58846083D01*
X123717007Y-58863807D01*
X123699283Y-58879871D01*
X123680070Y-58894121D01*
X123659553Y-58906418D01*
X123637929Y-58916646D01*
X123615407Y-58924704D01*
X123592203Y-58930516D01*
X123568542Y-58934026D01*
X123544650Y-58935200D01*
X122632150Y-58935200D01*
X122608258Y-58934026D01*
X122584597Y-58930516D01*
X122561393Y-58924704D01*
X122538871Y-58916646D01*
X122517247Y-58906418D01*
X122496730Y-58894121D01*
X122477517Y-58879871D01*
X122459793Y-58863807D01*
X122443729Y-58846083D01*
X122429479Y-58826870D01*
X122417182Y-58806353D01*
X122406954Y-58784729D01*
X122398896Y-58762207D01*
X122393084Y-58739003D01*
X122389574Y-58715342D01*
X122388400Y-58691450D01*
X122388400Y-58203950D01*
X122389574Y-58180058D01*
X122393084Y-58156397D01*
X122398896Y-58133193D01*
X122406954Y-58110671D01*
X122417182Y-58089047D01*
X122429479Y-58068530D01*
X122443729Y-58049317D01*
X122459793Y-58031593D01*
X122477517Y-58015529D01*
X122496730Y-58001279D01*
X122517247Y-57988982D01*
X122538871Y-57978754D01*
X122561393Y-57970696D01*
X122584597Y-57964884D01*
X122608258Y-57961374D01*
X122632150Y-57960200D01*
X123544650Y-57960200D01*
X123568542Y-57961374D01*
X123568542Y-57961374D01*
G37*
D14*
X123088400Y-58447700D03*
G04 #@! TD*
D13*
G04 #@! TO.C,C4*
G36*
X87361942Y-94830574D02*
X87385603Y-94834084D01*
X87408807Y-94839896D01*
X87431329Y-94847954D01*
X87452953Y-94858182D01*
X87473470Y-94870479D01*
X87492683Y-94884729D01*
X87510407Y-94900793D01*
X87526471Y-94918517D01*
X87540721Y-94937730D01*
X87553018Y-94958247D01*
X87563246Y-94979871D01*
X87571304Y-95002393D01*
X87577116Y-95025597D01*
X87580626Y-95049258D01*
X87581800Y-95073150D01*
X87581800Y-95985650D01*
X87580626Y-96009542D01*
X87577116Y-96033203D01*
X87571304Y-96056407D01*
X87563246Y-96078929D01*
X87553018Y-96100553D01*
X87540721Y-96121070D01*
X87526471Y-96140283D01*
X87510407Y-96158007D01*
X87492683Y-96174071D01*
X87473470Y-96188321D01*
X87452953Y-96200618D01*
X87431329Y-96210846D01*
X87408807Y-96218904D01*
X87385603Y-96224716D01*
X87361942Y-96228226D01*
X87338050Y-96229400D01*
X86850550Y-96229400D01*
X86826658Y-96228226D01*
X86802997Y-96224716D01*
X86779793Y-96218904D01*
X86757271Y-96210846D01*
X86735647Y-96200618D01*
X86715130Y-96188321D01*
X86695917Y-96174071D01*
X86678193Y-96158007D01*
X86662129Y-96140283D01*
X86647879Y-96121070D01*
X86635582Y-96100553D01*
X86625354Y-96078929D01*
X86617296Y-96056407D01*
X86611484Y-96033203D01*
X86607974Y-96009542D01*
X86606800Y-95985650D01*
X86606800Y-95073150D01*
X86607974Y-95049258D01*
X86611484Y-95025597D01*
X86617296Y-95002393D01*
X86625354Y-94979871D01*
X86635582Y-94958247D01*
X86647879Y-94937730D01*
X86662129Y-94918517D01*
X86678193Y-94900793D01*
X86695917Y-94884729D01*
X86715130Y-94870479D01*
X86735647Y-94858182D01*
X86757271Y-94847954D01*
X86779793Y-94839896D01*
X86802997Y-94834084D01*
X86826658Y-94830574D01*
X86850550Y-94829400D01*
X87338050Y-94829400D01*
X87361942Y-94830574D01*
X87361942Y-94830574D01*
G37*
D14*
X87094300Y-95529400D03*
D13*
G36*
X85486942Y-94830574D02*
X85510603Y-94834084D01*
X85533807Y-94839896D01*
X85556329Y-94847954D01*
X85577953Y-94858182D01*
X85598470Y-94870479D01*
X85617683Y-94884729D01*
X85635407Y-94900793D01*
X85651471Y-94918517D01*
X85665721Y-94937730D01*
X85678018Y-94958247D01*
X85688246Y-94979871D01*
X85696304Y-95002393D01*
X85702116Y-95025597D01*
X85705626Y-95049258D01*
X85706800Y-95073150D01*
X85706800Y-95985650D01*
X85705626Y-96009542D01*
X85702116Y-96033203D01*
X85696304Y-96056407D01*
X85688246Y-96078929D01*
X85678018Y-96100553D01*
X85665721Y-96121070D01*
X85651471Y-96140283D01*
X85635407Y-96158007D01*
X85617683Y-96174071D01*
X85598470Y-96188321D01*
X85577953Y-96200618D01*
X85556329Y-96210846D01*
X85533807Y-96218904D01*
X85510603Y-96224716D01*
X85486942Y-96228226D01*
X85463050Y-96229400D01*
X84975550Y-96229400D01*
X84951658Y-96228226D01*
X84927997Y-96224716D01*
X84904793Y-96218904D01*
X84882271Y-96210846D01*
X84860647Y-96200618D01*
X84840130Y-96188321D01*
X84820917Y-96174071D01*
X84803193Y-96158007D01*
X84787129Y-96140283D01*
X84772879Y-96121070D01*
X84760582Y-96100553D01*
X84750354Y-96078929D01*
X84742296Y-96056407D01*
X84736484Y-96033203D01*
X84732974Y-96009542D01*
X84731800Y-95985650D01*
X84731800Y-95073150D01*
X84732974Y-95049258D01*
X84736484Y-95025597D01*
X84742296Y-95002393D01*
X84750354Y-94979871D01*
X84760582Y-94958247D01*
X84772879Y-94937730D01*
X84787129Y-94918517D01*
X84803193Y-94900793D01*
X84820917Y-94884729D01*
X84840130Y-94870479D01*
X84860647Y-94858182D01*
X84882271Y-94847954D01*
X84904793Y-94839896D01*
X84927997Y-94834084D01*
X84951658Y-94830574D01*
X84975550Y-94829400D01*
X85463050Y-94829400D01*
X85486942Y-94830574D01*
X85486942Y-94830574D01*
G37*
D14*
X85219300Y-95529400D03*
G04 #@! TD*
D13*
G04 #@! TO.C,C8*
G36*
X98092342Y-95197774D02*
X98116003Y-95201284D01*
X98139207Y-95207096D01*
X98161729Y-95215154D01*
X98183353Y-95225382D01*
X98203870Y-95237679D01*
X98223083Y-95251929D01*
X98240807Y-95267993D01*
X98256871Y-95285717D01*
X98271121Y-95304930D01*
X98283418Y-95325447D01*
X98293646Y-95347071D01*
X98301704Y-95369593D01*
X98307516Y-95392797D01*
X98311026Y-95416458D01*
X98312200Y-95440350D01*
X98312200Y-95927850D01*
X98311026Y-95951742D01*
X98307516Y-95975403D01*
X98301704Y-95998607D01*
X98293646Y-96021129D01*
X98283418Y-96042753D01*
X98271121Y-96063270D01*
X98256871Y-96082483D01*
X98240807Y-96100207D01*
X98223083Y-96116271D01*
X98203870Y-96130521D01*
X98183353Y-96142818D01*
X98161729Y-96153046D01*
X98139207Y-96161104D01*
X98116003Y-96166916D01*
X98092342Y-96170426D01*
X98068450Y-96171600D01*
X97155950Y-96171600D01*
X97132058Y-96170426D01*
X97108397Y-96166916D01*
X97085193Y-96161104D01*
X97062671Y-96153046D01*
X97041047Y-96142818D01*
X97020530Y-96130521D01*
X97001317Y-96116271D01*
X96983593Y-96100207D01*
X96967529Y-96082483D01*
X96953279Y-96063270D01*
X96940982Y-96042753D01*
X96930754Y-96021129D01*
X96922696Y-95998607D01*
X96916884Y-95975403D01*
X96913374Y-95951742D01*
X96912200Y-95927850D01*
X96912200Y-95440350D01*
X96913374Y-95416458D01*
X96916884Y-95392797D01*
X96922696Y-95369593D01*
X96930754Y-95347071D01*
X96940982Y-95325447D01*
X96953279Y-95304930D01*
X96967529Y-95285717D01*
X96983593Y-95267993D01*
X97001317Y-95251929D01*
X97020530Y-95237679D01*
X97041047Y-95225382D01*
X97062671Y-95215154D01*
X97085193Y-95207096D01*
X97108397Y-95201284D01*
X97132058Y-95197774D01*
X97155950Y-95196600D01*
X98068450Y-95196600D01*
X98092342Y-95197774D01*
X98092342Y-95197774D01*
G37*
D14*
X97612200Y-95684100D03*
D13*
G36*
X98092342Y-97072774D02*
X98116003Y-97076284D01*
X98139207Y-97082096D01*
X98161729Y-97090154D01*
X98183353Y-97100382D01*
X98203870Y-97112679D01*
X98223083Y-97126929D01*
X98240807Y-97142993D01*
X98256871Y-97160717D01*
X98271121Y-97179930D01*
X98283418Y-97200447D01*
X98293646Y-97222071D01*
X98301704Y-97244593D01*
X98307516Y-97267797D01*
X98311026Y-97291458D01*
X98312200Y-97315350D01*
X98312200Y-97802850D01*
X98311026Y-97826742D01*
X98307516Y-97850403D01*
X98301704Y-97873607D01*
X98293646Y-97896129D01*
X98283418Y-97917753D01*
X98271121Y-97938270D01*
X98256871Y-97957483D01*
X98240807Y-97975207D01*
X98223083Y-97991271D01*
X98203870Y-98005521D01*
X98183353Y-98017818D01*
X98161729Y-98028046D01*
X98139207Y-98036104D01*
X98116003Y-98041916D01*
X98092342Y-98045426D01*
X98068450Y-98046600D01*
X97155950Y-98046600D01*
X97132058Y-98045426D01*
X97108397Y-98041916D01*
X97085193Y-98036104D01*
X97062671Y-98028046D01*
X97041047Y-98017818D01*
X97020530Y-98005521D01*
X97001317Y-97991271D01*
X96983593Y-97975207D01*
X96967529Y-97957483D01*
X96953279Y-97938270D01*
X96940982Y-97917753D01*
X96930754Y-97896129D01*
X96922696Y-97873607D01*
X96916884Y-97850403D01*
X96913374Y-97826742D01*
X96912200Y-97802850D01*
X96912200Y-97315350D01*
X96913374Y-97291458D01*
X96916884Y-97267797D01*
X96922696Y-97244593D01*
X96930754Y-97222071D01*
X96940982Y-97200447D01*
X96953279Y-97179930D01*
X96967529Y-97160717D01*
X96983593Y-97142993D01*
X97001317Y-97126929D01*
X97020530Y-97112679D01*
X97041047Y-97100382D01*
X97062671Y-97090154D01*
X97085193Y-97082096D01*
X97108397Y-97076284D01*
X97132058Y-97072774D01*
X97155950Y-97071600D01*
X98068450Y-97071600D01*
X98092342Y-97072774D01*
X98092342Y-97072774D01*
G37*
D14*
X97612200Y-97559100D03*
G04 #@! TD*
D13*
G04 #@! TO.C,C10*
G36*
X127886542Y-65983174D02*
X127910203Y-65986684D01*
X127933407Y-65992496D01*
X127955929Y-66000554D01*
X127977553Y-66010782D01*
X127998070Y-66023079D01*
X128017283Y-66037329D01*
X128035007Y-66053393D01*
X128051071Y-66071117D01*
X128065321Y-66090330D01*
X128077618Y-66110847D01*
X128087846Y-66132471D01*
X128095904Y-66154993D01*
X128101716Y-66178197D01*
X128105226Y-66201858D01*
X128106400Y-66225750D01*
X128106400Y-66713250D01*
X128105226Y-66737142D01*
X128101716Y-66760803D01*
X128095904Y-66784007D01*
X128087846Y-66806529D01*
X128077618Y-66828153D01*
X128065321Y-66848670D01*
X128051071Y-66867883D01*
X128035007Y-66885607D01*
X128017283Y-66901671D01*
X127998070Y-66915921D01*
X127977553Y-66928218D01*
X127955929Y-66938446D01*
X127933407Y-66946504D01*
X127910203Y-66952316D01*
X127886542Y-66955826D01*
X127862650Y-66957000D01*
X126950150Y-66957000D01*
X126926258Y-66955826D01*
X126902597Y-66952316D01*
X126879393Y-66946504D01*
X126856871Y-66938446D01*
X126835247Y-66928218D01*
X126814730Y-66915921D01*
X126795517Y-66901671D01*
X126777793Y-66885607D01*
X126761729Y-66867883D01*
X126747479Y-66848670D01*
X126735182Y-66828153D01*
X126724954Y-66806529D01*
X126716896Y-66784007D01*
X126711084Y-66760803D01*
X126707574Y-66737142D01*
X126706400Y-66713250D01*
X126706400Y-66225750D01*
X126707574Y-66201858D01*
X126711084Y-66178197D01*
X126716896Y-66154993D01*
X126724954Y-66132471D01*
X126735182Y-66110847D01*
X126747479Y-66090330D01*
X126761729Y-66071117D01*
X126777793Y-66053393D01*
X126795517Y-66037329D01*
X126814730Y-66023079D01*
X126835247Y-66010782D01*
X126856871Y-66000554D01*
X126879393Y-65992496D01*
X126902597Y-65986684D01*
X126926258Y-65983174D01*
X126950150Y-65982000D01*
X127862650Y-65982000D01*
X127886542Y-65983174D01*
X127886542Y-65983174D01*
G37*
D14*
X127406400Y-66469500D03*
D13*
G36*
X127886542Y-64108174D02*
X127910203Y-64111684D01*
X127933407Y-64117496D01*
X127955929Y-64125554D01*
X127977553Y-64135782D01*
X127998070Y-64148079D01*
X128017283Y-64162329D01*
X128035007Y-64178393D01*
X128051071Y-64196117D01*
X128065321Y-64215330D01*
X128077618Y-64235847D01*
X128087846Y-64257471D01*
X128095904Y-64279993D01*
X128101716Y-64303197D01*
X128105226Y-64326858D01*
X128106400Y-64350750D01*
X128106400Y-64838250D01*
X128105226Y-64862142D01*
X128101716Y-64885803D01*
X128095904Y-64909007D01*
X128087846Y-64931529D01*
X128077618Y-64953153D01*
X128065321Y-64973670D01*
X128051071Y-64992883D01*
X128035007Y-65010607D01*
X128017283Y-65026671D01*
X127998070Y-65040921D01*
X127977553Y-65053218D01*
X127955929Y-65063446D01*
X127933407Y-65071504D01*
X127910203Y-65077316D01*
X127886542Y-65080826D01*
X127862650Y-65082000D01*
X126950150Y-65082000D01*
X126926258Y-65080826D01*
X126902597Y-65077316D01*
X126879393Y-65071504D01*
X126856871Y-65063446D01*
X126835247Y-65053218D01*
X126814730Y-65040921D01*
X126795517Y-65026671D01*
X126777793Y-65010607D01*
X126761729Y-64992883D01*
X126747479Y-64973670D01*
X126735182Y-64953153D01*
X126724954Y-64931529D01*
X126716896Y-64909007D01*
X126711084Y-64885803D01*
X126707574Y-64862142D01*
X126706400Y-64838250D01*
X126706400Y-64350750D01*
X126707574Y-64326858D01*
X126711084Y-64303197D01*
X126716896Y-64279993D01*
X126724954Y-64257471D01*
X126735182Y-64235847D01*
X126747479Y-64215330D01*
X126761729Y-64196117D01*
X126777793Y-64178393D01*
X126795517Y-64162329D01*
X126814730Y-64148079D01*
X126835247Y-64135782D01*
X126856871Y-64125554D01*
X126879393Y-64117496D01*
X126902597Y-64111684D01*
X126926258Y-64108174D01*
X126950150Y-64107000D01*
X127862650Y-64107000D01*
X127886542Y-64108174D01*
X127886542Y-64108174D01*
G37*
D14*
X127406400Y-64594500D03*
G04 #@! TD*
D10*
G04 #@! TO.C,C11*
X118313200Y-63554200D03*
X118313200Y-67154200D03*
G04 #@! TD*
G04 #@! TO.C,C12*
X102339140Y-77525020D03*
X102339140Y-73925020D03*
G04 #@! TD*
D13*
G04 #@! TO.C,C14*
G36*
X122096091Y-80500553D02*
X122117326Y-80503703D01*
X122138150Y-80508919D01*
X122158362Y-80516151D01*
X122177768Y-80525330D01*
X122196181Y-80536366D01*
X122213424Y-80549154D01*
X122229330Y-80563570D01*
X122243746Y-80579476D01*
X122256534Y-80596719D01*
X122267570Y-80615132D01*
X122276749Y-80634538D01*
X122283981Y-80654750D01*
X122289197Y-80675574D01*
X122292347Y-80696809D01*
X122293400Y-80718250D01*
X122293400Y-81155750D01*
X122292347Y-81177191D01*
X122289197Y-81198426D01*
X122283981Y-81219250D01*
X122276749Y-81239462D01*
X122267570Y-81258868D01*
X122256534Y-81277281D01*
X122243746Y-81294524D01*
X122229330Y-81310430D01*
X122213424Y-81324846D01*
X122196181Y-81337634D01*
X122177768Y-81348670D01*
X122158362Y-81357849D01*
X122138150Y-81365081D01*
X122117326Y-81370297D01*
X122096091Y-81373447D01*
X122074650Y-81374500D01*
X121562150Y-81374500D01*
X121540709Y-81373447D01*
X121519474Y-81370297D01*
X121498650Y-81365081D01*
X121478438Y-81357849D01*
X121459032Y-81348670D01*
X121440619Y-81337634D01*
X121423376Y-81324846D01*
X121407470Y-81310430D01*
X121393054Y-81294524D01*
X121380266Y-81277281D01*
X121369230Y-81258868D01*
X121360051Y-81239462D01*
X121352819Y-81219250D01*
X121347603Y-81198426D01*
X121344453Y-81177191D01*
X121343400Y-81155750D01*
X121343400Y-80718250D01*
X121344453Y-80696809D01*
X121347603Y-80675574D01*
X121352819Y-80654750D01*
X121360051Y-80634538D01*
X121369230Y-80615132D01*
X121380266Y-80596719D01*
X121393054Y-80579476D01*
X121407470Y-80563570D01*
X121423376Y-80549154D01*
X121440619Y-80536366D01*
X121459032Y-80525330D01*
X121478438Y-80516151D01*
X121498650Y-80508919D01*
X121519474Y-80503703D01*
X121540709Y-80500553D01*
X121562150Y-80499500D01*
X122074650Y-80499500D01*
X122096091Y-80500553D01*
X122096091Y-80500553D01*
G37*
D15*
X121818400Y-80937000D03*
D13*
G36*
X122096091Y-82075553D02*
X122117326Y-82078703D01*
X122138150Y-82083919D01*
X122158362Y-82091151D01*
X122177768Y-82100330D01*
X122196181Y-82111366D01*
X122213424Y-82124154D01*
X122229330Y-82138570D01*
X122243746Y-82154476D01*
X122256534Y-82171719D01*
X122267570Y-82190132D01*
X122276749Y-82209538D01*
X122283981Y-82229750D01*
X122289197Y-82250574D01*
X122292347Y-82271809D01*
X122293400Y-82293250D01*
X122293400Y-82730750D01*
X122292347Y-82752191D01*
X122289197Y-82773426D01*
X122283981Y-82794250D01*
X122276749Y-82814462D01*
X122267570Y-82833868D01*
X122256534Y-82852281D01*
X122243746Y-82869524D01*
X122229330Y-82885430D01*
X122213424Y-82899846D01*
X122196181Y-82912634D01*
X122177768Y-82923670D01*
X122158362Y-82932849D01*
X122138150Y-82940081D01*
X122117326Y-82945297D01*
X122096091Y-82948447D01*
X122074650Y-82949500D01*
X121562150Y-82949500D01*
X121540709Y-82948447D01*
X121519474Y-82945297D01*
X121498650Y-82940081D01*
X121478438Y-82932849D01*
X121459032Y-82923670D01*
X121440619Y-82912634D01*
X121423376Y-82899846D01*
X121407470Y-82885430D01*
X121393054Y-82869524D01*
X121380266Y-82852281D01*
X121369230Y-82833868D01*
X121360051Y-82814462D01*
X121352819Y-82794250D01*
X121347603Y-82773426D01*
X121344453Y-82752191D01*
X121343400Y-82730750D01*
X121343400Y-82293250D01*
X121344453Y-82271809D01*
X121347603Y-82250574D01*
X121352819Y-82229750D01*
X121360051Y-82209538D01*
X121369230Y-82190132D01*
X121380266Y-82171719D01*
X121393054Y-82154476D01*
X121407470Y-82138570D01*
X121423376Y-82124154D01*
X121440619Y-82111366D01*
X121459032Y-82100330D01*
X121478438Y-82091151D01*
X121498650Y-82083919D01*
X121519474Y-82078703D01*
X121540709Y-82075553D01*
X121562150Y-82074500D01*
X122074650Y-82074500D01*
X122096091Y-82075553D01*
X122096091Y-82075553D01*
G37*
D15*
X121818400Y-82512000D03*
G04 #@! TD*
D10*
G04 #@! TO.C,C16*
X107330240Y-73798020D03*
X107330240Y-77398020D03*
G04 #@! TD*
D13*
G04 #@! TO.C,C18*
G36*
X134999291Y-58313653D02*
X135020526Y-58316803D01*
X135041350Y-58322019D01*
X135061562Y-58329251D01*
X135080968Y-58338430D01*
X135099381Y-58349466D01*
X135116624Y-58362254D01*
X135132530Y-58376670D01*
X135146946Y-58392576D01*
X135159734Y-58409819D01*
X135170770Y-58428232D01*
X135179949Y-58447638D01*
X135187181Y-58467850D01*
X135192397Y-58488674D01*
X135195547Y-58509909D01*
X135196600Y-58531350D01*
X135196600Y-58968850D01*
X135195547Y-58990291D01*
X135192397Y-59011526D01*
X135187181Y-59032350D01*
X135179949Y-59052562D01*
X135170770Y-59071968D01*
X135159734Y-59090381D01*
X135146946Y-59107624D01*
X135132530Y-59123530D01*
X135116624Y-59137946D01*
X135099381Y-59150734D01*
X135080968Y-59161770D01*
X135061562Y-59170949D01*
X135041350Y-59178181D01*
X135020526Y-59183397D01*
X134999291Y-59186547D01*
X134977850Y-59187600D01*
X134465350Y-59187600D01*
X134443909Y-59186547D01*
X134422674Y-59183397D01*
X134401850Y-59178181D01*
X134381638Y-59170949D01*
X134362232Y-59161770D01*
X134343819Y-59150734D01*
X134326576Y-59137946D01*
X134310670Y-59123530D01*
X134296254Y-59107624D01*
X134283466Y-59090381D01*
X134272430Y-59071968D01*
X134263251Y-59052562D01*
X134256019Y-59032350D01*
X134250803Y-59011526D01*
X134247653Y-58990291D01*
X134246600Y-58968850D01*
X134246600Y-58531350D01*
X134247653Y-58509909D01*
X134250803Y-58488674D01*
X134256019Y-58467850D01*
X134263251Y-58447638D01*
X134272430Y-58428232D01*
X134283466Y-58409819D01*
X134296254Y-58392576D01*
X134310670Y-58376670D01*
X134326576Y-58362254D01*
X134343819Y-58349466D01*
X134362232Y-58338430D01*
X134381638Y-58329251D01*
X134401850Y-58322019D01*
X134422674Y-58316803D01*
X134443909Y-58313653D01*
X134465350Y-58312600D01*
X134977850Y-58312600D01*
X134999291Y-58313653D01*
X134999291Y-58313653D01*
G37*
D15*
X134721600Y-58750100D03*
D13*
G36*
X134999291Y-59888653D02*
X135020526Y-59891803D01*
X135041350Y-59897019D01*
X135061562Y-59904251D01*
X135080968Y-59913430D01*
X135099381Y-59924466D01*
X135116624Y-59937254D01*
X135132530Y-59951670D01*
X135146946Y-59967576D01*
X135159734Y-59984819D01*
X135170770Y-60003232D01*
X135179949Y-60022638D01*
X135187181Y-60042850D01*
X135192397Y-60063674D01*
X135195547Y-60084909D01*
X135196600Y-60106350D01*
X135196600Y-60543850D01*
X135195547Y-60565291D01*
X135192397Y-60586526D01*
X135187181Y-60607350D01*
X135179949Y-60627562D01*
X135170770Y-60646968D01*
X135159734Y-60665381D01*
X135146946Y-60682624D01*
X135132530Y-60698530D01*
X135116624Y-60712946D01*
X135099381Y-60725734D01*
X135080968Y-60736770D01*
X135061562Y-60745949D01*
X135041350Y-60753181D01*
X135020526Y-60758397D01*
X134999291Y-60761547D01*
X134977850Y-60762600D01*
X134465350Y-60762600D01*
X134443909Y-60761547D01*
X134422674Y-60758397D01*
X134401850Y-60753181D01*
X134381638Y-60745949D01*
X134362232Y-60736770D01*
X134343819Y-60725734D01*
X134326576Y-60712946D01*
X134310670Y-60698530D01*
X134296254Y-60682624D01*
X134283466Y-60665381D01*
X134272430Y-60646968D01*
X134263251Y-60627562D01*
X134256019Y-60607350D01*
X134250803Y-60586526D01*
X134247653Y-60565291D01*
X134246600Y-60543850D01*
X134246600Y-60106350D01*
X134247653Y-60084909D01*
X134250803Y-60063674D01*
X134256019Y-60042850D01*
X134263251Y-60022638D01*
X134272430Y-60003232D01*
X134283466Y-59984819D01*
X134296254Y-59967576D01*
X134310670Y-59951670D01*
X134326576Y-59937254D01*
X134343819Y-59924466D01*
X134362232Y-59913430D01*
X134381638Y-59904251D01*
X134401850Y-59897019D01*
X134422674Y-59891803D01*
X134443909Y-59888653D01*
X134465350Y-59887600D01*
X134977850Y-59887600D01*
X134999291Y-59888653D01*
X134999291Y-59888653D01*
G37*
D15*
X134721600Y-60325100D03*
G04 #@! TD*
D13*
G04 #@! TO.C,C19*
G36*
X110767691Y-64943053D02*
X110788926Y-64946203D01*
X110809750Y-64951419D01*
X110829962Y-64958651D01*
X110849368Y-64967830D01*
X110867781Y-64978866D01*
X110885024Y-64991654D01*
X110900930Y-65006070D01*
X110915346Y-65021976D01*
X110928134Y-65039219D01*
X110939170Y-65057632D01*
X110948349Y-65077038D01*
X110955581Y-65097250D01*
X110960797Y-65118074D01*
X110963947Y-65139309D01*
X110965000Y-65160750D01*
X110965000Y-65598250D01*
X110963947Y-65619691D01*
X110960797Y-65640926D01*
X110955581Y-65661750D01*
X110948349Y-65681962D01*
X110939170Y-65701368D01*
X110928134Y-65719781D01*
X110915346Y-65737024D01*
X110900930Y-65752930D01*
X110885024Y-65767346D01*
X110867781Y-65780134D01*
X110849368Y-65791170D01*
X110829962Y-65800349D01*
X110809750Y-65807581D01*
X110788926Y-65812797D01*
X110767691Y-65815947D01*
X110746250Y-65817000D01*
X110233750Y-65817000D01*
X110212309Y-65815947D01*
X110191074Y-65812797D01*
X110170250Y-65807581D01*
X110150038Y-65800349D01*
X110130632Y-65791170D01*
X110112219Y-65780134D01*
X110094976Y-65767346D01*
X110079070Y-65752930D01*
X110064654Y-65737024D01*
X110051866Y-65719781D01*
X110040830Y-65701368D01*
X110031651Y-65681962D01*
X110024419Y-65661750D01*
X110019203Y-65640926D01*
X110016053Y-65619691D01*
X110015000Y-65598250D01*
X110015000Y-65160750D01*
X110016053Y-65139309D01*
X110019203Y-65118074D01*
X110024419Y-65097250D01*
X110031651Y-65077038D01*
X110040830Y-65057632D01*
X110051866Y-65039219D01*
X110064654Y-65021976D01*
X110079070Y-65006070D01*
X110094976Y-64991654D01*
X110112219Y-64978866D01*
X110130632Y-64967830D01*
X110150038Y-64958651D01*
X110170250Y-64951419D01*
X110191074Y-64946203D01*
X110212309Y-64943053D01*
X110233750Y-64942000D01*
X110746250Y-64942000D01*
X110767691Y-64943053D01*
X110767691Y-64943053D01*
G37*
D15*
X110490000Y-65379500D03*
D13*
G36*
X110767691Y-66518053D02*
X110788926Y-66521203D01*
X110809750Y-66526419D01*
X110829962Y-66533651D01*
X110849368Y-66542830D01*
X110867781Y-66553866D01*
X110885024Y-66566654D01*
X110900930Y-66581070D01*
X110915346Y-66596976D01*
X110928134Y-66614219D01*
X110939170Y-66632632D01*
X110948349Y-66652038D01*
X110955581Y-66672250D01*
X110960797Y-66693074D01*
X110963947Y-66714309D01*
X110965000Y-66735750D01*
X110965000Y-67173250D01*
X110963947Y-67194691D01*
X110960797Y-67215926D01*
X110955581Y-67236750D01*
X110948349Y-67256962D01*
X110939170Y-67276368D01*
X110928134Y-67294781D01*
X110915346Y-67312024D01*
X110900930Y-67327930D01*
X110885024Y-67342346D01*
X110867781Y-67355134D01*
X110849368Y-67366170D01*
X110829962Y-67375349D01*
X110809750Y-67382581D01*
X110788926Y-67387797D01*
X110767691Y-67390947D01*
X110746250Y-67392000D01*
X110233750Y-67392000D01*
X110212309Y-67390947D01*
X110191074Y-67387797D01*
X110170250Y-67382581D01*
X110150038Y-67375349D01*
X110130632Y-67366170D01*
X110112219Y-67355134D01*
X110094976Y-67342346D01*
X110079070Y-67327930D01*
X110064654Y-67312024D01*
X110051866Y-67294781D01*
X110040830Y-67276368D01*
X110031651Y-67256962D01*
X110024419Y-67236750D01*
X110019203Y-67215926D01*
X110016053Y-67194691D01*
X110015000Y-67173250D01*
X110015000Y-66735750D01*
X110016053Y-66714309D01*
X110019203Y-66693074D01*
X110024419Y-66672250D01*
X110031651Y-66652038D01*
X110040830Y-66632632D01*
X110051866Y-66614219D01*
X110064654Y-66596976D01*
X110079070Y-66581070D01*
X110094976Y-66566654D01*
X110112219Y-66553866D01*
X110130632Y-66542830D01*
X110150038Y-66533651D01*
X110170250Y-66526419D01*
X110191074Y-66521203D01*
X110212309Y-66518053D01*
X110233750Y-66517000D01*
X110746250Y-66517000D01*
X110767691Y-66518053D01*
X110767691Y-66518053D01*
G37*
D15*
X110490000Y-66954500D03*
G04 #@! TD*
D13*
G04 #@! TO.C,D1*
G36*
X86883942Y-53301574D02*
X86907603Y-53305084D01*
X86930807Y-53310896D01*
X86953329Y-53318954D01*
X86974953Y-53329182D01*
X86995470Y-53341479D01*
X87014683Y-53355729D01*
X87032407Y-53371793D01*
X87048471Y-53389517D01*
X87062721Y-53408730D01*
X87075018Y-53429247D01*
X87085246Y-53450871D01*
X87093304Y-53473393D01*
X87099116Y-53496597D01*
X87102626Y-53520258D01*
X87103800Y-53544150D01*
X87103800Y-54456650D01*
X87102626Y-54480542D01*
X87099116Y-54504203D01*
X87093304Y-54527407D01*
X87085246Y-54549929D01*
X87075018Y-54571553D01*
X87062721Y-54592070D01*
X87048471Y-54611283D01*
X87032407Y-54629007D01*
X87014683Y-54645071D01*
X86995470Y-54659321D01*
X86974953Y-54671618D01*
X86953329Y-54681846D01*
X86930807Y-54689904D01*
X86907603Y-54695716D01*
X86883942Y-54699226D01*
X86860050Y-54700400D01*
X86372550Y-54700400D01*
X86348658Y-54699226D01*
X86324997Y-54695716D01*
X86301793Y-54689904D01*
X86279271Y-54681846D01*
X86257647Y-54671618D01*
X86237130Y-54659321D01*
X86217917Y-54645071D01*
X86200193Y-54629007D01*
X86184129Y-54611283D01*
X86169879Y-54592070D01*
X86157582Y-54571553D01*
X86147354Y-54549929D01*
X86139296Y-54527407D01*
X86133484Y-54504203D01*
X86129974Y-54480542D01*
X86128800Y-54456650D01*
X86128800Y-53544150D01*
X86129974Y-53520258D01*
X86133484Y-53496597D01*
X86139296Y-53473393D01*
X86147354Y-53450871D01*
X86157582Y-53429247D01*
X86169879Y-53408730D01*
X86184129Y-53389517D01*
X86200193Y-53371793D01*
X86217917Y-53355729D01*
X86237130Y-53341479D01*
X86257647Y-53329182D01*
X86279271Y-53318954D01*
X86301793Y-53310896D01*
X86324997Y-53305084D01*
X86348658Y-53301574D01*
X86372550Y-53300400D01*
X86860050Y-53300400D01*
X86883942Y-53301574D01*
X86883942Y-53301574D01*
G37*
D14*
X86616300Y-54000400D03*
D13*
G36*
X88758942Y-53301574D02*
X88782603Y-53305084D01*
X88805807Y-53310896D01*
X88828329Y-53318954D01*
X88849953Y-53329182D01*
X88870470Y-53341479D01*
X88889683Y-53355729D01*
X88907407Y-53371793D01*
X88923471Y-53389517D01*
X88937721Y-53408730D01*
X88950018Y-53429247D01*
X88960246Y-53450871D01*
X88968304Y-53473393D01*
X88974116Y-53496597D01*
X88977626Y-53520258D01*
X88978800Y-53544150D01*
X88978800Y-54456650D01*
X88977626Y-54480542D01*
X88974116Y-54504203D01*
X88968304Y-54527407D01*
X88960246Y-54549929D01*
X88950018Y-54571553D01*
X88937721Y-54592070D01*
X88923471Y-54611283D01*
X88907407Y-54629007D01*
X88889683Y-54645071D01*
X88870470Y-54659321D01*
X88849953Y-54671618D01*
X88828329Y-54681846D01*
X88805807Y-54689904D01*
X88782603Y-54695716D01*
X88758942Y-54699226D01*
X88735050Y-54700400D01*
X88247550Y-54700400D01*
X88223658Y-54699226D01*
X88199997Y-54695716D01*
X88176793Y-54689904D01*
X88154271Y-54681846D01*
X88132647Y-54671618D01*
X88112130Y-54659321D01*
X88092917Y-54645071D01*
X88075193Y-54629007D01*
X88059129Y-54611283D01*
X88044879Y-54592070D01*
X88032582Y-54571553D01*
X88022354Y-54549929D01*
X88014296Y-54527407D01*
X88008484Y-54504203D01*
X88004974Y-54480542D01*
X88003800Y-54456650D01*
X88003800Y-53544150D01*
X88004974Y-53520258D01*
X88008484Y-53496597D01*
X88014296Y-53473393D01*
X88022354Y-53450871D01*
X88032582Y-53429247D01*
X88044879Y-53408730D01*
X88059129Y-53389517D01*
X88075193Y-53371793D01*
X88092917Y-53355729D01*
X88112130Y-53341479D01*
X88132647Y-53329182D01*
X88154271Y-53318954D01*
X88176793Y-53310896D01*
X88199997Y-53305084D01*
X88223658Y-53301574D01*
X88247550Y-53300400D01*
X88735050Y-53300400D01*
X88758942Y-53301574D01*
X88758942Y-53301574D01*
G37*
D14*
X88491300Y-54000400D03*
G04 #@! TD*
D13*
G04 #@! TO.C,D2*
G36*
X88758942Y-55943174D02*
X88782603Y-55946684D01*
X88805807Y-55952496D01*
X88828329Y-55960554D01*
X88849953Y-55970782D01*
X88870470Y-55983079D01*
X88889683Y-55997329D01*
X88907407Y-56013393D01*
X88923471Y-56031117D01*
X88937721Y-56050330D01*
X88950018Y-56070847D01*
X88960246Y-56092471D01*
X88968304Y-56114993D01*
X88974116Y-56138197D01*
X88977626Y-56161858D01*
X88978800Y-56185750D01*
X88978800Y-57098250D01*
X88977626Y-57122142D01*
X88974116Y-57145803D01*
X88968304Y-57169007D01*
X88960246Y-57191529D01*
X88950018Y-57213153D01*
X88937721Y-57233670D01*
X88923471Y-57252883D01*
X88907407Y-57270607D01*
X88889683Y-57286671D01*
X88870470Y-57300921D01*
X88849953Y-57313218D01*
X88828329Y-57323446D01*
X88805807Y-57331504D01*
X88782603Y-57337316D01*
X88758942Y-57340826D01*
X88735050Y-57342000D01*
X88247550Y-57342000D01*
X88223658Y-57340826D01*
X88199997Y-57337316D01*
X88176793Y-57331504D01*
X88154271Y-57323446D01*
X88132647Y-57313218D01*
X88112130Y-57300921D01*
X88092917Y-57286671D01*
X88075193Y-57270607D01*
X88059129Y-57252883D01*
X88044879Y-57233670D01*
X88032582Y-57213153D01*
X88022354Y-57191529D01*
X88014296Y-57169007D01*
X88008484Y-57145803D01*
X88004974Y-57122142D01*
X88003800Y-57098250D01*
X88003800Y-56185750D01*
X88004974Y-56161858D01*
X88008484Y-56138197D01*
X88014296Y-56114993D01*
X88022354Y-56092471D01*
X88032582Y-56070847D01*
X88044879Y-56050330D01*
X88059129Y-56031117D01*
X88075193Y-56013393D01*
X88092917Y-55997329D01*
X88112130Y-55983079D01*
X88132647Y-55970782D01*
X88154271Y-55960554D01*
X88176793Y-55952496D01*
X88199997Y-55946684D01*
X88223658Y-55943174D01*
X88247550Y-55942000D01*
X88735050Y-55942000D01*
X88758942Y-55943174D01*
X88758942Y-55943174D01*
G37*
D14*
X88491300Y-56642000D03*
D13*
G36*
X86883942Y-55943174D02*
X86907603Y-55946684D01*
X86930807Y-55952496D01*
X86953329Y-55960554D01*
X86974953Y-55970782D01*
X86995470Y-55983079D01*
X87014683Y-55997329D01*
X87032407Y-56013393D01*
X87048471Y-56031117D01*
X87062721Y-56050330D01*
X87075018Y-56070847D01*
X87085246Y-56092471D01*
X87093304Y-56114993D01*
X87099116Y-56138197D01*
X87102626Y-56161858D01*
X87103800Y-56185750D01*
X87103800Y-57098250D01*
X87102626Y-57122142D01*
X87099116Y-57145803D01*
X87093304Y-57169007D01*
X87085246Y-57191529D01*
X87075018Y-57213153D01*
X87062721Y-57233670D01*
X87048471Y-57252883D01*
X87032407Y-57270607D01*
X87014683Y-57286671D01*
X86995470Y-57300921D01*
X86974953Y-57313218D01*
X86953329Y-57323446D01*
X86930807Y-57331504D01*
X86907603Y-57337316D01*
X86883942Y-57340826D01*
X86860050Y-57342000D01*
X86372550Y-57342000D01*
X86348658Y-57340826D01*
X86324997Y-57337316D01*
X86301793Y-57331504D01*
X86279271Y-57323446D01*
X86257647Y-57313218D01*
X86237130Y-57300921D01*
X86217917Y-57286671D01*
X86200193Y-57270607D01*
X86184129Y-57252883D01*
X86169879Y-57233670D01*
X86157582Y-57213153D01*
X86147354Y-57191529D01*
X86139296Y-57169007D01*
X86133484Y-57145803D01*
X86129974Y-57122142D01*
X86128800Y-57098250D01*
X86128800Y-56185750D01*
X86129974Y-56161858D01*
X86133484Y-56138197D01*
X86139296Y-56114993D01*
X86147354Y-56092471D01*
X86157582Y-56070847D01*
X86169879Y-56050330D01*
X86184129Y-56031117D01*
X86200193Y-56013393D01*
X86217917Y-55997329D01*
X86237130Y-55983079D01*
X86257647Y-55970782D01*
X86279271Y-55960554D01*
X86301793Y-55952496D01*
X86324997Y-55946684D01*
X86348658Y-55943174D01*
X86372550Y-55942000D01*
X86860050Y-55942000D01*
X86883942Y-55943174D01*
X86883942Y-55943174D01*
G37*
D14*
X86616300Y-56642000D03*
G04 #@! TD*
D13*
G04 #@! TO.C,D3*
G36*
X86883942Y-58889574D02*
X86907603Y-58893084D01*
X86930807Y-58898896D01*
X86953329Y-58906954D01*
X86974953Y-58917182D01*
X86995470Y-58929479D01*
X87014683Y-58943729D01*
X87032407Y-58959793D01*
X87048471Y-58977517D01*
X87062721Y-58996730D01*
X87075018Y-59017247D01*
X87085246Y-59038871D01*
X87093304Y-59061393D01*
X87099116Y-59084597D01*
X87102626Y-59108258D01*
X87103800Y-59132150D01*
X87103800Y-60044650D01*
X87102626Y-60068542D01*
X87099116Y-60092203D01*
X87093304Y-60115407D01*
X87085246Y-60137929D01*
X87075018Y-60159553D01*
X87062721Y-60180070D01*
X87048471Y-60199283D01*
X87032407Y-60217007D01*
X87014683Y-60233071D01*
X86995470Y-60247321D01*
X86974953Y-60259618D01*
X86953329Y-60269846D01*
X86930807Y-60277904D01*
X86907603Y-60283716D01*
X86883942Y-60287226D01*
X86860050Y-60288400D01*
X86372550Y-60288400D01*
X86348658Y-60287226D01*
X86324997Y-60283716D01*
X86301793Y-60277904D01*
X86279271Y-60269846D01*
X86257647Y-60259618D01*
X86237130Y-60247321D01*
X86217917Y-60233071D01*
X86200193Y-60217007D01*
X86184129Y-60199283D01*
X86169879Y-60180070D01*
X86157582Y-60159553D01*
X86147354Y-60137929D01*
X86139296Y-60115407D01*
X86133484Y-60092203D01*
X86129974Y-60068542D01*
X86128800Y-60044650D01*
X86128800Y-59132150D01*
X86129974Y-59108258D01*
X86133484Y-59084597D01*
X86139296Y-59061393D01*
X86147354Y-59038871D01*
X86157582Y-59017247D01*
X86169879Y-58996730D01*
X86184129Y-58977517D01*
X86200193Y-58959793D01*
X86217917Y-58943729D01*
X86237130Y-58929479D01*
X86257647Y-58917182D01*
X86279271Y-58906954D01*
X86301793Y-58898896D01*
X86324997Y-58893084D01*
X86348658Y-58889574D01*
X86372550Y-58888400D01*
X86860050Y-58888400D01*
X86883942Y-58889574D01*
X86883942Y-58889574D01*
G37*
D14*
X86616300Y-59588400D03*
D13*
G36*
X88758942Y-58889574D02*
X88782603Y-58893084D01*
X88805807Y-58898896D01*
X88828329Y-58906954D01*
X88849953Y-58917182D01*
X88870470Y-58929479D01*
X88889683Y-58943729D01*
X88907407Y-58959793D01*
X88923471Y-58977517D01*
X88937721Y-58996730D01*
X88950018Y-59017247D01*
X88960246Y-59038871D01*
X88968304Y-59061393D01*
X88974116Y-59084597D01*
X88977626Y-59108258D01*
X88978800Y-59132150D01*
X88978800Y-60044650D01*
X88977626Y-60068542D01*
X88974116Y-60092203D01*
X88968304Y-60115407D01*
X88960246Y-60137929D01*
X88950018Y-60159553D01*
X88937721Y-60180070D01*
X88923471Y-60199283D01*
X88907407Y-60217007D01*
X88889683Y-60233071D01*
X88870470Y-60247321D01*
X88849953Y-60259618D01*
X88828329Y-60269846D01*
X88805807Y-60277904D01*
X88782603Y-60283716D01*
X88758942Y-60287226D01*
X88735050Y-60288400D01*
X88247550Y-60288400D01*
X88223658Y-60287226D01*
X88199997Y-60283716D01*
X88176793Y-60277904D01*
X88154271Y-60269846D01*
X88132647Y-60259618D01*
X88112130Y-60247321D01*
X88092917Y-60233071D01*
X88075193Y-60217007D01*
X88059129Y-60199283D01*
X88044879Y-60180070D01*
X88032582Y-60159553D01*
X88022354Y-60137929D01*
X88014296Y-60115407D01*
X88008484Y-60092203D01*
X88004974Y-60068542D01*
X88003800Y-60044650D01*
X88003800Y-59132150D01*
X88004974Y-59108258D01*
X88008484Y-59084597D01*
X88014296Y-59061393D01*
X88022354Y-59038871D01*
X88032582Y-59017247D01*
X88044879Y-58996730D01*
X88059129Y-58977517D01*
X88075193Y-58959793D01*
X88092917Y-58943729D01*
X88112130Y-58929479D01*
X88132647Y-58917182D01*
X88154271Y-58906954D01*
X88176793Y-58898896D01*
X88199997Y-58893084D01*
X88223658Y-58889574D01*
X88247550Y-58888400D01*
X88735050Y-58888400D01*
X88758942Y-58889574D01*
X88758942Y-58889574D01*
G37*
D14*
X88491300Y-59588400D03*
G04 #@! TD*
D13*
G04 #@! TO.C,D4*
G36*
X88758942Y-61886774D02*
X88782603Y-61890284D01*
X88805807Y-61896096D01*
X88828329Y-61904154D01*
X88849953Y-61914382D01*
X88870470Y-61926679D01*
X88889683Y-61940929D01*
X88907407Y-61956993D01*
X88923471Y-61974717D01*
X88937721Y-61993930D01*
X88950018Y-62014447D01*
X88960246Y-62036071D01*
X88968304Y-62058593D01*
X88974116Y-62081797D01*
X88977626Y-62105458D01*
X88978800Y-62129350D01*
X88978800Y-63041850D01*
X88977626Y-63065742D01*
X88974116Y-63089403D01*
X88968304Y-63112607D01*
X88960246Y-63135129D01*
X88950018Y-63156753D01*
X88937721Y-63177270D01*
X88923471Y-63196483D01*
X88907407Y-63214207D01*
X88889683Y-63230271D01*
X88870470Y-63244521D01*
X88849953Y-63256818D01*
X88828329Y-63267046D01*
X88805807Y-63275104D01*
X88782603Y-63280916D01*
X88758942Y-63284426D01*
X88735050Y-63285600D01*
X88247550Y-63285600D01*
X88223658Y-63284426D01*
X88199997Y-63280916D01*
X88176793Y-63275104D01*
X88154271Y-63267046D01*
X88132647Y-63256818D01*
X88112130Y-63244521D01*
X88092917Y-63230271D01*
X88075193Y-63214207D01*
X88059129Y-63196483D01*
X88044879Y-63177270D01*
X88032582Y-63156753D01*
X88022354Y-63135129D01*
X88014296Y-63112607D01*
X88008484Y-63089403D01*
X88004974Y-63065742D01*
X88003800Y-63041850D01*
X88003800Y-62129350D01*
X88004974Y-62105458D01*
X88008484Y-62081797D01*
X88014296Y-62058593D01*
X88022354Y-62036071D01*
X88032582Y-62014447D01*
X88044879Y-61993930D01*
X88059129Y-61974717D01*
X88075193Y-61956993D01*
X88092917Y-61940929D01*
X88112130Y-61926679D01*
X88132647Y-61914382D01*
X88154271Y-61904154D01*
X88176793Y-61896096D01*
X88199997Y-61890284D01*
X88223658Y-61886774D01*
X88247550Y-61885600D01*
X88735050Y-61885600D01*
X88758942Y-61886774D01*
X88758942Y-61886774D01*
G37*
D14*
X88491300Y-62585600D03*
D13*
G36*
X86883942Y-61886774D02*
X86907603Y-61890284D01*
X86930807Y-61896096D01*
X86953329Y-61904154D01*
X86974953Y-61914382D01*
X86995470Y-61926679D01*
X87014683Y-61940929D01*
X87032407Y-61956993D01*
X87048471Y-61974717D01*
X87062721Y-61993930D01*
X87075018Y-62014447D01*
X87085246Y-62036071D01*
X87093304Y-62058593D01*
X87099116Y-62081797D01*
X87102626Y-62105458D01*
X87103800Y-62129350D01*
X87103800Y-63041850D01*
X87102626Y-63065742D01*
X87099116Y-63089403D01*
X87093304Y-63112607D01*
X87085246Y-63135129D01*
X87075018Y-63156753D01*
X87062721Y-63177270D01*
X87048471Y-63196483D01*
X87032407Y-63214207D01*
X87014683Y-63230271D01*
X86995470Y-63244521D01*
X86974953Y-63256818D01*
X86953329Y-63267046D01*
X86930807Y-63275104D01*
X86907603Y-63280916D01*
X86883942Y-63284426D01*
X86860050Y-63285600D01*
X86372550Y-63285600D01*
X86348658Y-63284426D01*
X86324997Y-63280916D01*
X86301793Y-63275104D01*
X86279271Y-63267046D01*
X86257647Y-63256818D01*
X86237130Y-63244521D01*
X86217917Y-63230271D01*
X86200193Y-63214207D01*
X86184129Y-63196483D01*
X86169879Y-63177270D01*
X86157582Y-63156753D01*
X86147354Y-63135129D01*
X86139296Y-63112607D01*
X86133484Y-63089403D01*
X86129974Y-63065742D01*
X86128800Y-63041850D01*
X86128800Y-62129350D01*
X86129974Y-62105458D01*
X86133484Y-62081797D01*
X86139296Y-62058593D01*
X86147354Y-62036071D01*
X86157582Y-62014447D01*
X86169879Y-61993930D01*
X86184129Y-61974717D01*
X86200193Y-61956993D01*
X86217917Y-61940929D01*
X86237130Y-61926679D01*
X86257647Y-61914382D01*
X86279271Y-61904154D01*
X86301793Y-61896096D01*
X86324997Y-61890284D01*
X86348658Y-61886774D01*
X86372550Y-61885600D01*
X86860050Y-61885600D01*
X86883942Y-61886774D01*
X86883942Y-61886774D01*
G37*
D14*
X86616300Y-62585600D03*
G04 #@! TD*
D16*
G04 #@! TO.C,J1*
X88887500Y-100360500D03*
X89687500Y-100360500D03*
X90487500Y-100360500D03*
X91287500Y-100360500D03*
X92087500Y-100360500D03*
D17*
X86037500Y-100460500D03*
X86037500Y-105910500D03*
X94937500Y-100460500D03*
X94937500Y-105910500D03*
G04 #@! TD*
D13*
G04 #@! TO.C,L1*
G36*
X85617979Y-97239944D02*
X85641034Y-97243363D01*
X85663643Y-97249027D01*
X85685587Y-97256879D01*
X85706657Y-97266844D01*
X85726648Y-97278826D01*
X85745368Y-97292710D01*
X85762638Y-97308362D01*
X85778290Y-97325632D01*
X85792174Y-97344352D01*
X85804156Y-97364343D01*
X85814121Y-97385413D01*
X85821973Y-97407357D01*
X85827637Y-97429966D01*
X85831056Y-97453021D01*
X85832200Y-97476300D01*
X85832200Y-97951300D01*
X85831056Y-97974579D01*
X85827637Y-97997634D01*
X85821973Y-98020243D01*
X85814121Y-98042187D01*
X85804156Y-98063257D01*
X85792174Y-98083248D01*
X85778290Y-98101968D01*
X85762638Y-98119238D01*
X85745368Y-98134890D01*
X85726648Y-98148774D01*
X85706657Y-98160756D01*
X85685587Y-98170721D01*
X85663643Y-98178573D01*
X85641034Y-98184237D01*
X85617979Y-98187656D01*
X85594700Y-98188800D01*
X85019700Y-98188800D01*
X84996421Y-98187656D01*
X84973366Y-98184237D01*
X84950757Y-98178573D01*
X84928813Y-98170721D01*
X84907743Y-98160756D01*
X84887752Y-98148774D01*
X84869032Y-98134890D01*
X84851762Y-98119238D01*
X84836110Y-98101968D01*
X84822226Y-98083248D01*
X84810244Y-98063257D01*
X84800279Y-98042187D01*
X84792427Y-98020243D01*
X84786763Y-97997634D01*
X84783344Y-97974579D01*
X84782200Y-97951300D01*
X84782200Y-97476300D01*
X84783344Y-97453021D01*
X84786763Y-97429966D01*
X84792427Y-97407357D01*
X84800279Y-97385413D01*
X84810244Y-97364343D01*
X84822226Y-97344352D01*
X84836110Y-97325632D01*
X84851762Y-97308362D01*
X84869032Y-97292710D01*
X84887752Y-97278826D01*
X84907743Y-97266844D01*
X84928813Y-97256879D01*
X84950757Y-97249027D01*
X84973366Y-97243363D01*
X84996421Y-97239944D01*
X85019700Y-97238800D01*
X85594700Y-97238800D01*
X85617979Y-97239944D01*
X85617979Y-97239944D01*
G37*
D18*
X85307200Y-97713800D03*
D13*
G36*
X87367979Y-97239944D02*
X87391034Y-97243363D01*
X87413643Y-97249027D01*
X87435587Y-97256879D01*
X87456657Y-97266844D01*
X87476648Y-97278826D01*
X87495368Y-97292710D01*
X87512638Y-97308362D01*
X87528290Y-97325632D01*
X87542174Y-97344352D01*
X87554156Y-97364343D01*
X87564121Y-97385413D01*
X87571973Y-97407357D01*
X87577637Y-97429966D01*
X87581056Y-97453021D01*
X87582200Y-97476300D01*
X87582200Y-97951300D01*
X87581056Y-97974579D01*
X87577637Y-97997634D01*
X87571973Y-98020243D01*
X87564121Y-98042187D01*
X87554156Y-98063257D01*
X87542174Y-98083248D01*
X87528290Y-98101968D01*
X87512638Y-98119238D01*
X87495368Y-98134890D01*
X87476648Y-98148774D01*
X87456657Y-98160756D01*
X87435587Y-98170721D01*
X87413643Y-98178573D01*
X87391034Y-98184237D01*
X87367979Y-98187656D01*
X87344700Y-98188800D01*
X86769700Y-98188800D01*
X86746421Y-98187656D01*
X86723366Y-98184237D01*
X86700757Y-98178573D01*
X86678813Y-98170721D01*
X86657743Y-98160756D01*
X86637752Y-98148774D01*
X86619032Y-98134890D01*
X86601762Y-98119238D01*
X86586110Y-98101968D01*
X86572226Y-98083248D01*
X86560244Y-98063257D01*
X86550279Y-98042187D01*
X86542427Y-98020243D01*
X86536763Y-97997634D01*
X86533344Y-97974579D01*
X86532200Y-97951300D01*
X86532200Y-97476300D01*
X86533344Y-97453021D01*
X86536763Y-97429966D01*
X86542427Y-97407357D01*
X86550279Y-97385413D01*
X86560244Y-97364343D01*
X86572226Y-97344352D01*
X86586110Y-97325632D01*
X86601762Y-97308362D01*
X86619032Y-97292710D01*
X86637752Y-97278826D01*
X86657743Y-97266844D01*
X86678813Y-97256879D01*
X86700757Y-97249027D01*
X86723366Y-97243363D01*
X86746421Y-97239944D01*
X86769700Y-97238800D01*
X87344700Y-97238800D01*
X87367979Y-97239944D01*
X87367979Y-97239944D01*
G37*
D18*
X87057200Y-97713800D03*
G04 #@! TD*
D13*
G04 #@! TO.C,L2*
G36*
X104286979Y-70691864D02*
X104310034Y-70695283D01*
X104332643Y-70700947D01*
X104354587Y-70708799D01*
X104375657Y-70718764D01*
X104395648Y-70730746D01*
X104414368Y-70744630D01*
X104431638Y-70760282D01*
X104447290Y-70777552D01*
X104461174Y-70796272D01*
X104473156Y-70816263D01*
X104483121Y-70837333D01*
X104490973Y-70859277D01*
X104496637Y-70881886D01*
X104500056Y-70904941D01*
X104501200Y-70928220D01*
X104501200Y-71403220D01*
X104500056Y-71426499D01*
X104496637Y-71449554D01*
X104490973Y-71472163D01*
X104483121Y-71494107D01*
X104473156Y-71515177D01*
X104461174Y-71535168D01*
X104447290Y-71553888D01*
X104431638Y-71571158D01*
X104414368Y-71586810D01*
X104395648Y-71600694D01*
X104375657Y-71612676D01*
X104354587Y-71622641D01*
X104332643Y-71630493D01*
X104310034Y-71636157D01*
X104286979Y-71639576D01*
X104263700Y-71640720D01*
X103688700Y-71640720D01*
X103665421Y-71639576D01*
X103642366Y-71636157D01*
X103619757Y-71630493D01*
X103597813Y-71622641D01*
X103576743Y-71612676D01*
X103556752Y-71600694D01*
X103538032Y-71586810D01*
X103520762Y-71571158D01*
X103505110Y-71553888D01*
X103491226Y-71535168D01*
X103479244Y-71515177D01*
X103469279Y-71494107D01*
X103461427Y-71472163D01*
X103455763Y-71449554D01*
X103452344Y-71426499D01*
X103451200Y-71403220D01*
X103451200Y-70928220D01*
X103452344Y-70904941D01*
X103455763Y-70881886D01*
X103461427Y-70859277D01*
X103469279Y-70837333D01*
X103479244Y-70816263D01*
X103491226Y-70796272D01*
X103505110Y-70777552D01*
X103520762Y-70760282D01*
X103538032Y-70744630D01*
X103556752Y-70730746D01*
X103576743Y-70718764D01*
X103597813Y-70708799D01*
X103619757Y-70700947D01*
X103642366Y-70695283D01*
X103665421Y-70691864D01*
X103688700Y-70690720D01*
X104263700Y-70690720D01*
X104286979Y-70691864D01*
X104286979Y-70691864D01*
G37*
D18*
X103976200Y-71165720D03*
D13*
G36*
X106036979Y-70691864D02*
X106060034Y-70695283D01*
X106082643Y-70700947D01*
X106104587Y-70708799D01*
X106125657Y-70718764D01*
X106145648Y-70730746D01*
X106164368Y-70744630D01*
X106181638Y-70760282D01*
X106197290Y-70777552D01*
X106211174Y-70796272D01*
X106223156Y-70816263D01*
X106233121Y-70837333D01*
X106240973Y-70859277D01*
X106246637Y-70881886D01*
X106250056Y-70904941D01*
X106251200Y-70928220D01*
X106251200Y-71403220D01*
X106250056Y-71426499D01*
X106246637Y-71449554D01*
X106240973Y-71472163D01*
X106233121Y-71494107D01*
X106223156Y-71515177D01*
X106211174Y-71535168D01*
X106197290Y-71553888D01*
X106181638Y-71571158D01*
X106164368Y-71586810D01*
X106145648Y-71600694D01*
X106125657Y-71612676D01*
X106104587Y-71622641D01*
X106082643Y-71630493D01*
X106060034Y-71636157D01*
X106036979Y-71639576D01*
X106013700Y-71640720D01*
X105438700Y-71640720D01*
X105415421Y-71639576D01*
X105392366Y-71636157D01*
X105369757Y-71630493D01*
X105347813Y-71622641D01*
X105326743Y-71612676D01*
X105306752Y-71600694D01*
X105288032Y-71586810D01*
X105270762Y-71571158D01*
X105255110Y-71553888D01*
X105241226Y-71535168D01*
X105229244Y-71515177D01*
X105219279Y-71494107D01*
X105211427Y-71472163D01*
X105205763Y-71449554D01*
X105202344Y-71426499D01*
X105201200Y-71403220D01*
X105201200Y-70928220D01*
X105202344Y-70904941D01*
X105205763Y-70881886D01*
X105211427Y-70859277D01*
X105219279Y-70837333D01*
X105229244Y-70816263D01*
X105241226Y-70796272D01*
X105255110Y-70777552D01*
X105270762Y-70760282D01*
X105288032Y-70744630D01*
X105306752Y-70730746D01*
X105326743Y-70718764D01*
X105347813Y-70708799D01*
X105369757Y-70700947D01*
X105392366Y-70695283D01*
X105415421Y-70691864D01*
X105438700Y-70690720D01*
X106013700Y-70690720D01*
X106036979Y-70691864D01*
X106036979Y-70691864D01*
G37*
D18*
X105726200Y-71165720D03*
G04 #@! TD*
D13*
G04 #@! TO.C,R1*
G36*
X107566542Y-103986174D02*
X107590203Y-103989684D01*
X107613407Y-103995496D01*
X107635929Y-104003554D01*
X107657553Y-104013782D01*
X107678070Y-104026079D01*
X107697283Y-104040329D01*
X107715007Y-104056393D01*
X107731071Y-104074117D01*
X107745321Y-104093330D01*
X107757618Y-104113847D01*
X107767846Y-104135471D01*
X107775904Y-104157993D01*
X107781716Y-104181197D01*
X107785226Y-104204858D01*
X107786400Y-104228750D01*
X107786400Y-104716250D01*
X107785226Y-104740142D01*
X107781716Y-104763803D01*
X107775904Y-104787007D01*
X107767846Y-104809529D01*
X107757618Y-104831153D01*
X107745321Y-104851670D01*
X107731071Y-104870883D01*
X107715007Y-104888607D01*
X107697283Y-104904671D01*
X107678070Y-104918921D01*
X107657553Y-104931218D01*
X107635929Y-104941446D01*
X107613407Y-104949504D01*
X107590203Y-104955316D01*
X107566542Y-104958826D01*
X107542650Y-104960000D01*
X106630150Y-104960000D01*
X106606258Y-104958826D01*
X106582597Y-104955316D01*
X106559393Y-104949504D01*
X106536871Y-104941446D01*
X106515247Y-104931218D01*
X106494730Y-104918921D01*
X106475517Y-104904671D01*
X106457793Y-104888607D01*
X106441729Y-104870883D01*
X106427479Y-104851670D01*
X106415182Y-104831153D01*
X106404954Y-104809529D01*
X106396896Y-104787007D01*
X106391084Y-104763803D01*
X106387574Y-104740142D01*
X106386400Y-104716250D01*
X106386400Y-104228750D01*
X106387574Y-104204858D01*
X106391084Y-104181197D01*
X106396896Y-104157993D01*
X106404954Y-104135471D01*
X106415182Y-104113847D01*
X106427479Y-104093330D01*
X106441729Y-104074117D01*
X106457793Y-104056393D01*
X106475517Y-104040329D01*
X106494730Y-104026079D01*
X106515247Y-104013782D01*
X106536871Y-104003554D01*
X106559393Y-103995496D01*
X106582597Y-103989684D01*
X106606258Y-103986174D01*
X106630150Y-103985000D01*
X107542650Y-103985000D01*
X107566542Y-103986174D01*
X107566542Y-103986174D01*
G37*
D14*
X107086400Y-104472500D03*
D13*
G36*
X107566542Y-105861174D02*
X107590203Y-105864684D01*
X107613407Y-105870496D01*
X107635929Y-105878554D01*
X107657553Y-105888782D01*
X107678070Y-105901079D01*
X107697283Y-105915329D01*
X107715007Y-105931393D01*
X107731071Y-105949117D01*
X107745321Y-105968330D01*
X107757618Y-105988847D01*
X107767846Y-106010471D01*
X107775904Y-106032993D01*
X107781716Y-106056197D01*
X107785226Y-106079858D01*
X107786400Y-106103750D01*
X107786400Y-106591250D01*
X107785226Y-106615142D01*
X107781716Y-106638803D01*
X107775904Y-106662007D01*
X107767846Y-106684529D01*
X107757618Y-106706153D01*
X107745321Y-106726670D01*
X107731071Y-106745883D01*
X107715007Y-106763607D01*
X107697283Y-106779671D01*
X107678070Y-106793921D01*
X107657553Y-106806218D01*
X107635929Y-106816446D01*
X107613407Y-106824504D01*
X107590203Y-106830316D01*
X107566542Y-106833826D01*
X107542650Y-106835000D01*
X106630150Y-106835000D01*
X106606258Y-106833826D01*
X106582597Y-106830316D01*
X106559393Y-106824504D01*
X106536871Y-106816446D01*
X106515247Y-106806218D01*
X106494730Y-106793921D01*
X106475517Y-106779671D01*
X106457793Y-106763607D01*
X106441729Y-106745883D01*
X106427479Y-106726670D01*
X106415182Y-106706153D01*
X106404954Y-106684529D01*
X106396896Y-106662007D01*
X106391084Y-106638803D01*
X106387574Y-106615142D01*
X106386400Y-106591250D01*
X106386400Y-106103750D01*
X106387574Y-106079858D01*
X106391084Y-106056197D01*
X106396896Y-106032993D01*
X106404954Y-106010471D01*
X106415182Y-105988847D01*
X106427479Y-105968330D01*
X106441729Y-105949117D01*
X106457793Y-105931393D01*
X106475517Y-105915329D01*
X106494730Y-105901079D01*
X106515247Y-105888782D01*
X106536871Y-105878554D01*
X106559393Y-105870496D01*
X106582597Y-105864684D01*
X106606258Y-105861174D01*
X106630150Y-105860000D01*
X107542650Y-105860000D01*
X107566542Y-105861174D01*
X107566542Y-105861174D01*
G37*
D14*
X107086400Y-106347500D03*
G04 #@! TD*
D13*
G04 #@! TO.C,R2*
G36*
X129454342Y-55003374D02*
X129478003Y-55006884D01*
X129501207Y-55012696D01*
X129523729Y-55020754D01*
X129545353Y-55030982D01*
X129565870Y-55043279D01*
X129585083Y-55057529D01*
X129602807Y-55073593D01*
X129618871Y-55091317D01*
X129633121Y-55110530D01*
X129645418Y-55131047D01*
X129655646Y-55152671D01*
X129663704Y-55175193D01*
X129669516Y-55198397D01*
X129673026Y-55222058D01*
X129674200Y-55245950D01*
X129674200Y-56158450D01*
X129673026Y-56182342D01*
X129669516Y-56206003D01*
X129663704Y-56229207D01*
X129655646Y-56251729D01*
X129645418Y-56273353D01*
X129633121Y-56293870D01*
X129618871Y-56313083D01*
X129602807Y-56330807D01*
X129585083Y-56346871D01*
X129565870Y-56361121D01*
X129545353Y-56373418D01*
X129523729Y-56383646D01*
X129501207Y-56391704D01*
X129478003Y-56397516D01*
X129454342Y-56401026D01*
X129430450Y-56402200D01*
X128942950Y-56402200D01*
X128919058Y-56401026D01*
X128895397Y-56397516D01*
X128872193Y-56391704D01*
X128849671Y-56383646D01*
X128828047Y-56373418D01*
X128807530Y-56361121D01*
X128788317Y-56346871D01*
X128770593Y-56330807D01*
X128754529Y-56313083D01*
X128740279Y-56293870D01*
X128727982Y-56273353D01*
X128717754Y-56251729D01*
X128709696Y-56229207D01*
X128703884Y-56206003D01*
X128700374Y-56182342D01*
X128699200Y-56158450D01*
X128699200Y-55245950D01*
X128700374Y-55222058D01*
X128703884Y-55198397D01*
X128709696Y-55175193D01*
X128717754Y-55152671D01*
X128727982Y-55131047D01*
X128740279Y-55110530D01*
X128754529Y-55091317D01*
X128770593Y-55073593D01*
X128788317Y-55057529D01*
X128807530Y-55043279D01*
X128828047Y-55030982D01*
X128849671Y-55020754D01*
X128872193Y-55012696D01*
X128895397Y-55006884D01*
X128919058Y-55003374D01*
X128942950Y-55002200D01*
X129430450Y-55002200D01*
X129454342Y-55003374D01*
X129454342Y-55003374D01*
G37*
D14*
X129186700Y-55702200D03*
D13*
G36*
X131329342Y-55003374D02*
X131353003Y-55006884D01*
X131376207Y-55012696D01*
X131398729Y-55020754D01*
X131420353Y-55030982D01*
X131440870Y-55043279D01*
X131460083Y-55057529D01*
X131477807Y-55073593D01*
X131493871Y-55091317D01*
X131508121Y-55110530D01*
X131520418Y-55131047D01*
X131530646Y-55152671D01*
X131538704Y-55175193D01*
X131544516Y-55198397D01*
X131548026Y-55222058D01*
X131549200Y-55245950D01*
X131549200Y-56158450D01*
X131548026Y-56182342D01*
X131544516Y-56206003D01*
X131538704Y-56229207D01*
X131530646Y-56251729D01*
X131520418Y-56273353D01*
X131508121Y-56293870D01*
X131493871Y-56313083D01*
X131477807Y-56330807D01*
X131460083Y-56346871D01*
X131440870Y-56361121D01*
X131420353Y-56373418D01*
X131398729Y-56383646D01*
X131376207Y-56391704D01*
X131353003Y-56397516D01*
X131329342Y-56401026D01*
X131305450Y-56402200D01*
X130817950Y-56402200D01*
X130794058Y-56401026D01*
X130770397Y-56397516D01*
X130747193Y-56391704D01*
X130724671Y-56383646D01*
X130703047Y-56373418D01*
X130682530Y-56361121D01*
X130663317Y-56346871D01*
X130645593Y-56330807D01*
X130629529Y-56313083D01*
X130615279Y-56293870D01*
X130602982Y-56273353D01*
X130592754Y-56251729D01*
X130584696Y-56229207D01*
X130578884Y-56206003D01*
X130575374Y-56182342D01*
X130574200Y-56158450D01*
X130574200Y-55245950D01*
X130575374Y-55222058D01*
X130578884Y-55198397D01*
X130584696Y-55175193D01*
X130592754Y-55152671D01*
X130602982Y-55131047D01*
X130615279Y-55110530D01*
X130629529Y-55091317D01*
X130645593Y-55073593D01*
X130663317Y-55057529D01*
X130682530Y-55043279D01*
X130703047Y-55030982D01*
X130724671Y-55020754D01*
X130747193Y-55012696D01*
X130770397Y-55006884D01*
X130794058Y-55003374D01*
X130817950Y-55002200D01*
X131305450Y-55002200D01*
X131329342Y-55003374D01*
X131329342Y-55003374D01*
G37*
D14*
X131061700Y-55702200D03*
G04 #@! TD*
D13*
G04 #@! TO.C,R3*
G36*
X113967342Y-105886574D02*
X113991003Y-105890084D01*
X114014207Y-105895896D01*
X114036729Y-105903954D01*
X114058353Y-105914182D01*
X114078870Y-105926479D01*
X114098083Y-105940729D01*
X114115807Y-105956793D01*
X114131871Y-105974517D01*
X114146121Y-105993730D01*
X114158418Y-106014247D01*
X114168646Y-106035871D01*
X114176704Y-106058393D01*
X114182516Y-106081597D01*
X114186026Y-106105258D01*
X114187200Y-106129150D01*
X114187200Y-106616650D01*
X114186026Y-106640542D01*
X114182516Y-106664203D01*
X114176704Y-106687407D01*
X114168646Y-106709929D01*
X114158418Y-106731553D01*
X114146121Y-106752070D01*
X114131871Y-106771283D01*
X114115807Y-106789007D01*
X114098083Y-106805071D01*
X114078870Y-106819321D01*
X114058353Y-106831618D01*
X114036729Y-106841846D01*
X114014207Y-106849904D01*
X113991003Y-106855716D01*
X113967342Y-106859226D01*
X113943450Y-106860400D01*
X113030950Y-106860400D01*
X113007058Y-106859226D01*
X112983397Y-106855716D01*
X112960193Y-106849904D01*
X112937671Y-106841846D01*
X112916047Y-106831618D01*
X112895530Y-106819321D01*
X112876317Y-106805071D01*
X112858593Y-106789007D01*
X112842529Y-106771283D01*
X112828279Y-106752070D01*
X112815982Y-106731553D01*
X112805754Y-106709929D01*
X112797696Y-106687407D01*
X112791884Y-106664203D01*
X112788374Y-106640542D01*
X112787200Y-106616650D01*
X112787200Y-106129150D01*
X112788374Y-106105258D01*
X112791884Y-106081597D01*
X112797696Y-106058393D01*
X112805754Y-106035871D01*
X112815982Y-106014247D01*
X112828279Y-105993730D01*
X112842529Y-105974517D01*
X112858593Y-105956793D01*
X112876317Y-105940729D01*
X112895530Y-105926479D01*
X112916047Y-105914182D01*
X112937671Y-105903954D01*
X112960193Y-105895896D01*
X112983397Y-105890084D01*
X113007058Y-105886574D01*
X113030950Y-105885400D01*
X113943450Y-105885400D01*
X113967342Y-105886574D01*
X113967342Y-105886574D01*
G37*
D14*
X113487200Y-106372900D03*
D13*
G36*
X113967342Y-104011574D02*
X113991003Y-104015084D01*
X114014207Y-104020896D01*
X114036729Y-104028954D01*
X114058353Y-104039182D01*
X114078870Y-104051479D01*
X114098083Y-104065729D01*
X114115807Y-104081793D01*
X114131871Y-104099517D01*
X114146121Y-104118730D01*
X114158418Y-104139247D01*
X114168646Y-104160871D01*
X114176704Y-104183393D01*
X114182516Y-104206597D01*
X114186026Y-104230258D01*
X114187200Y-104254150D01*
X114187200Y-104741650D01*
X114186026Y-104765542D01*
X114182516Y-104789203D01*
X114176704Y-104812407D01*
X114168646Y-104834929D01*
X114158418Y-104856553D01*
X114146121Y-104877070D01*
X114131871Y-104896283D01*
X114115807Y-104914007D01*
X114098083Y-104930071D01*
X114078870Y-104944321D01*
X114058353Y-104956618D01*
X114036729Y-104966846D01*
X114014207Y-104974904D01*
X113991003Y-104980716D01*
X113967342Y-104984226D01*
X113943450Y-104985400D01*
X113030950Y-104985400D01*
X113007058Y-104984226D01*
X112983397Y-104980716D01*
X112960193Y-104974904D01*
X112937671Y-104966846D01*
X112916047Y-104956618D01*
X112895530Y-104944321D01*
X112876317Y-104930071D01*
X112858593Y-104914007D01*
X112842529Y-104896283D01*
X112828279Y-104877070D01*
X112815982Y-104856553D01*
X112805754Y-104834929D01*
X112797696Y-104812407D01*
X112791884Y-104789203D01*
X112788374Y-104765542D01*
X112787200Y-104741650D01*
X112787200Y-104254150D01*
X112788374Y-104230258D01*
X112791884Y-104206597D01*
X112797696Y-104183393D01*
X112805754Y-104160871D01*
X112815982Y-104139247D01*
X112828279Y-104118730D01*
X112842529Y-104099517D01*
X112858593Y-104081793D01*
X112876317Y-104065729D01*
X112895530Y-104051479D01*
X112916047Y-104039182D01*
X112937671Y-104028954D01*
X112960193Y-104020896D01*
X112983397Y-104015084D01*
X113007058Y-104011574D01*
X113030950Y-104010400D01*
X113943450Y-104010400D01*
X113967342Y-104011574D01*
X113967342Y-104011574D01*
G37*
D14*
X113487200Y-104497900D03*
G04 #@! TD*
D13*
G04 #@! TO.C,R4*
G36*
X121434942Y-59836374D02*
X121458603Y-59839884D01*
X121481807Y-59845696D01*
X121504329Y-59853754D01*
X121525953Y-59863982D01*
X121546470Y-59876279D01*
X121565683Y-59890529D01*
X121583407Y-59906593D01*
X121599471Y-59924317D01*
X121613721Y-59943530D01*
X121626018Y-59964047D01*
X121636246Y-59985671D01*
X121644304Y-60008193D01*
X121650116Y-60031397D01*
X121653626Y-60055058D01*
X121654800Y-60078950D01*
X121654800Y-60566450D01*
X121653626Y-60590342D01*
X121650116Y-60614003D01*
X121644304Y-60637207D01*
X121636246Y-60659729D01*
X121626018Y-60681353D01*
X121613721Y-60701870D01*
X121599471Y-60721083D01*
X121583407Y-60738807D01*
X121565683Y-60754871D01*
X121546470Y-60769121D01*
X121525953Y-60781418D01*
X121504329Y-60791646D01*
X121481807Y-60799704D01*
X121458603Y-60805516D01*
X121434942Y-60809026D01*
X121411050Y-60810200D01*
X120498550Y-60810200D01*
X120474658Y-60809026D01*
X120450997Y-60805516D01*
X120427793Y-60799704D01*
X120405271Y-60791646D01*
X120383647Y-60781418D01*
X120363130Y-60769121D01*
X120343917Y-60754871D01*
X120326193Y-60738807D01*
X120310129Y-60721083D01*
X120295879Y-60701870D01*
X120283582Y-60681353D01*
X120273354Y-60659729D01*
X120265296Y-60637207D01*
X120259484Y-60614003D01*
X120255974Y-60590342D01*
X120254800Y-60566450D01*
X120254800Y-60078950D01*
X120255974Y-60055058D01*
X120259484Y-60031397D01*
X120265296Y-60008193D01*
X120273354Y-59985671D01*
X120283582Y-59964047D01*
X120295879Y-59943530D01*
X120310129Y-59924317D01*
X120326193Y-59906593D01*
X120343917Y-59890529D01*
X120363130Y-59876279D01*
X120383647Y-59863982D01*
X120405271Y-59853754D01*
X120427793Y-59845696D01*
X120450997Y-59839884D01*
X120474658Y-59836374D01*
X120498550Y-59835200D01*
X121411050Y-59835200D01*
X121434942Y-59836374D01*
X121434942Y-59836374D01*
G37*
D14*
X120954800Y-60322700D03*
D13*
G36*
X121434942Y-57961374D02*
X121458603Y-57964884D01*
X121481807Y-57970696D01*
X121504329Y-57978754D01*
X121525953Y-57988982D01*
X121546470Y-58001279D01*
X121565683Y-58015529D01*
X121583407Y-58031593D01*
X121599471Y-58049317D01*
X121613721Y-58068530D01*
X121626018Y-58089047D01*
X121636246Y-58110671D01*
X121644304Y-58133193D01*
X121650116Y-58156397D01*
X121653626Y-58180058D01*
X121654800Y-58203950D01*
X121654800Y-58691450D01*
X121653626Y-58715342D01*
X121650116Y-58739003D01*
X121644304Y-58762207D01*
X121636246Y-58784729D01*
X121626018Y-58806353D01*
X121613721Y-58826870D01*
X121599471Y-58846083D01*
X121583407Y-58863807D01*
X121565683Y-58879871D01*
X121546470Y-58894121D01*
X121525953Y-58906418D01*
X121504329Y-58916646D01*
X121481807Y-58924704D01*
X121458603Y-58930516D01*
X121434942Y-58934026D01*
X121411050Y-58935200D01*
X120498550Y-58935200D01*
X120474658Y-58934026D01*
X120450997Y-58930516D01*
X120427793Y-58924704D01*
X120405271Y-58916646D01*
X120383647Y-58906418D01*
X120363130Y-58894121D01*
X120343917Y-58879871D01*
X120326193Y-58863807D01*
X120310129Y-58846083D01*
X120295879Y-58826870D01*
X120283582Y-58806353D01*
X120273354Y-58784729D01*
X120265296Y-58762207D01*
X120259484Y-58739003D01*
X120255974Y-58715342D01*
X120254800Y-58691450D01*
X120254800Y-58203950D01*
X120255974Y-58180058D01*
X120259484Y-58156397D01*
X120265296Y-58133193D01*
X120273354Y-58110671D01*
X120283582Y-58089047D01*
X120295879Y-58068530D01*
X120310129Y-58049317D01*
X120326193Y-58031593D01*
X120343917Y-58015529D01*
X120363130Y-58001279D01*
X120383647Y-57988982D01*
X120405271Y-57978754D01*
X120427793Y-57970696D01*
X120450997Y-57964884D01*
X120474658Y-57961374D01*
X120498550Y-57960200D01*
X121411050Y-57960200D01*
X121434942Y-57961374D01*
X121434942Y-57961374D01*
G37*
D14*
X120954800Y-58447700D03*
G04 #@! TD*
D13*
G04 #@! TO.C,R7*
G36*
X125702142Y-59836374D02*
X125725803Y-59839884D01*
X125749007Y-59845696D01*
X125771529Y-59853754D01*
X125793153Y-59863982D01*
X125813670Y-59876279D01*
X125832883Y-59890529D01*
X125850607Y-59906593D01*
X125866671Y-59924317D01*
X125880921Y-59943530D01*
X125893218Y-59964047D01*
X125903446Y-59985671D01*
X125911504Y-60008193D01*
X125917316Y-60031397D01*
X125920826Y-60055058D01*
X125922000Y-60078950D01*
X125922000Y-60566450D01*
X125920826Y-60590342D01*
X125917316Y-60614003D01*
X125911504Y-60637207D01*
X125903446Y-60659729D01*
X125893218Y-60681353D01*
X125880921Y-60701870D01*
X125866671Y-60721083D01*
X125850607Y-60738807D01*
X125832883Y-60754871D01*
X125813670Y-60769121D01*
X125793153Y-60781418D01*
X125771529Y-60791646D01*
X125749007Y-60799704D01*
X125725803Y-60805516D01*
X125702142Y-60809026D01*
X125678250Y-60810200D01*
X124765750Y-60810200D01*
X124741858Y-60809026D01*
X124718197Y-60805516D01*
X124694993Y-60799704D01*
X124672471Y-60791646D01*
X124650847Y-60781418D01*
X124630330Y-60769121D01*
X124611117Y-60754871D01*
X124593393Y-60738807D01*
X124577329Y-60721083D01*
X124563079Y-60701870D01*
X124550782Y-60681353D01*
X124540554Y-60659729D01*
X124532496Y-60637207D01*
X124526684Y-60614003D01*
X124523174Y-60590342D01*
X124522000Y-60566450D01*
X124522000Y-60078950D01*
X124523174Y-60055058D01*
X124526684Y-60031397D01*
X124532496Y-60008193D01*
X124540554Y-59985671D01*
X124550782Y-59964047D01*
X124563079Y-59943530D01*
X124577329Y-59924317D01*
X124593393Y-59906593D01*
X124611117Y-59890529D01*
X124630330Y-59876279D01*
X124650847Y-59863982D01*
X124672471Y-59853754D01*
X124694993Y-59845696D01*
X124718197Y-59839884D01*
X124741858Y-59836374D01*
X124765750Y-59835200D01*
X125678250Y-59835200D01*
X125702142Y-59836374D01*
X125702142Y-59836374D01*
G37*
D14*
X125222000Y-60322700D03*
D13*
G36*
X125702142Y-57961374D02*
X125725803Y-57964884D01*
X125749007Y-57970696D01*
X125771529Y-57978754D01*
X125793153Y-57988982D01*
X125813670Y-58001279D01*
X125832883Y-58015529D01*
X125850607Y-58031593D01*
X125866671Y-58049317D01*
X125880921Y-58068530D01*
X125893218Y-58089047D01*
X125903446Y-58110671D01*
X125911504Y-58133193D01*
X125917316Y-58156397D01*
X125920826Y-58180058D01*
X125922000Y-58203950D01*
X125922000Y-58691450D01*
X125920826Y-58715342D01*
X125917316Y-58739003D01*
X125911504Y-58762207D01*
X125903446Y-58784729D01*
X125893218Y-58806353D01*
X125880921Y-58826870D01*
X125866671Y-58846083D01*
X125850607Y-58863807D01*
X125832883Y-58879871D01*
X125813670Y-58894121D01*
X125793153Y-58906418D01*
X125771529Y-58916646D01*
X125749007Y-58924704D01*
X125725803Y-58930516D01*
X125702142Y-58934026D01*
X125678250Y-58935200D01*
X124765750Y-58935200D01*
X124741858Y-58934026D01*
X124718197Y-58930516D01*
X124694993Y-58924704D01*
X124672471Y-58916646D01*
X124650847Y-58906418D01*
X124630330Y-58894121D01*
X124611117Y-58879871D01*
X124593393Y-58863807D01*
X124577329Y-58846083D01*
X124563079Y-58826870D01*
X124550782Y-58806353D01*
X124540554Y-58784729D01*
X124532496Y-58762207D01*
X124526684Y-58739003D01*
X124523174Y-58715342D01*
X124522000Y-58691450D01*
X124522000Y-58203950D01*
X124523174Y-58180058D01*
X124526684Y-58156397D01*
X124532496Y-58133193D01*
X124540554Y-58110671D01*
X124550782Y-58089047D01*
X124563079Y-58068530D01*
X124577329Y-58049317D01*
X124593393Y-58031593D01*
X124611117Y-58015529D01*
X124630330Y-58001279D01*
X124650847Y-57988982D01*
X124672471Y-57978754D01*
X124694993Y-57970696D01*
X124718197Y-57964884D01*
X124741858Y-57961374D01*
X124765750Y-57960200D01*
X125678250Y-57960200D01*
X125702142Y-57961374D01*
X125702142Y-57961374D01*
G37*
D14*
X125222000Y-58447700D03*
G04 #@! TD*
D13*
G04 #@! TO.C,R8*
G36*
X125702142Y-63341574D02*
X125725803Y-63345084D01*
X125749007Y-63350896D01*
X125771529Y-63358954D01*
X125793153Y-63369182D01*
X125813670Y-63381479D01*
X125832883Y-63395729D01*
X125850607Y-63411793D01*
X125866671Y-63429517D01*
X125880921Y-63448730D01*
X125893218Y-63469247D01*
X125903446Y-63490871D01*
X125911504Y-63513393D01*
X125917316Y-63536597D01*
X125920826Y-63560258D01*
X125922000Y-63584150D01*
X125922000Y-64071650D01*
X125920826Y-64095542D01*
X125917316Y-64119203D01*
X125911504Y-64142407D01*
X125903446Y-64164929D01*
X125893218Y-64186553D01*
X125880921Y-64207070D01*
X125866671Y-64226283D01*
X125850607Y-64244007D01*
X125832883Y-64260071D01*
X125813670Y-64274321D01*
X125793153Y-64286618D01*
X125771529Y-64296846D01*
X125749007Y-64304904D01*
X125725803Y-64310716D01*
X125702142Y-64314226D01*
X125678250Y-64315400D01*
X124765750Y-64315400D01*
X124741858Y-64314226D01*
X124718197Y-64310716D01*
X124694993Y-64304904D01*
X124672471Y-64296846D01*
X124650847Y-64286618D01*
X124630330Y-64274321D01*
X124611117Y-64260071D01*
X124593393Y-64244007D01*
X124577329Y-64226283D01*
X124563079Y-64207070D01*
X124550782Y-64186553D01*
X124540554Y-64164929D01*
X124532496Y-64142407D01*
X124526684Y-64119203D01*
X124523174Y-64095542D01*
X124522000Y-64071650D01*
X124522000Y-63584150D01*
X124523174Y-63560258D01*
X124526684Y-63536597D01*
X124532496Y-63513393D01*
X124540554Y-63490871D01*
X124550782Y-63469247D01*
X124563079Y-63448730D01*
X124577329Y-63429517D01*
X124593393Y-63411793D01*
X124611117Y-63395729D01*
X124630330Y-63381479D01*
X124650847Y-63369182D01*
X124672471Y-63358954D01*
X124694993Y-63350896D01*
X124718197Y-63345084D01*
X124741858Y-63341574D01*
X124765750Y-63340400D01*
X125678250Y-63340400D01*
X125702142Y-63341574D01*
X125702142Y-63341574D01*
G37*
D14*
X125222000Y-63827900D03*
D13*
G36*
X125702142Y-61466574D02*
X125725803Y-61470084D01*
X125749007Y-61475896D01*
X125771529Y-61483954D01*
X125793153Y-61494182D01*
X125813670Y-61506479D01*
X125832883Y-61520729D01*
X125850607Y-61536793D01*
X125866671Y-61554517D01*
X125880921Y-61573730D01*
X125893218Y-61594247D01*
X125903446Y-61615871D01*
X125911504Y-61638393D01*
X125917316Y-61661597D01*
X125920826Y-61685258D01*
X125922000Y-61709150D01*
X125922000Y-62196650D01*
X125920826Y-62220542D01*
X125917316Y-62244203D01*
X125911504Y-62267407D01*
X125903446Y-62289929D01*
X125893218Y-62311553D01*
X125880921Y-62332070D01*
X125866671Y-62351283D01*
X125850607Y-62369007D01*
X125832883Y-62385071D01*
X125813670Y-62399321D01*
X125793153Y-62411618D01*
X125771529Y-62421846D01*
X125749007Y-62429904D01*
X125725803Y-62435716D01*
X125702142Y-62439226D01*
X125678250Y-62440400D01*
X124765750Y-62440400D01*
X124741858Y-62439226D01*
X124718197Y-62435716D01*
X124694993Y-62429904D01*
X124672471Y-62421846D01*
X124650847Y-62411618D01*
X124630330Y-62399321D01*
X124611117Y-62385071D01*
X124593393Y-62369007D01*
X124577329Y-62351283D01*
X124563079Y-62332070D01*
X124550782Y-62311553D01*
X124540554Y-62289929D01*
X124532496Y-62267407D01*
X124526684Y-62244203D01*
X124523174Y-62220542D01*
X124522000Y-62196650D01*
X124522000Y-61709150D01*
X124523174Y-61685258D01*
X124526684Y-61661597D01*
X124532496Y-61638393D01*
X124540554Y-61615871D01*
X124550782Y-61594247D01*
X124563079Y-61573730D01*
X124577329Y-61554517D01*
X124593393Y-61536793D01*
X124611117Y-61520729D01*
X124630330Y-61506479D01*
X124650847Y-61494182D01*
X124672471Y-61483954D01*
X124694993Y-61475896D01*
X124718197Y-61470084D01*
X124741858Y-61466574D01*
X124765750Y-61465400D01*
X125678250Y-61465400D01*
X125702142Y-61466574D01*
X125702142Y-61466574D01*
G37*
D14*
X125222000Y-61952900D03*
G04 #@! TD*
D13*
G04 #@! TO.C,R9*
G36*
X90167542Y-96082174D02*
X90191203Y-96085684D01*
X90214407Y-96091496D01*
X90236929Y-96099554D01*
X90258553Y-96109782D01*
X90279070Y-96122079D01*
X90298283Y-96136329D01*
X90316007Y-96152393D01*
X90332071Y-96170117D01*
X90346321Y-96189330D01*
X90358618Y-96209847D01*
X90368846Y-96231471D01*
X90376904Y-96253993D01*
X90382716Y-96277197D01*
X90386226Y-96300858D01*
X90387400Y-96324750D01*
X90387400Y-96812250D01*
X90386226Y-96836142D01*
X90382716Y-96859803D01*
X90376904Y-96883007D01*
X90368846Y-96905529D01*
X90358618Y-96927153D01*
X90346321Y-96947670D01*
X90332071Y-96966883D01*
X90316007Y-96984607D01*
X90298283Y-97000671D01*
X90279070Y-97014921D01*
X90258553Y-97027218D01*
X90236929Y-97037446D01*
X90214407Y-97045504D01*
X90191203Y-97051316D01*
X90167542Y-97054826D01*
X90143650Y-97056000D01*
X89231150Y-97056000D01*
X89207258Y-97054826D01*
X89183597Y-97051316D01*
X89160393Y-97045504D01*
X89137871Y-97037446D01*
X89116247Y-97027218D01*
X89095730Y-97014921D01*
X89076517Y-97000671D01*
X89058793Y-96984607D01*
X89042729Y-96966883D01*
X89028479Y-96947670D01*
X89016182Y-96927153D01*
X89005954Y-96905529D01*
X88997896Y-96883007D01*
X88992084Y-96859803D01*
X88988574Y-96836142D01*
X88987400Y-96812250D01*
X88987400Y-96324750D01*
X88988574Y-96300858D01*
X88992084Y-96277197D01*
X88997896Y-96253993D01*
X89005954Y-96231471D01*
X89016182Y-96209847D01*
X89028479Y-96189330D01*
X89042729Y-96170117D01*
X89058793Y-96152393D01*
X89076517Y-96136329D01*
X89095730Y-96122079D01*
X89116247Y-96109782D01*
X89137871Y-96099554D01*
X89160393Y-96091496D01*
X89183597Y-96085684D01*
X89207258Y-96082174D01*
X89231150Y-96081000D01*
X90143650Y-96081000D01*
X90167542Y-96082174D01*
X90167542Y-96082174D01*
G37*
D14*
X89687400Y-96568500D03*
D13*
G36*
X90167542Y-94207174D02*
X90191203Y-94210684D01*
X90214407Y-94216496D01*
X90236929Y-94224554D01*
X90258553Y-94234782D01*
X90279070Y-94247079D01*
X90298283Y-94261329D01*
X90316007Y-94277393D01*
X90332071Y-94295117D01*
X90346321Y-94314330D01*
X90358618Y-94334847D01*
X90368846Y-94356471D01*
X90376904Y-94378993D01*
X90382716Y-94402197D01*
X90386226Y-94425858D01*
X90387400Y-94449750D01*
X90387400Y-94937250D01*
X90386226Y-94961142D01*
X90382716Y-94984803D01*
X90376904Y-95008007D01*
X90368846Y-95030529D01*
X90358618Y-95052153D01*
X90346321Y-95072670D01*
X90332071Y-95091883D01*
X90316007Y-95109607D01*
X90298283Y-95125671D01*
X90279070Y-95139921D01*
X90258553Y-95152218D01*
X90236929Y-95162446D01*
X90214407Y-95170504D01*
X90191203Y-95176316D01*
X90167542Y-95179826D01*
X90143650Y-95181000D01*
X89231150Y-95181000D01*
X89207258Y-95179826D01*
X89183597Y-95176316D01*
X89160393Y-95170504D01*
X89137871Y-95162446D01*
X89116247Y-95152218D01*
X89095730Y-95139921D01*
X89076517Y-95125671D01*
X89058793Y-95109607D01*
X89042729Y-95091883D01*
X89028479Y-95072670D01*
X89016182Y-95052153D01*
X89005954Y-95030529D01*
X88997896Y-95008007D01*
X88992084Y-94984803D01*
X88988574Y-94961142D01*
X88987400Y-94937250D01*
X88987400Y-94449750D01*
X88988574Y-94425858D01*
X88992084Y-94402197D01*
X88997896Y-94378993D01*
X89005954Y-94356471D01*
X89016182Y-94334847D01*
X89028479Y-94314330D01*
X89042729Y-94295117D01*
X89058793Y-94277393D01*
X89076517Y-94261329D01*
X89095730Y-94247079D01*
X89116247Y-94234782D01*
X89137871Y-94224554D01*
X89160393Y-94216496D01*
X89183597Y-94210684D01*
X89207258Y-94207174D01*
X89231150Y-94206000D01*
X90143650Y-94206000D01*
X90167542Y-94207174D01*
X90167542Y-94207174D01*
G37*
D14*
X89687400Y-94693500D03*
G04 #@! TD*
D13*
G04 #@! TO.C,R10*
G36*
X92250342Y-94207174D02*
X92274003Y-94210684D01*
X92297207Y-94216496D01*
X92319729Y-94224554D01*
X92341353Y-94234782D01*
X92361870Y-94247079D01*
X92381083Y-94261329D01*
X92398807Y-94277393D01*
X92414871Y-94295117D01*
X92429121Y-94314330D01*
X92441418Y-94334847D01*
X92451646Y-94356471D01*
X92459704Y-94378993D01*
X92465516Y-94402197D01*
X92469026Y-94425858D01*
X92470200Y-94449750D01*
X92470200Y-94937250D01*
X92469026Y-94961142D01*
X92465516Y-94984803D01*
X92459704Y-95008007D01*
X92451646Y-95030529D01*
X92441418Y-95052153D01*
X92429121Y-95072670D01*
X92414871Y-95091883D01*
X92398807Y-95109607D01*
X92381083Y-95125671D01*
X92361870Y-95139921D01*
X92341353Y-95152218D01*
X92319729Y-95162446D01*
X92297207Y-95170504D01*
X92274003Y-95176316D01*
X92250342Y-95179826D01*
X92226450Y-95181000D01*
X91313950Y-95181000D01*
X91290058Y-95179826D01*
X91266397Y-95176316D01*
X91243193Y-95170504D01*
X91220671Y-95162446D01*
X91199047Y-95152218D01*
X91178530Y-95139921D01*
X91159317Y-95125671D01*
X91141593Y-95109607D01*
X91125529Y-95091883D01*
X91111279Y-95072670D01*
X91098982Y-95052153D01*
X91088754Y-95030529D01*
X91080696Y-95008007D01*
X91074884Y-94984803D01*
X91071374Y-94961142D01*
X91070200Y-94937250D01*
X91070200Y-94449750D01*
X91071374Y-94425858D01*
X91074884Y-94402197D01*
X91080696Y-94378993D01*
X91088754Y-94356471D01*
X91098982Y-94334847D01*
X91111279Y-94314330D01*
X91125529Y-94295117D01*
X91141593Y-94277393D01*
X91159317Y-94261329D01*
X91178530Y-94247079D01*
X91199047Y-94234782D01*
X91220671Y-94224554D01*
X91243193Y-94216496D01*
X91266397Y-94210684D01*
X91290058Y-94207174D01*
X91313950Y-94206000D01*
X92226450Y-94206000D01*
X92250342Y-94207174D01*
X92250342Y-94207174D01*
G37*
D14*
X91770200Y-94693500D03*
D13*
G36*
X92250342Y-96082174D02*
X92274003Y-96085684D01*
X92297207Y-96091496D01*
X92319729Y-96099554D01*
X92341353Y-96109782D01*
X92361870Y-96122079D01*
X92381083Y-96136329D01*
X92398807Y-96152393D01*
X92414871Y-96170117D01*
X92429121Y-96189330D01*
X92441418Y-96209847D01*
X92451646Y-96231471D01*
X92459704Y-96253993D01*
X92465516Y-96277197D01*
X92469026Y-96300858D01*
X92470200Y-96324750D01*
X92470200Y-96812250D01*
X92469026Y-96836142D01*
X92465516Y-96859803D01*
X92459704Y-96883007D01*
X92451646Y-96905529D01*
X92441418Y-96927153D01*
X92429121Y-96947670D01*
X92414871Y-96966883D01*
X92398807Y-96984607D01*
X92381083Y-97000671D01*
X92361870Y-97014921D01*
X92341353Y-97027218D01*
X92319729Y-97037446D01*
X92297207Y-97045504D01*
X92274003Y-97051316D01*
X92250342Y-97054826D01*
X92226450Y-97056000D01*
X91313950Y-97056000D01*
X91290058Y-97054826D01*
X91266397Y-97051316D01*
X91243193Y-97045504D01*
X91220671Y-97037446D01*
X91199047Y-97027218D01*
X91178530Y-97014921D01*
X91159317Y-97000671D01*
X91141593Y-96984607D01*
X91125529Y-96966883D01*
X91111279Y-96947670D01*
X91098982Y-96927153D01*
X91088754Y-96905529D01*
X91080696Y-96883007D01*
X91074884Y-96859803D01*
X91071374Y-96836142D01*
X91070200Y-96812250D01*
X91070200Y-96324750D01*
X91071374Y-96300858D01*
X91074884Y-96277197D01*
X91080696Y-96253993D01*
X91088754Y-96231471D01*
X91098982Y-96209847D01*
X91111279Y-96189330D01*
X91125529Y-96170117D01*
X91141593Y-96152393D01*
X91159317Y-96136329D01*
X91178530Y-96122079D01*
X91199047Y-96109782D01*
X91220671Y-96099554D01*
X91243193Y-96091496D01*
X91266397Y-96085684D01*
X91290058Y-96082174D01*
X91313950Y-96081000D01*
X92226450Y-96081000D01*
X92250342Y-96082174D01*
X92250342Y-96082174D01*
G37*
D14*
X91770200Y-96568500D03*
G04 #@! TD*
D13*
G04 #@! TO.C,R14*
G36*
X129428942Y-64071174D02*
X129452603Y-64074684D01*
X129475807Y-64080496D01*
X129498329Y-64088554D01*
X129519953Y-64098782D01*
X129540470Y-64111079D01*
X129559683Y-64125329D01*
X129577407Y-64141393D01*
X129593471Y-64159117D01*
X129607721Y-64178330D01*
X129620018Y-64198847D01*
X129630246Y-64220471D01*
X129638304Y-64242993D01*
X129644116Y-64266197D01*
X129647626Y-64289858D01*
X129648800Y-64313750D01*
X129648800Y-65226250D01*
X129647626Y-65250142D01*
X129644116Y-65273803D01*
X129638304Y-65297007D01*
X129630246Y-65319529D01*
X129620018Y-65341153D01*
X129607721Y-65361670D01*
X129593471Y-65380883D01*
X129577407Y-65398607D01*
X129559683Y-65414671D01*
X129540470Y-65428921D01*
X129519953Y-65441218D01*
X129498329Y-65451446D01*
X129475807Y-65459504D01*
X129452603Y-65465316D01*
X129428942Y-65468826D01*
X129405050Y-65470000D01*
X128917550Y-65470000D01*
X128893658Y-65468826D01*
X128869997Y-65465316D01*
X128846793Y-65459504D01*
X128824271Y-65451446D01*
X128802647Y-65441218D01*
X128782130Y-65428921D01*
X128762917Y-65414671D01*
X128745193Y-65398607D01*
X128729129Y-65380883D01*
X128714879Y-65361670D01*
X128702582Y-65341153D01*
X128692354Y-65319529D01*
X128684296Y-65297007D01*
X128678484Y-65273803D01*
X128674974Y-65250142D01*
X128673800Y-65226250D01*
X128673800Y-64313750D01*
X128674974Y-64289858D01*
X128678484Y-64266197D01*
X128684296Y-64242993D01*
X128692354Y-64220471D01*
X128702582Y-64198847D01*
X128714879Y-64178330D01*
X128729129Y-64159117D01*
X128745193Y-64141393D01*
X128762917Y-64125329D01*
X128782130Y-64111079D01*
X128802647Y-64098782D01*
X128824271Y-64088554D01*
X128846793Y-64080496D01*
X128869997Y-64074684D01*
X128893658Y-64071174D01*
X128917550Y-64070000D01*
X129405050Y-64070000D01*
X129428942Y-64071174D01*
X129428942Y-64071174D01*
G37*
D14*
X129161300Y-64770000D03*
D13*
G36*
X131303942Y-64071174D02*
X131327603Y-64074684D01*
X131350807Y-64080496D01*
X131373329Y-64088554D01*
X131394953Y-64098782D01*
X131415470Y-64111079D01*
X131434683Y-64125329D01*
X131452407Y-64141393D01*
X131468471Y-64159117D01*
X131482721Y-64178330D01*
X131495018Y-64198847D01*
X131505246Y-64220471D01*
X131513304Y-64242993D01*
X131519116Y-64266197D01*
X131522626Y-64289858D01*
X131523800Y-64313750D01*
X131523800Y-65226250D01*
X131522626Y-65250142D01*
X131519116Y-65273803D01*
X131513304Y-65297007D01*
X131505246Y-65319529D01*
X131495018Y-65341153D01*
X131482721Y-65361670D01*
X131468471Y-65380883D01*
X131452407Y-65398607D01*
X131434683Y-65414671D01*
X131415470Y-65428921D01*
X131394953Y-65441218D01*
X131373329Y-65451446D01*
X131350807Y-65459504D01*
X131327603Y-65465316D01*
X131303942Y-65468826D01*
X131280050Y-65470000D01*
X130792550Y-65470000D01*
X130768658Y-65468826D01*
X130744997Y-65465316D01*
X130721793Y-65459504D01*
X130699271Y-65451446D01*
X130677647Y-65441218D01*
X130657130Y-65428921D01*
X130637917Y-65414671D01*
X130620193Y-65398607D01*
X130604129Y-65380883D01*
X130589879Y-65361670D01*
X130577582Y-65341153D01*
X130567354Y-65319529D01*
X130559296Y-65297007D01*
X130553484Y-65273803D01*
X130549974Y-65250142D01*
X130548800Y-65226250D01*
X130548800Y-64313750D01*
X130549974Y-64289858D01*
X130553484Y-64266197D01*
X130559296Y-64242993D01*
X130567354Y-64220471D01*
X130577582Y-64198847D01*
X130589879Y-64178330D01*
X130604129Y-64159117D01*
X130620193Y-64141393D01*
X130637917Y-64125329D01*
X130657130Y-64111079D01*
X130677647Y-64098782D01*
X130699271Y-64088554D01*
X130721793Y-64080496D01*
X130744997Y-64074684D01*
X130768658Y-64071174D01*
X130792550Y-64070000D01*
X131280050Y-64070000D01*
X131303942Y-64071174D01*
X131303942Y-64071174D01*
G37*
D14*
X131036300Y-64770000D03*
G04 #@! TD*
D13*
G04 #@! TO.C,R15*
G36*
X124395142Y-66407974D02*
X124418803Y-66411484D01*
X124442007Y-66417296D01*
X124464529Y-66425354D01*
X124486153Y-66435582D01*
X124506670Y-66447879D01*
X124525883Y-66462129D01*
X124543607Y-66478193D01*
X124559671Y-66495917D01*
X124573921Y-66515130D01*
X124586218Y-66535647D01*
X124596446Y-66557271D01*
X124604504Y-66579793D01*
X124610316Y-66602997D01*
X124613826Y-66626658D01*
X124615000Y-66650550D01*
X124615000Y-67563050D01*
X124613826Y-67586942D01*
X124610316Y-67610603D01*
X124604504Y-67633807D01*
X124596446Y-67656329D01*
X124586218Y-67677953D01*
X124573921Y-67698470D01*
X124559671Y-67717683D01*
X124543607Y-67735407D01*
X124525883Y-67751471D01*
X124506670Y-67765721D01*
X124486153Y-67778018D01*
X124464529Y-67788246D01*
X124442007Y-67796304D01*
X124418803Y-67802116D01*
X124395142Y-67805626D01*
X124371250Y-67806800D01*
X123883750Y-67806800D01*
X123859858Y-67805626D01*
X123836197Y-67802116D01*
X123812993Y-67796304D01*
X123790471Y-67788246D01*
X123768847Y-67778018D01*
X123748330Y-67765721D01*
X123729117Y-67751471D01*
X123711393Y-67735407D01*
X123695329Y-67717683D01*
X123681079Y-67698470D01*
X123668782Y-67677953D01*
X123658554Y-67656329D01*
X123650496Y-67633807D01*
X123644684Y-67610603D01*
X123641174Y-67586942D01*
X123640000Y-67563050D01*
X123640000Y-66650550D01*
X123641174Y-66626658D01*
X123644684Y-66602997D01*
X123650496Y-66579793D01*
X123658554Y-66557271D01*
X123668782Y-66535647D01*
X123681079Y-66515130D01*
X123695329Y-66495917D01*
X123711393Y-66478193D01*
X123729117Y-66462129D01*
X123748330Y-66447879D01*
X123768847Y-66435582D01*
X123790471Y-66425354D01*
X123812993Y-66417296D01*
X123836197Y-66411484D01*
X123859858Y-66407974D01*
X123883750Y-66406800D01*
X124371250Y-66406800D01*
X124395142Y-66407974D01*
X124395142Y-66407974D01*
G37*
D14*
X124127500Y-67106800D03*
D13*
G36*
X122520142Y-66407974D02*
X122543803Y-66411484D01*
X122567007Y-66417296D01*
X122589529Y-66425354D01*
X122611153Y-66435582D01*
X122631670Y-66447879D01*
X122650883Y-66462129D01*
X122668607Y-66478193D01*
X122684671Y-66495917D01*
X122698921Y-66515130D01*
X122711218Y-66535647D01*
X122721446Y-66557271D01*
X122729504Y-66579793D01*
X122735316Y-66602997D01*
X122738826Y-66626658D01*
X122740000Y-66650550D01*
X122740000Y-67563050D01*
X122738826Y-67586942D01*
X122735316Y-67610603D01*
X122729504Y-67633807D01*
X122721446Y-67656329D01*
X122711218Y-67677953D01*
X122698921Y-67698470D01*
X122684671Y-67717683D01*
X122668607Y-67735407D01*
X122650883Y-67751471D01*
X122631670Y-67765721D01*
X122611153Y-67778018D01*
X122589529Y-67788246D01*
X122567007Y-67796304D01*
X122543803Y-67802116D01*
X122520142Y-67805626D01*
X122496250Y-67806800D01*
X122008750Y-67806800D01*
X121984858Y-67805626D01*
X121961197Y-67802116D01*
X121937993Y-67796304D01*
X121915471Y-67788246D01*
X121893847Y-67778018D01*
X121873330Y-67765721D01*
X121854117Y-67751471D01*
X121836393Y-67735407D01*
X121820329Y-67717683D01*
X121806079Y-67698470D01*
X121793782Y-67677953D01*
X121783554Y-67656329D01*
X121775496Y-67633807D01*
X121769684Y-67610603D01*
X121766174Y-67586942D01*
X121765000Y-67563050D01*
X121765000Y-66650550D01*
X121766174Y-66626658D01*
X121769684Y-66602997D01*
X121775496Y-66579793D01*
X121783554Y-66557271D01*
X121793782Y-66535647D01*
X121806079Y-66515130D01*
X121820329Y-66495917D01*
X121836393Y-66478193D01*
X121854117Y-66462129D01*
X121873330Y-66447879D01*
X121893847Y-66435582D01*
X121915471Y-66425354D01*
X121937993Y-66417296D01*
X121961197Y-66411484D01*
X121984858Y-66407974D01*
X122008750Y-66406800D01*
X122496250Y-66406800D01*
X122520142Y-66407974D01*
X122520142Y-66407974D01*
G37*
D14*
X122252500Y-67106800D03*
G04 #@! TD*
D13*
G04 #@! TO.C,R16*
G36*
X97958342Y-100316974D02*
X97982003Y-100320484D01*
X98005207Y-100326296D01*
X98027729Y-100334354D01*
X98049353Y-100344582D01*
X98069870Y-100356879D01*
X98089083Y-100371129D01*
X98106807Y-100387193D01*
X98122871Y-100404917D01*
X98137121Y-100424130D01*
X98149418Y-100444647D01*
X98159646Y-100466271D01*
X98167704Y-100488793D01*
X98173516Y-100511997D01*
X98177026Y-100535658D01*
X98178200Y-100559550D01*
X98178200Y-101472050D01*
X98177026Y-101495942D01*
X98173516Y-101519603D01*
X98167704Y-101542807D01*
X98159646Y-101565329D01*
X98149418Y-101586953D01*
X98137121Y-101607470D01*
X98122871Y-101626683D01*
X98106807Y-101644407D01*
X98089083Y-101660471D01*
X98069870Y-101674721D01*
X98049353Y-101687018D01*
X98027729Y-101697246D01*
X98005207Y-101705304D01*
X97982003Y-101711116D01*
X97958342Y-101714626D01*
X97934450Y-101715800D01*
X97446950Y-101715800D01*
X97423058Y-101714626D01*
X97399397Y-101711116D01*
X97376193Y-101705304D01*
X97353671Y-101697246D01*
X97332047Y-101687018D01*
X97311530Y-101674721D01*
X97292317Y-101660471D01*
X97274593Y-101644407D01*
X97258529Y-101626683D01*
X97244279Y-101607470D01*
X97231982Y-101586953D01*
X97221754Y-101565329D01*
X97213696Y-101542807D01*
X97207884Y-101519603D01*
X97204374Y-101495942D01*
X97203200Y-101472050D01*
X97203200Y-100559550D01*
X97204374Y-100535658D01*
X97207884Y-100511997D01*
X97213696Y-100488793D01*
X97221754Y-100466271D01*
X97231982Y-100444647D01*
X97244279Y-100424130D01*
X97258529Y-100404917D01*
X97274593Y-100387193D01*
X97292317Y-100371129D01*
X97311530Y-100356879D01*
X97332047Y-100344582D01*
X97353671Y-100334354D01*
X97376193Y-100326296D01*
X97399397Y-100320484D01*
X97423058Y-100316974D01*
X97446950Y-100315800D01*
X97934450Y-100315800D01*
X97958342Y-100316974D01*
X97958342Y-100316974D01*
G37*
D14*
X97690700Y-101015800D03*
D13*
G36*
X99833342Y-100316974D02*
X99857003Y-100320484D01*
X99880207Y-100326296D01*
X99902729Y-100334354D01*
X99924353Y-100344582D01*
X99944870Y-100356879D01*
X99964083Y-100371129D01*
X99981807Y-100387193D01*
X99997871Y-100404917D01*
X100012121Y-100424130D01*
X100024418Y-100444647D01*
X100034646Y-100466271D01*
X100042704Y-100488793D01*
X100048516Y-100511997D01*
X100052026Y-100535658D01*
X100053200Y-100559550D01*
X100053200Y-101472050D01*
X100052026Y-101495942D01*
X100048516Y-101519603D01*
X100042704Y-101542807D01*
X100034646Y-101565329D01*
X100024418Y-101586953D01*
X100012121Y-101607470D01*
X99997871Y-101626683D01*
X99981807Y-101644407D01*
X99964083Y-101660471D01*
X99944870Y-101674721D01*
X99924353Y-101687018D01*
X99902729Y-101697246D01*
X99880207Y-101705304D01*
X99857003Y-101711116D01*
X99833342Y-101714626D01*
X99809450Y-101715800D01*
X99321950Y-101715800D01*
X99298058Y-101714626D01*
X99274397Y-101711116D01*
X99251193Y-101705304D01*
X99228671Y-101697246D01*
X99207047Y-101687018D01*
X99186530Y-101674721D01*
X99167317Y-101660471D01*
X99149593Y-101644407D01*
X99133529Y-101626683D01*
X99119279Y-101607470D01*
X99106982Y-101586953D01*
X99096754Y-101565329D01*
X99088696Y-101542807D01*
X99082884Y-101519603D01*
X99079374Y-101495942D01*
X99078200Y-101472050D01*
X99078200Y-100559550D01*
X99079374Y-100535658D01*
X99082884Y-100511997D01*
X99088696Y-100488793D01*
X99096754Y-100466271D01*
X99106982Y-100444647D01*
X99119279Y-100424130D01*
X99133529Y-100404917D01*
X99149593Y-100387193D01*
X99167317Y-100371129D01*
X99186530Y-100356879D01*
X99207047Y-100344582D01*
X99228671Y-100334354D01*
X99251193Y-100326296D01*
X99274397Y-100320484D01*
X99298058Y-100316974D01*
X99321950Y-100315800D01*
X99809450Y-100315800D01*
X99833342Y-100316974D01*
X99833342Y-100316974D01*
G37*
D14*
X99565700Y-101015800D03*
G04 #@! TD*
D13*
G04 #@! TO.C,R17*
G36*
X116164442Y-91667174D02*
X116188103Y-91670684D01*
X116211307Y-91676496D01*
X116233829Y-91684554D01*
X116255453Y-91694782D01*
X116275970Y-91707079D01*
X116295183Y-91721329D01*
X116312907Y-91737393D01*
X116328971Y-91755117D01*
X116343221Y-91774330D01*
X116355518Y-91794847D01*
X116365746Y-91816471D01*
X116373804Y-91838993D01*
X116379616Y-91862197D01*
X116383126Y-91885858D01*
X116384300Y-91909750D01*
X116384300Y-92397250D01*
X116383126Y-92421142D01*
X116379616Y-92444803D01*
X116373804Y-92468007D01*
X116365746Y-92490529D01*
X116355518Y-92512153D01*
X116343221Y-92532670D01*
X116328971Y-92551883D01*
X116312907Y-92569607D01*
X116295183Y-92585671D01*
X116275970Y-92599921D01*
X116255453Y-92612218D01*
X116233829Y-92622446D01*
X116211307Y-92630504D01*
X116188103Y-92636316D01*
X116164442Y-92639826D01*
X116140550Y-92641000D01*
X115228050Y-92641000D01*
X115204158Y-92639826D01*
X115180497Y-92636316D01*
X115157293Y-92630504D01*
X115134771Y-92622446D01*
X115113147Y-92612218D01*
X115092630Y-92599921D01*
X115073417Y-92585671D01*
X115055693Y-92569607D01*
X115039629Y-92551883D01*
X115025379Y-92532670D01*
X115013082Y-92512153D01*
X115002854Y-92490529D01*
X114994796Y-92468007D01*
X114988984Y-92444803D01*
X114985474Y-92421142D01*
X114984300Y-92397250D01*
X114984300Y-91909750D01*
X114985474Y-91885858D01*
X114988984Y-91862197D01*
X114994796Y-91838993D01*
X115002854Y-91816471D01*
X115013082Y-91794847D01*
X115025379Y-91774330D01*
X115039629Y-91755117D01*
X115055693Y-91737393D01*
X115073417Y-91721329D01*
X115092630Y-91707079D01*
X115113147Y-91694782D01*
X115134771Y-91684554D01*
X115157293Y-91676496D01*
X115180497Y-91670684D01*
X115204158Y-91667174D01*
X115228050Y-91666000D01*
X116140550Y-91666000D01*
X116164442Y-91667174D01*
X116164442Y-91667174D01*
G37*
D14*
X115684300Y-92153500D03*
D13*
G36*
X116164442Y-93542174D02*
X116188103Y-93545684D01*
X116211307Y-93551496D01*
X116233829Y-93559554D01*
X116255453Y-93569782D01*
X116275970Y-93582079D01*
X116295183Y-93596329D01*
X116312907Y-93612393D01*
X116328971Y-93630117D01*
X116343221Y-93649330D01*
X116355518Y-93669847D01*
X116365746Y-93691471D01*
X116373804Y-93713993D01*
X116379616Y-93737197D01*
X116383126Y-93760858D01*
X116384300Y-93784750D01*
X116384300Y-94272250D01*
X116383126Y-94296142D01*
X116379616Y-94319803D01*
X116373804Y-94343007D01*
X116365746Y-94365529D01*
X116355518Y-94387153D01*
X116343221Y-94407670D01*
X116328971Y-94426883D01*
X116312907Y-94444607D01*
X116295183Y-94460671D01*
X116275970Y-94474921D01*
X116255453Y-94487218D01*
X116233829Y-94497446D01*
X116211307Y-94505504D01*
X116188103Y-94511316D01*
X116164442Y-94514826D01*
X116140550Y-94516000D01*
X115228050Y-94516000D01*
X115204158Y-94514826D01*
X115180497Y-94511316D01*
X115157293Y-94505504D01*
X115134771Y-94497446D01*
X115113147Y-94487218D01*
X115092630Y-94474921D01*
X115073417Y-94460671D01*
X115055693Y-94444607D01*
X115039629Y-94426883D01*
X115025379Y-94407670D01*
X115013082Y-94387153D01*
X115002854Y-94365529D01*
X114994796Y-94343007D01*
X114988984Y-94319803D01*
X114985474Y-94296142D01*
X114984300Y-94272250D01*
X114984300Y-93784750D01*
X114985474Y-93760858D01*
X114988984Y-93737197D01*
X114994796Y-93713993D01*
X115002854Y-93691471D01*
X115013082Y-93669847D01*
X115025379Y-93649330D01*
X115039629Y-93630117D01*
X115055693Y-93612393D01*
X115073417Y-93596329D01*
X115092630Y-93582079D01*
X115113147Y-93569782D01*
X115134771Y-93559554D01*
X115157293Y-93551496D01*
X115180497Y-93545684D01*
X115204158Y-93542174D01*
X115228050Y-93541000D01*
X116140550Y-93541000D01*
X116164442Y-93542174D01*
X116164442Y-93542174D01*
G37*
D14*
X115684300Y-94028500D03*
G04 #@! TD*
D13*
G04 #@! TO.C,R25*
G36*
X122228042Y-83819674D02*
X122251703Y-83823184D01*
X122274907Y-83828996D01*
X122297429Y-83837054D01*
X122319053Y-83847282D01*
X122339570Y-83859579D01*
X122358783Y-83873829D01*
X122376507Y-83889893D01*
X122392571Y-83907617D01*
X122406821Y-83926830D01*
X122419118Y-83947347D01*
X122429346Y-83968971D01*
X122437404Y-83991493D01*
X122443216Y-84014697D01*
X122446726Y-84038358D01*
X122447900Y-84062250D01*
X122447900Y-84974750D01*
X122446726Y-84998642D01*
X122443216Y-85022303D01*
X122437404Y-85045507D01*
X122429346Y-85068029D01*
X122419118Y-85089653D01*
X122406821Y-85110170D01*
X122392571Y-85129383D01*
X122376507Y-85147107D01*
X122358783Y-85163171D01*
X122339570Y-85177421D01*
X122319053Y-85189718D01*
X122297429Y-85199946D01*
X122274907Y-85208004D01*
X122251703Y-85213816D01*
X122228042Y-85217326D01*
X122204150Y-85218500D01*
X121716650Y-85218500D01*
X121692758Y-85217326D01*
X121669097Y-85213816D01*
X121645893Y-85208004D01*
X121623371Y-85199946D01*
X121601747Y-85189718D01*
X121581230Y-85177421D01*
X121562017Y-85163171D01*
X121544293Y-85147107D01*
X121528229Y-85129383D01*
X121513979Y-85110170D01*
X121501682Y-85089653D01*
X121491454Y-85068029D01*
X121483396Y-85045507D01*
X121477584Y-85022303D01*
X121474074Y-84998642D01*
X121472900Y-84974750D01*
X121472900Y-84062250D01*
X121474074Y-84038358D01*
X121477584Y-84014697D01*
X121483396Y-83991493D01*
X121491454Y-83968971D01*
X121501682Y-83947347D01*
X121513979Y-83926830D01*
X121528229Y-83907617D01*
X121544293Y-83889893D01*
X121562017Y-83873829D01*
X121581230Y-83859579D01*
X121601747Y-83847282D01*
X121623371Y-83837054D01*
X121645893Y-83828996D01*
X121669097Y-83823184D01*
X121692758Y-83819674D01*
X121716650Y-83818500D01*
X122204150Y-83818500D01*
X122228042Y-83819674D01*
X122228042Y-83819674D01*
G37*
D14*
X121960400Y-84518500D03*
D13*
G36*
X124103042Y-83819674D02*
X124126703Y-83823184D01*
X124149907Y-83828996D01*
X124172429Y-83837054D01*
X124194053Y-83847282D01*
X124214570Y-83859579D01*
X124233783Y-83873829D01*
X124251507Y-83889893D01*
X124267571Y-83907617D01*
X124281821Y-83926830D01*
X124294118Y-83947347D01*
X124304346Y-83968971D01*
X124312404Y-83991493D01*
X124318216Y-84014697D01*
X124321726Y-84038358D01*
X124322900Y-84062250D01*
X124322900Y-84974750D01*
X124321726Y-84998642D01*
X124318216Y-85022303D01*
X124312404Y-85045507D01*
X124304346Y-85068029D01*
X124294118Y-85089653D01*
X124281821Y-85110170D01*
X124267571Y-85129383D01*
X124251507Y-85147107D01*
X124233783Y-85163171D01*
X124214570Y-85177421D01*
X124194053Y-85189718D01*
X124172429Y-85199946D01*
X124149907Y-85208004D01*
X124126703Y-85213816D01*
X124103042Y-85217326D01*
X124079150Y-85218500D01*
X123591650Y-85218500D01*
X123567758Y-85217326D01*
X123544097Y-85213816D01*
X123520893Y-85208004D01*
X123498371Y-85199946D01*
X123476747Y-85189718D01*
X123456230Y-85177421D01*
X123437017Y-85163171D01*
X123419293Y-85147107D01*
X123403229Y-85129383D01*
X123388979Y-85110170D01*
X123376682Y-85089653D01*
X123366454Y-85068029D01*
X123358396Y-85045507D01*
X123352584Y-85022303D01*
X123349074Y-84998642D01*
X123347900Y-84974750D01*
X123347900Y-84062250D01*
X123349074Y-84038358D01*
X123352584Y-84014697D01*
X123358396Y-83991493D01*
X123366454Y-83968971D01*
X123376682Y-83947347D01*
X123388979Y-83926830D01*
X123403229Y-83907617D01*
X123419293Y-83889893D01*
X123437017Y-83873829D01*
X123456230Y-83859579D01*
X123476747Y-83847282D01*
X123498371Y-83837054D01*
X123520893Y-83828996D01*
X123544097Y-83823184D01*
X123567758Y-83819674D01*
X123591650Y-83818500D01*
X124079150Y-83818500D01*
X124103042Y-83819674D01*
X124103042Y-83819674D01*
G37*
D14*
X123835400Y-84518500D03*
G04 #@! TD*
D13*
G04 #@! TO.C,R26*
G36*
X124103042Y-86169174D02*
X124126703Y-86172684D01*
X124149907Y-86178496D01*
X124172429Y-86186554D01*
X124194053Y-86196782D01*
X124214570Y-86209079D01*
X124233783Y-86223329D01*
X124251507Y-86239393D01*
X124267571Y-86257117D01*
X124281821Y-86276330D01*
X124294118Y-86296847D01*
X124304346Y-86318471D01*
X124312404Y-86340993D01*
X124318216Y-86364197D01*
X124321726Y-86387858D01*
X124322900Y-86411750D01*
X124322900Y-87324250D01*
X124321726Y-87348142D01*
X124318216Y-87371803D01*
X124312404Y-87395007D01*
X124304346Y-87417529D01*
X124294118Y-87439153D01*
X124281821Y-87459670D01*
X124267571Y-87478883D01*
X124251507Y-87496607D01*
X124233783Y-87512671D01*
X124214570Y-87526921D01*
X124194053Y-87539218D01*
X124172429Y-87549446D01*
X124149907Y-87557504D01*
X124126703Y-87563316D01*
X124103042Y-87566826D01*
X124079150Y-87568000D01*
X123591650Y-87568000D01*
X123567758Y-87566826D01*
X123544097Y-87563316D01*
X123520893Y-87557504D01*
X123498371Y-87549446D01*
X123476747Y-87539218D01*
X123456230Y-87526921D01*
X123437017Y-87512671D01*
X123419293Y-87496607D01*
X123403229Y-87478883D01*
X123388979Y-87459670D01*
X123376682Y-87439153D01*
X123366454Y-87417529D01*
X123358396Y-87395007D01*
X123352584Y-87371803D01*
X123349074Y-87348142D01*
X123347900Y-87324250D01*
X123347900Y-86411750D01*
X123349074Y-86387858D01*
X123352584Y-86364197D01*
X123358396Y-86340993D01*
X123366454Y-86318471D01*
X123376682Y-86296847D01*
X123388979Y-86276330D01*
X123403229Y-86257117D01*
X123419293Y-86239393D01*
X123437017Y-86223329D01*
X123456230Y-86209079D01*
X123476747Y-86196782D01*
X123498371Y-86186554D01*
X123520893Y-86178496D01*
X123544097Y-86172684D01*
X123567758Y-86169174D01*
X123591650Y-86168000D01*
X124079150Y-86168000D01*
X124103042Y-86169174D01*
X124103042Y-86169174D01*
G37*
D14*
X123835400Y-86868000D03*
D13*
G36*
X122228042Y-86169174D02*
X122251703Y-86172684D01*
X122274907Y-86178496D01*
X122297429Y-86186554D01*
X122319053Y-86196782D01*
X122339570Y-86209079D01*
X122358783Y-86223329D01*
X122376507Y-86239393D01*
X122392571Y-86257117D01*
X122406821Y-86276330D01*
X122419118Y-86296847D01*
X122429346Y-86318471D01*
X122437404Y-86340993D01*
X122443216Y-86364197D01*
X122446726Y-86387858D01*
X122447900Y-86411750D01*
X122447900Y-87324250D01*
X122446726Y-87348142D01*
X122443216Y-87371803D01*
X122437404Y-87395007D01*
X122429346Y-87417529D01*
X122419118Y-87439153D01*
X122406821Y-87459670D01*
X122392571Y-87478883D01*
X122376507Y-87496607D01*
X122358783Y-87512671D01*
X122339570Y-87526921D01*
X122319053Y-87539218D01*
X122297429Y-87549446D01*
X122274907Y-87557504D01*
X122251703Y-87563316D01*
X122228042Y-87566826D01*
X122204150Y-87568000D01*
X121716650Y-87568000D01*
X121692758Y-87566826D01*
X121669097Y-87563316D01*
X121645893Y-87557504D01*
X121623371Y-87549446D01*
X121601747Y-87539218D01*
X121581230Y-87526921D01*
X121562017Y-87512671D01*
X121544293Y-87496607D01*
X121528229Y-87478883D01*
X121513979Y-87459670D01*
X121501682Y-87439153D01*
X121491454Y-87417529D01*
X121483396Y-87395007D01*
X121477584Y-87371803D01*
X121474074Y-87348142D01*
X121472900Y-87324250D01*
X121472900Y-86411750D01*
X121474074Y-86387858D01*
X121477584Y-86364197D01*
X121483396Y-86340993D01*
X121491454Y-86318471D01*
X121501682Y-86296847D01*
X121513979Y-86276330D01*
X121528229Y-86257117D01*
X121544293Y-86239393D01*
X121562017Y-86223329D01*
X121581230Y-86209079D01*
X121601747Y-86196782D01*
X121623371Y-86186554D01*
X121645893Y-86178496D01*
X121669097Y-86172684D01*
X121692758Y-86169174D01*
X121716650Y-86168000D01*
X122204150Y-86168000D01*
X122228042Y-86169174D01*
X122228042Y-86169174D01*
G37*
D14*
X121960400Y-86868000D03*
G04 #@! TD*
D13*
G04 #@! TO.C,R27*
G36*
X122507442Y-97980174D02*
X122531103Y-97983684D01*
X122554307Y-97989496D01*
X122576829Y-97997554D01*
X122598453Y-98007782D01*
X122618970Y-98020079D01*
X122638183Y-98034329D01*
X122655907Y-98050393D01*
X122671971Y-98068117D01*
X122686221Y-98087330D01*
X122698518Y-98107847D01*
X122708746Y-98129471D01*
X122716804Y-98151993D01*
X122722616Y-98175197D01*
X122726126Y-98198858D01*
X122727300Y-98222750D01*
X122727300Y-99135250D01*
X122726126Y-99159142D01*
X122722616Y-99182803D01*
X122716804Y-99206007D01*
X122708746Y-99228529D01*
X122698518Y-99250153D01*
X122686221Y-99270670D01*
X122671971Y-99289883D01*
X122655907Y-99307607D01*
X122638183Y-99323671D01*
X122618970Y-99337921D01*
X122598453Y-99350218D01*
X122576829Y-99360446D01*
X122554307Y-99368504D01*
X122531103Y-99374316D01*
X122507442Y-99377826D01*
X122483550Y-99379000D01*
X121996050Y-99379000D01*
X121972158Y-99377826D01*
X121948497Y-99374316D01*
X121925293Y-99368504D01*
X121902771Y-99360446D01*
X121881147Y-99350218D01*
X121860630Y-99337921D01*
X121841417Y-99323671D01*
X121823693Y-99307607D01*
X121807629Y-99289883D01*
X121793379Y-99270670D01*
X121781082Y-99250153D01*
X121770854Y-99228529D01*
X121762796Y-99206007D01*
X121756984Y-99182803D01*
X121753474Y-99159142D01*
X121752300Y-99135250D01*
X121752300Y-98222750D01*
X121753474Y-98198858D01*
X121756984Y-98175197D01*
X121762796Y-98151993D01*
X121770854Y-98129471D01*
X121781082Y-98107847D01*
X121793379Y-98087330D01*
X121807629Y-98068117D01*
X121823693Y-98050393D01*
X121841417Y-98034329D01*
X121860630Y-98020079D01*
X121881147Y-98007782D01*
X121902771Y-97997554D01*
X121925293Y-97989496D01*
X121948497Y-97983684D01*
X121972158Y-97980174D01*
X121996050Y-97979000D01*
X122483550Y-97979000D01*
X122507442Y-97980174D01*
X122507442Y-97980174D01*
G37*
D14*
X122239800Y-98679000D03*
D13*
G36*
X124382442Y-97980174D02*
X124406103Y-97983684D01*
X124429307Y-97989496D01*
X124451829Y-97997554D01*
X124473453Y-98007782D01*
X124493970Y-98020079D01*
X124513183Y-98034329D01*
X124530907Y-98050393D01*
X124546971Y-98068117D01*
X124561221Y-98087330D01*
X124573518Y-98107847D01*
X124583746Y-98129471D01*
X124591804Y-98151993D01*
X124597616Y-98175197D01*
X124601126Y-98198858D01*
X124602300Y-98222750D01*
X124602300Y-99135250D01*
X124601126Y-99159142D01*
X124597616Y-99182803D01*
X124591804Y-99206007D01*
X124583746Y-99228529D01*
X124573518Y-99250153D01*
X124561221Y-99270670D01*
X124546971Y-99289883D01*
X124530907Y-99307607D01*
X124513183Y-99323671D01*
X124493970Y-99337921D01*
X124473453Y-99350218D01*
X124451829Y-99360446D01*
X124429307Y-99368504D01*
X124406103Y-99374316D01*
X124382442Y-99377826D01*
X124358550Y-99379000D01*
X123871050Y-99379000D01*
X123847158Y-99377826D01*
X123823497Y-99374316D01*
X123800293Y-99368504D01*
X123777771Y-99360446D01*
X123756147Y-99350218D01*
X123735630Y-99337921D01*
X123716417Y-99323671D01*
X123698693Y-99307607D01*
X123682629Y-99289883D01*
X123668379Y-99270670D01*
X123656082Y-99250153D01*
X123645854Y-99228529D01*
X123637796Y-99206007D01*
X123631984Y-99182803D01*
X123628474Y-99159142D01*
X123627300Y-99135250D01*
X123627300Y-98222750D01*
X123628474Y-98198858D01*
X123631984Y-98175197D01*
X123637796Y-98151993D01*
X123645854Y-98129471D01*
X123656082Y-98107847D01*
X123668379Y-98087330D01*
X123682629Y-98068117D01*
X123698693Y-98050393D01*
X123716417Y-98034329D01*
X123735630Y-98020079D01*
X123756147Y-98007782D01*
X123777771Y-97997554D01*
X123800293Y-97989496D01*
X123823497Y-97983684D01*
X123847158Y-97980174D01*
X123871050Y-97979000D01*
X124358550Y-97979000D01*
X124382442Y-97980174D01*
X124382442Y-97980174D01*
G37*
D14*
X124114800Y-98679000D03*
G04 #@! TD*
D13*
G04 #@! TO.C,R28*
G36*
X122507442Y-100139174D02*
X122531103Y-100142684D01*
X122554307Y-100148496D01*
X122576829Y-100156554D01*
X122598453Y-100166782D01*
X122618970Y-100179079D01*
X122638183Y-100193329D01*
X122655907Y-100209393D01*
X122671971Y-100227117D01*
X122686221Y-100246330D01*
X122698518Y-100266847D01*
X122708746Y-100288471D01*
X122716804Y-100310993D01*
X122722616Y-100334197D01*
X122726126Y-100357858D01*
X122727300Y-100381750D01*
X122727300Y-101294250D01*
X122726126Y-101318142D01*
X122722616Y-101341803D01*
X122716804Y-101365007D01*
X122708746Y-101387529D01*
X122698518Y-101409153D01*
X122686221Y-101429670D01*
X122671971Y-101448883D01*
X122655907Y-101466607D01*
X122638183Y-101482671D01*
X122618970Y-101496921D01*
X122598453Y-101509218D01*
X122576829Y-101519446D01*
X122554307Y-101527504D01*
X122531103Y-101533316D01*
X122507442Y-101536826D01*
X122483550Y-101538000D01*
X121996050Y-101538000D01*
X121972158Y-101536826D01*
X121948497Y-101533316D01*
X121925293Y-101527504D01*
X121902771Y-101519446D01*
X121881147Y-101509218D01*
X121860630Y-101496921D01*
X121841417Y-101482671D01*
X121823693Y-101466607D01*
X121807629Y-101448883D01*
X121793379Y-101429670D01*
X121781082Y-101409153D01*
X121770854Y-101387529D01*
X121762796Y-101365007D01*
X121756984Y-101341803D01*
X121753474Y-101318142D01*
X121752300Y-101294250D01*
X121752300Y-100381750D01*
X121753474Y-100357858D01*
X121756984Y-100334197D01*
X121762796Y-100310993D01*
X121770854Y-100288471D01*
X121781082Y-100266847D01*
X121793379Y-100246330D01*
X121807629Y-100227117D01*
X121823693Y-100209393D01*
X121841417Y-100193329D01*
X121860630Y-100179079D01*
X121881147Y-100166782D01*
X121902771Y-100156554D01*
X121925293Y-100148496D01*
X121948497Y-100142684D01*
X121972158Y-100139174D01*
X121996050Y-100138000D01*
X122483550Y-100138000D01*
X122507442Y-100139174D01*
X122507442Y-100139174D01*
G37*
D14*
X122239800Y-100838000D03*
D13*
G36*
X124382442Y-100139174D02*
X124406103Y-100142684D01*
X124429307Y-100148496D01*
X124451829Y-100156554D01*
X124473453Y-100166782D01*
X124493970Y-100179079D01*
X124513183Y-100193329D01*
X124530907Y-100209393D01*
X124546971Y-100227117D01*
X124561221Y-100246330D01*
X124573518Y-100266847D01*
X124583746Y-100288471D01*
X124591804Y-100310993D01*
X124597616Y-100334197D01*
X124601126Y-100357858D01*
X124602300Y-100381750D01*
X124602300Y-101294250D01*
X124601126Y-101318142D01*
X124597616Y-101341803D01*
X124591804Y-101365007D01*
X124583746Y-101387529D01*
X124573518Y-101409153D01*
X124561221Y-101429670D01*
X124546971Y-101448883D01*
X124530907Y-101466607D01*
X124513183Y-101482671D01*
X124493970Y-101496921D01*
X124473453Y-101509218D01*
X124451829Y-101519446D01*
X124429307Y-101527504D01*
X124406103Y-101533316D01*
X124382442Y-101536826D01*
X124358550Y-101538000D01*
X123871050Y-101538000D01*
X123847158Y-101536826D01*
X123823497Y-101533316D01*
X123800293Y-101527504D01*
X123777771Y-101519446D01*
X123756147Y-101509218D01*
X123735630Y-101496921D01*
X123716417Y-101482671D01*
X123698693Y-101466607D01*
X123682629Y-101448883D01*
X123668379Y-101429670D01*
X123656082Y-101409153D01*
X123645854Y-101387529D01*
X123637796Y-101365007D01*
X123631984Y-101341803D01*
X123628474Y-101318142D01*
X123627300Y-101294250D01*
X123627300Y-100381750D01*
X123628474Y-100357858D01*
X123631984Y-100334197D01*
X123637796Y-100310993D01*
X123645854Y-100288471D01*
X123656082Y-100266847D01*
X123668379Y-100246330D01*
X123682629Y-100227117D01*
X123698693Y-100209393D01*
X123716417Y-100193329D01*
X123735630Y-100179079D01*
X123756147Y-100166782D01*
X123777771Y-100156554D01*
X123800293Y-100148496D01*
X123823497Y-100142684D01*
X123847158Y-100139174D01*
X123871050Y-100138000D01*
X124358550Y-100138000D01*
X124382442Y-100139174D01*
X124382442Y-100139174D01*
G37*
D14*
X124114800Y-100838000D03*
G04 #@! TD*
D13*
G04 #@! TO.C,R29*
G36*
X99098182Y-79427394D02*
X99121843Y-79430904D01*
X99145047Y-79436716D01*
X99167569Y-79444774D01*
X99189193Y-79455002D01*
X99209710Y-79467299D01*
X99228923Y-79481549D01*
X99246647Y-79497613D01*
X99262711Y-79515337D01*
X99276961Y-79534550D01*
X99289258Y-79555067D01*
X99299486Y-79576691D01*
X99307544Y-79599213D01*
X99313356Y-79622417D01*
X99316866Y-79646078D01*
X99318040Y-79669970D01*
X99318040Y-80157470D01*
X99316866Y-80181362D01*
X99313356Y-80205023D01*
X99307544Y-80228227D01*
X99299486Y-80250749D01*
X99289258Y-80272373D01*
X99276961Y-80292890D01*
X99262711Y-80312103D01*
X99246647Y-80329827D01*
X99228923Y-80345891D01*
X99209710Y-80360141D01*
X99189193Y-80372438D01*
X99167569Y-80382666D01*
X99145047Y-80390724D01*
X99121843Y-80396536D01*
X99098182Y-80400046D01*
X99074290Y-80401220D01*
X98161790Y-80401220D01*
X98137898Y-80400046D01*
X98114237Y-80396536D01*
X98091033Y-80390724D01*
X98068511Y-80382666D01*
X98046887Y-80372438D01*
X98026370Y-80360141D01*
X98007157Y-80345891D01*
X97989433Y-80329827D01*
X97973369Y-80312103D01*
X97959119Y-80292890D01*
X97946822Y-80272373D01*
X97936594Y-80250749D01*
X97928536Y-80228227D01*
X97922724Y-80205023D01*
X97919214Y-80181362D01*
X97918040Y-80157470D01*
X97918040Y-79669970D01*
X97919214Y-79646078D01*
X97922724Y-79622417D01*
X97928536Y-79599213D01*
X97936594Y-79576691D01*
X97946822Y-79555067D01*
X97959119Y-79534550D01*
X97973369Y-79515337D01*
X97989433Y-79497613D01*
X98007157Y-79481549D01*
X98026370Y-79467299D01*
X98046887Y-79455002D01*
X98068511Y-79444774D01*
X98091033Y-79436716D01*
X98114237Y-79430904D01*
X98137898Y-79427394D01*
X98161790Y-79426220D01*
X99074290Y-79426220D01*
X99098182Y-79427394D01*
X99098182Y-79427394D01*
G37*
D14*
X98618040Y-79913720D03*
D13*
G36*
X99098182Y-77552394D02*
X99121843Y-77555904D01*
X99145047Y-77561716D01*
X99167569Y-77569774D01*
X99189193Y-77580002D01*
X99209710Y-77592299D01*
X99228923Y-77606549D01*
X99246647Y-77622613D01*
X99262711Y-77640337D01*
X99276961Y-77659550D01*
X99289258Y-77680067D01*
X99299486Y-77701691D01*
X99307544Y-77724213D01*
X99313356Y-77747417D01*
X99316866Y-77771078D01*
X99318040Y-77794970D01*
X99318040Y-78282470D01*
X99316866Y-78306362D01*
X99313356Y-78330023D01*
X99307544Y-78353227D01*
X99299486Y-78375749D01*
X99289258Y-78397373D01*
X99276961Y-78417890D01*
X99262711Y-78437103D01*
X99246647Y-78454827D01*
X99228923Y-78470891D01*
X99209710Y-78485141D01*
X99189193Y-78497438D01*
X99167569Y-78507666D01*
X99145047Y-78515724D01*
X99121843Y-78521536D01*
X99098182Y-78525046D01*
X99074290Y-78526220D01*
X98161790Y-78526220D01*
X98137898Y-78525046D01*
X98114237Y-78521536D01*
X98091033Y-78515724D01*
X98068511Y-78507666D01*
X98046887Y-78497438D01*
X98026370Y-78485141D01*
X98007157Y-78470891D01*
X97989433Y-78454827D01*
X97973369Y-78437103D01*
X97959119Y-78417890D01*
X97946822Y-78397373D01*
X97936594Y-78375749D01*
X97928536Y-78353227D01*
X97922724Y-78330023D01*
X97919214Y-78306362D01*
X97918040Y-78282470D01*
X97918040Y-77794970D01*
X97919214Y-77771078D01*
X97922724Y-77747417D01*
X97928536Y-77724213D01*
X97936594Y-77701691D01*
X97946822Y-77680067D01*
X97959119Y-77659550D01*
X97973369Y-77640337D01*
X97989433Y-77622613D01*
X98007157Y-77606549D01*
X98026370Y-77592299D01*
X98046887Y-77580002D01*
X98068511Y-77569774D01*
X98091033Y-77561716D01*
X98114237Y-77555904D01*
X98137898Y-77552394D01*
X98161790Y-77551220D01*
X99074290Y-77551220D01*
X99098182Y-77552394D01*
X99098182Y-77552394D01*
G37*
D14*
X98618040Y-78038720D03*
G04 #@! TD*
D13*
G04 #@! TO.C,RX*
G36*
X111808342Y-105911974D02*
X111832003Y-105915484D01*
X111855207Y-105921296D01*
X111877729Y-105929354D01*
X111899353Y-105939582D01*
X111919870Y-105951879D01*
X111939083Y-105966129D01*
X111956807Y-105982193D01*
X111972871Y-105999917D01*
X111987121Y-106019130D01*
X111999418Y-106039647D01*
X112009646Y-106061271D01*
X112017704Y-106083793D01*
X112023516Y-106106997D01*
X112027026Y-106130658D01*
X112028200Y-106154550D01*
X112028200Y-106642050D01*
X112027026Y-106665942D01*
X112023516Y-106689603D01*
X112017704Y-106712807D01*
X112009646Y-106735329D01*
X111999418Y-106756953D01*
X111987121Y-106777470D01*
X111972871Y-106796683D01*
X111956807Y-106814407D01*
X111939083Y-106830471D01*
X111919870Y-106844721D01*
X111899353Y-106857018D01*
X111877729Y-106867246D01*
X111855207Y-106875304D01*
X111832003Y-106881116D01*
X111808342Y-106884626D01*
X111784450Y-106885800D01*
X110871950Y-106885800D01*
X110848058Y-106884626D01*
X110824397Y-106881116D01*
X110801193Y-106875304D01*
X110778671Y-106867246D01*
X110757047Y-106857018D01*
X110736530Y-106844721D01*
X110717317Y-106830471D01*
X110699593Y-106814407D01*
X110683529Y-106796683D01*
X110669279Y-106777470D01*
X110656982Y-106756953D01*
X110646754Y-106735329D01*
X110638696Y-106712807D01*
X110632884Y-106689603D01*
X110629374Y-106665942D01*
X110628200Y-106642050D01*
X110628200Y-106154550D01*
X110629374Y-106130658D01*
X110632884Y-106106997D01*
X110638696Y-106083793D01*
X110646754Y-106061271D01*
X110656982Y-106039647D01*
X110669279Y-106019130D01*
X110683529Y-105999917D01*
X110699593Y-105982193D01*
X110717317Y-105966129D01*
X110736530Y-105951879D01*
X110757047Y-105939582D01*
X110778671Y-105929354D01*
X110801193Y-105921296D01*
X110824397Y-105915484D01*
X110848058Y-105911974D01*
X110871950Y-105910800D01*
X111784450Y-105910800D01*
X111808342Y-105911974D01*
X111808342Y-105911974D01*
G37*
D14*
X111328200Y-106398300D03*
D13*
G36*
X111808342Y-104036974D02*
X111832003Y-104040484D01*
X111855207Y-104046296D01*
X111877729Y-104054354D01*
X111899353Y-104064582D01*
X111919870Y-104076879D01*
X111939083Y-104091129D01*
X111956807Y-104107193D01*
X111972871Y-104124917D01*
X111987121Y-104144130D01*
X111999418Y-104164647D01*
X112009646Y-104186271D01*
X112017704Y-104208793D01*
X112023516Y-104231997D01*
X112027026Y-104255658D01*
X112028200Y-104279550D01*
X112028200Y-104767050D01*
X112027026Y-104790942D01*
X112023516Y-104814603D01*
X112017704Y-104837807D01*
X112009646Y-104860329D01*
X111999418Y-104881953D01*
X111987121Y-104902470D01*
X111972871Y-104921683D01*
X111956807Y-104939407D01*
X111939083Y-104955471D01*
X111919870Y-104969721D01*
X111899353Y-104982018D01*
X111877729Y-104992246D01*
X111855207Y-105000304D01*
X111832003Y-105006116D01*
X111808342Y-105009626D01*
X111784450Y-105010800D01*
X110871950Y-105010800D01*
X110848058Y-105009626D01*
X110824397Y-105006116D01*
X110801193Y-105000304D01*
X110778671Y-104992246D01*
X110757047Y-104982018D01*
X110736530Y-104969721D01*
X110717317Y-104955471D01*
X110699593Y-104939407D01*
X110683529Y-104921683D01*
X110669279Y-104902470D01*
X110656982Y-104881953D01*
X110646754Y-104860329D01*
X110638696Y-104837807D01*
X110632884Y-104814603D01*
X110629374Y-104790942D01*
X110628200Y-104767050D01*
X110628200Y-104279550D01*
X110629374Y-104255658D01*
X110632884Y-104231997D01*
X110638696Y-104208793D01*
X110646754Y-104186271D01*
X110656982Y-104164647D01*
X110669279Y-104144130D01*
X110683529Y-104124917D01*
X110699593Y-104107193D01*
X110717317Y-104091129D01*
X110736530Y-104076879D01*
X110757047Y-104064582D01*
X110778671Y-104054354D01*
X110801193Y-104046296D01*
X110824397Y-104040484D01*
X110848058Y-104036974D01*
X110871950Y-104035800D01*
X111784450Y-104035800D01*
X111808342Y-104036974D01*
X111808342Y-104036974D01*
G37*
D14*
X111328200Y-104523300D03*
G04 #@! TD*
D13*
G04 #@! TO.C,TX*
G36*
X109623942Y-104036974D02*
X109647603Y-104040484D01*
X109670807Y-104046296D01*
X109693329Y-104054354D01*
X109714953Y-104064582D01*
X109735470Y-104076879D01*
X109754683Y-104091129D01*
X109772407Y-104107193D01*
X109788471Y-104124917D01*
X109802721Y-104144130D01*
X109815018Y-104164647D01*
X109825246Y-104186271D01*
X109833304Y-104208793D01*
X109839116Y-104231997D01*
X109842626Y-104255658D01*
X109843800Y-104279550D01*
X109843800Y-104767050D01*
X109842626Y-104790942D01*
X109839116Y-104814603D01*
X109833304Y-104837807D01*
X109825246Y-104860329D01*
X109815018Y-104881953D01*
X109802721Y-104902470D01*
X109788471Y-104921683D01*
X109772407Y-104939407D01*
X109754683Y-104955471D01*
X109735470Y-104969721D01*
X109714953Y-104982018D01*
X109693329Y-104992246D01*
X109670807Y-105000304D01*
X109647603Y-105006116D01*
X109623942Y-105009626D01*
X109600050Y-105010800D01*
X108687550Y-105010800D01*
X108663658Y-105009626D01*
X108639997Y-105006116D01*
X108616793Y-105000304D01*
X108594271Y-104992246D01*
X108572647Y-104982018D01*
X108552130Y-104969721D01*
X108532917Y-104955471D01*
X108515193Y-104939407D01*
X108499129Y-104921683D01*
X108484879Y-104902470D01*
X108472582Y-104881953D01*
X108462354Y-104860329D01*
X108454296Y-104837807D01*
X108448484Y-104814603D01*
X108444974Y-104790942D01*
X108443800Y-104767050D01*
X108443800Y-104279550D01*
X108444974Y-104255658D01*
X108448484Y-104231997D01*
X108454296Y-104208793D01*
X108462354Y-104186271D01*
X108472582Y-104164647D01*
X108484879Y-104144130D01*
X108499129Y-104124917D01*
X108515193Y-104107193D01*
X108532917Y-104091129D01*
X108552130Y-104076879D01*
X108572647Y-104064582D01*
X108594271Y-104054354D01*
X108616793Y-104046296D01*
X108639997Y-104040484D01*
X108663658Y-104036974D01*
X108687550Y-104035800D01*
X109600050Y-104035800D01*
X109623942Y-104036974D01*
X109623942Y-104036974D01*
G37*
D14*
X109143800Y-104523300D03*
D13*
G36*
X109623942Y-105911974D02*
X109647603Y-105915484D01*
X109670807Y-105921296D01*
X109693329Y-105929354D01*
X109714953Y-105939582D01*
X109735470Y-105951879D01*
X109754683Y-105966129D01*
X109772407Y-105982193D01*
X109788471Y-105999917D01*
X109802721Y-106019130D01*
X109815018Y-106039647D01*
X109825246Y-106061271D01*
X109833304Y-106083793D01*
X109839116Y-106106997D01*
X109842626Y-106130658D01*
X109843800Y-106154550D01*
X109843800Y-106642050D01*
X109842626Y-106665942D01*
X109839116Y-106689603D01*
X109833304Y-106712807D01*
X109825246Y-106735329D01*
X109815018Y-106756953D01*
X109802721Y-106777470D01*
X109788471Y-106796683D01*
X109772407Y-106814407D01*
X109754683Y-106830471D01*
X109735470Y-106844721D01*
X109714953Y-106857018D01*
X109693329Y-106867246D01*
X109670807Y-106875304D01*
X109647603Y-106881116D01*
X109623942Y-106884626D01*
X109600050Y-106885800D01*
X108687550Y-106885800D01*
X108663658Y-106884626D01*
X108639997Y-106881116D01*
X108616793Y-106875304D01*
X108594271Y-106867246D01*
X108572647Y-106857018D01*
X108552130Y-106844721D01*
X108532917Y-106830471D01*
X108515193Y-106814407D01*
X108499129Y-106796683D01*
X108484879Y-106777470D01*
X108472582Y-106756953D01*
X108462354Y-106735329D01*
X108454296Y-106712807D01*
X108448484Y-106689603D01*
X108444974Y-106665942D01*
X108443800Y-106642050D01*
X108443800Y-106154550D01*
X108444974Y-106130658D01*
X108448484Y-106106997D01*
X108454296Y-106083793D01*
X108462354Y-106061271D01*
X108472582Y-106039647D01*
X108484879Y-106019130D01*
X108499129Y-105999917D01*
X108515193Y-105982193D01*
X108532917Y-105966129D01*
X108552130Y-105951879D01*
X108572647Y-105939582D01*
X108594271Y-105929354D01*
X108616793Y-105921296D01*
X108639997Y-105915484D01*
X108663658Y-105911974D01*
X108687550Y-105910800D01*
X109600050Y-105910800D01*
X109623942Y-105911974D01*
X109623942Y-105911974D01*
G37*
D14*
X109143800Y-106398300D03*
G04 #@! TD*
D19*
G04 #@! TO.C,U2*
X127398800Y-59055000D03*
X127398800Y-60325000D03*
X127398800Y-61595000D03*
X127398800Y-62865000D03*
X132798800Y-62865000D03*
X132798800Y-61595000D03*
X132798800Y-60325000D03*
X132798800Y-59055000D03*
G04 #@! TD*
D20*
G04 #@! TO.C,U4*
X110490000Y-58069500D03*
X109220000Y-58069500D03*
X107950000Y-58069500D03*
X106680000Y-58069500D03*
X106680000Y-63469500D03*
X107950000Y-63469500D03*
X109220000Y-63469500D03*
X110490000Y-63469500D03*
G04 #@! TD*
D11*
G04 #@! TO.C,U6*
X119511300Y-96456500D03*
X119511300Y-97726500D03*
X119511300Y-98996500D03*
X119511300Y-100266500D03*
X112111300Y-100266500D03*
X112111300Y-98996500D03*
X112111300Y-97726500D03*
X112111300Y-96456500D03*
G04 #@! TD*
D13*
G04 #@! TO.C,C20*
G36*
X122184991Y-96045553D02*
X122206226Y-96048703D01*
X122227050Y-96053919D01*
X122247262Y-96061151D01*
X122266668Y-96070330D01*
X122285081Y-96081366D01*
X122302324Y-96094154D01*
X122318230Y-96108570D01*
X122332646Y-96124476D01*
X122345434Y-96141719D01*
X122356470Y-96160132D01*
X122365649Y-96179538D01*
X122372881Y-96199750D01*
X122378097Y-96220574D01*
X122381247Y-96241809D01*
X122382300Y-96263250D01*
X122382300Y-96700750D01*
X122381247Y-96722191D01*
X122378097Y-96743426D01*
X122372881Y-96764250D01*
X122365649Y-96784462D01*
X122356470Y-96803868D01*
X122345434Y-96822281D01*
X122332646Y-96839524D01*
X122318230Y-96855430D01*
X122302324Y-96869846D01*
X122285081Y-96882634D01*
X122266668Y-96893670D01*
X122247262Y-96902849D01*
X122227050Y-96910081D01*
X122206226Y-96915297D01*
X122184991Y-96918447D01*
X122163550Y-96919500D01*
X121651050Y-96919500D01*
X121629609Y-96918447D01*
X121608374Y-96915297D01*
X121587550Y-96910081D01*
X121567338Y-96902849D01*
X121547932Y-96893670D01*
X121529519Y-96882634D01*
X121512276Y-96869846D01*
X121496370Y-96855430D01*
X121481954Y-96839524D01*
X121469166Y-96822281D01*
X121458130Y-96803868D01*
X121448951Y-96784462D01*
X121441719Y-96764250D01*
X121436503Y-96743426D01*
X121433353Y-96722191D01*
X121432300Y-96700750D01*
X121432300Y-96263250D01*
X121433353Y-96241809D01*
X121436503Y-96220574D01*
X121441719Y-96199750D01*
X121448951Y-96179538D01*
X121458130Y-96160132D01*
X121469166Y-96141719D01*
X121481954Y-96124476D01*
X121496370Y-96108570D01*
X121512276Y-96094154D01*
X121529519Y-96081366D01*
X121547932Y-96070330D01*
X121567338Y-96061151D01*
X121587550Y-96053919D01*
X121608374Y-96048703D01*
X121629609Y-96045553D01*
X121651050Y-96044500D01*
X122163550Y-96044500D01*
X122184991Y-96045553D01*
X122184991Y-96045553D01*
G37*
D15*
X121907300Y-96482000D03*
D13*
G36*
X122184991Y-94470553D02*
X122206226Y-94473703D01*
X122227050Y-94478919D01*
X122247262Y-94486151D01*
X122266668Y-94495330D01*
X122285081Y-94506366D01*
X122302324Y-94519154D01*
X122318230Y-94533570D01*
X122332646Y-94549476D01*
X122345434Y-94566719D01*
X122356470Y-94585132D01*
X122365649Y-94604538D01*
X122372881Y-94624750D01*
X122378097Y-94645574D01*
X122381247Y-94666809D01*
X122382300Y-94688250D01*
X122382300Y-95125750D01*
X122381247Y-95147191D01*
X122378097Y-95168426D01*
X122372881Y-95189250D01*
X122365649Y-95209462D01*
X122356470Y-95228868D01*
X122345434Y-95247281D01*
X122332646Y-95264524D01*
X122318230Y-95280430D01*
X122302324Y-95294846D01*
X122285081Y-95307634D01*
X122266668Y-95318670D01*
X122247262Y-95327849D01*
X122227050Y-95335081D01*
X122206226Y-95340297D01*
X122184991Y-95343447D01*
X122163550Y-95344500D01*
X121651050Y-95344500D01*
X121629609Y-95343447D01*
X121608374Y-95340297D01*
X121587550Y-95335081D01*
X121567338Y-95327849D01*
X121547932Y-95318670D01*
X121529519Y-95307634D01*
X121512276Y-95294846D01*
X121496370Y-95280430D01*
X121481954Y-95264524D01*
X121469166Y-95247281D01*
X121458130Y-95228868D01*
X121448951Y-95209462D01*
X121441719Y-95189250D01*
X121436503Y-95168426D01*
X121433353Y-95147191D01*
X121432300Y-95125750D01*
X121432300Y-94688250D01*
X121433353Y-94666809D01*
X121436503Y-94645574D01*
X121441719Y-94624750D01*
X121448951Y-94604538D01*
X121458130Y-94585132D01*
X121469166Y-94566719D01*
X121481954Y-94549476D01*
X121496370Y-94533570D01*
X121512276Y-94519154D01*
X121529519Y-94506366D01*
X121547932Y-94495330D01*
X121567338Y-94486151D01*
X121587550Y-94478919D01*
X121608374Y-94473703D01*
X121629609Y-94470553D01*
X121651050Y-94469500D01*
X122163550Y-94469500D01*
X122184991Y-94470553D01*
X122184991Y-94470553D01*
G37*
D15*
X121907300Y-94907000D03*
G04 #@! TD*
M02*
