%FSLAX45Y45*%
G04 Gerber Fmt 4.5, Leading zero omitted, Abs format (unit mm)*
G04 Created by KiCad (PCBNEW 5.0.1+dfsg1-2) date Fri 19 Oct 2018 12:08:07 CEST*
%MOMM*%
%LPD*%
G01*
G04 APERTURE LIST*
%ADD10C,0.100000*%
%ADD11C,0.200000*%
%ADD12C,0.300000*%
G04 APERTURE END LIST*
D10*
X8407400Y-5200650D02*
X8407400Y-10788650D01*
X13995400Y-10788650D02*
X8407400Y-10788650D01*
X13995400Y-5200650D02*
X13995400Y-10788650D01*
X8407400Y-5200650D02*
X13995400Y-5200650D01*
D11*
X8778750Y-10256050D02*
X8878750Y-10356050D01*
X8878750Y-10256050D02*
X8778750Y-10356050D01*
X9218750Y-10256050D02*
X9318750Y-10356050D01*
X9318750Y-10256050D02*
X9218750Y-10356050D01*
X13736300Y-7010400D02*
G75*
G03X13736300Y-7010400I-160000J0D01*
G01*
X13736300Y-8153400D02*
G75*
G03X13736300Y-8153400I-160000J0D01*
G01*
X13736300Y-9301480D02*
G75*
G03X13736300Y-9301480I-160000J0D01*
G01*
X13736300Y-10444480D02*
G75*
G03X13736300Y-10444480I-160000J0D01*
G01*
D12*
X8688828Y-11259364D02*
X8688828Y-10959364D01*
X8760257Y-10959364D01*
X8803114Y-10973650D01*
X8831686Y-11002222D01*
X8845971Y-11030793D01*
X8860257Y-11087936D01*
X8860257Y-11130793D01*
X8845971Y-11187936D01*
X8831686Y-11216507D01*
X8803114Y-11245079D01*
X8760257Y-11259364D01*
X8688828Y-11259364D01*
X8988828Y-11259364D02*
X8988828Y-11059364D01*
X8988828Y-11116507D02*
X9003114Y-11087936D01*
X9017400Y-11073650D01*
X9045971Y-11059364D01*
X9074543Y-11059364D01*
X9174543Y-11259364D02*
X9174543Y-11059364D01*
X9174543Y-10959364D02*
X9160257Y-10973650D01*
X9174543Y-10987936D01*
X9188828Y-10973650D01*
X9174543Y-10959364D01*
X9174543Y-10987936D01*
X9360257Y-11259364D02*
X9331686Y-11245079D01*
X9317400Y-11216507D01*
X9317400Y-10959364D01*
X9517400Y-11259364D02*
X9488828Y-11245079D01*
X9474543Y-11216507D01*
X9474543Y-10959364D01*
X9860257Y-11259364D02*
X9860257Y-10959364D01*
X9960257Y-11173650D01*
X10060257Y-10959364D01*
X10060257Y-11259364D01*
X10331686Y-11259364D02*
X10331686Y-11102222D01*
X10317400Y-11073650D01*
X10288828Y-11059364D01*
X10231686Y-11059364D01*
X10203114Y-11073650D01*
X10331686Y-11245079D02*
X10303114Y-11259364D01*
X10231686Y-11259364D01*
X10203114Y-11245079D01*
X10188828Y-11216507D01*
X10188828Y-11187936D01*
X10203114Y-11159364D01*
X10231686Y-11145079D01*
X10303114Y-11145079D01*
X10331686Y-11130793D01*
X10474543Y-11059364D02*
X10474543Y-11359364D01*
X10474543Y-11073650D02*
X10503114Y-11059364D01*
X10560257Y-11059364D01*
X10588828Y-11073650D01*
X10603114Y-11087936D01*
X10617400Y-11116507D01*
X10617400Y-11202221D01*
X10603114Y-11230793D01*
X10588828Y-11245079D01*
X10560257Y-11259364D01*
X10503114Y-11259364D01*
X10474543Y-11245079D01*
X10745971Y-11230793D02*
X10760257Y-11245079D01*
X10745971Y-11259364D01*
X10731686Y-11245079D01*
X10745971Y-11230793D01*
X10745971Y-11259364D01*
X10745971Y-11073650D02*
X10760257Y-11087936D01*
X10745971Y-11102222D01*
X10731686Y-11087936D01*
X10745971Y-11073650D01*
X10745971Y-11102222D01*
X8302400Y-11703650D02*
X8402400Y-11803650D01*
X8402400Y-11703650D02*
X8302400Y-11803650D01*
X8845971Y-11889364D02*
X8674543Y-11889364D01*
X8760257Y-11889364D02*
X8760257Y-11589364D01*
X8731686Y-11632221D01*
X8703114Y-11660793D01*
X8674543Y-11675079D01*
X8974543Y-11860793D02*
X8988828Y-11875079D01*
X8974543Y-11889364D01*
X8960257Y-11875079D01*
X8974543Y-11860793D01*
X8974543Y-11889364D01*
X9174543Y-11589364D02*
X9203114Y-11589364D01*
X9231686Y-11603650D01*
X9245971Y-11617936D01*
X9260257Y-11646507D01*
X9274543Y-11703650D01*
X9274543Y-11775079D01*
X9260257Y-11832221D01*
X9245971Y-11860793D01*
X9231686Y-11875079D01*
X9203114Y-11889364D01*
X9174543Y-11889364D01*
X9145971Y-11875079D01*
X9131686Y-11860793D01*
X9117400Y-11832221D01*
X9103114Y-11775079D01*
X9103114Y-11703650D01*
X9117400Y-11646507D01*
X9131686Y-11617936D01*
X9145971Y-11603650D01*
X9174543Y-11589364D01*
X9460257Y-11589364D02*
X9488828Y-11589364D01*
X9517400Y-11603650D01*
X9531686Y-11617936D01*
X9545971Y-11646507D01*
X9560257Y-11703650D01*
X9560257Y-11775079D01*
X9545971Y-11832221D01*
X9531686Y-11860793D01*
X9517400Y-11875079D01*
X9488828Y-11889364D01*
X9460257Y-11889364D01*
X9431686Y-11875079D01*
X9417400Y-11860793D01*
X9403114Y-11832221D01*
X9388828Y-11775079D01*
X9388828Y-11703650D01*
X9403114Y-11646507D01*
X9417400Y-11617936D01*
X9431686Y-11603650D01*
X9460257Y-11589364D01*
X9688828Y-11889364D02*
X9688828Y-11689364D01*
X9688828Y-11717936D02*
X9703114Y-11703650D01*
X9731686Y-11689364D01*
X9774543Y-11689364D01*
X9803114Y-11703650D01*
X9817400Y-11732221D01*
X9817400Y-11889364D01*
X9817400Y-11732221D02*
X9831686Y-11703650D01*
X9860257Y-11689364D01*
X9903114Y-11689364D01*
X9931686Y-11703650D01*
X9945971Y-11732221D01*
X9945971Y-11889364D01*
X10088828Y-11889364D02*
X10088828Y-11689364D01*
X10088828Y-11717936D02*
X10103114Y-11703650D01*
X10131686Y-11689364D01*
X10174543Y-11689364D01*
X10203114Y-11703650D01*
X10217400Y-11732221D01*
X10217400Y-11889364D01*
X10217400Y-11732221D02*
X10231686Y-11703650D01*
X10260257Y-11689364D01*
X10303114Y-11689364D01*
X10331686Y-11703650D01*
X10345971Y-11732221D01*
X10345971Y-11889364D01*
X10931686Y-11575079D02*
X10674543Y-11960793D01*
X11317400Y-11589364D02*
X11345971Y-11589364D01*
X11374543Y-11603650D01*
X11388828Y-11617936D01*
X11403114Y-11646507D01*
X11417400Y-11703650D01*
X11417400Y-11775079D01*
X11403114Y-11832221D01*
X11388828Y-11860793D01*
X11374543Y-11875079D01*
X11345971Y-11889364D01*
X11317400Y-11889364D01*
X11288828Y-11875079D01*
X11274543Y-11860793D01*
X11260257Y-11832221D01*
X11245971Y-11775079D01*
X11245971Y-11703650D01*
X11260257Y-11646507D01*
X11274543Y-11617936D01*
X11288828Y-11603650D01*
X11317400Y-11589364D01*
X11545971Y-11860793D02*
X11560257Y-11875079D01*
X11545971Y-11889364D01*
X11531686Y-11875079D01*
X11545971Y-11860793D01*
X11545971Y-11889364D01*
X11745971Y-11589364D02*
X11774543Y-11589364D01*
X11803114Y-11603650D01*
X11817400Y-11617936D01*
X11831686Y-11646507D01*
X11845971Y-11703650D01*
X11845971Y-11775079D01*
X11831686Y-11832221D01*
X11817400Y-11860793D01*
X11803114Y-11875079D01*
X11774543Y-11889364D01*
X11745971Y-11889364D01*
X11717400Y-11875079D01*
X11703114Y-11860793D01*
X11688828Y-11832221D01*
X11674543Y-11775079D01*
X11674543Y-11703650D01*
X11688828Y-11646507D01*
X11703114Y-11617936D01*
X11717400Y-11603650D01*
X11745971Y-11589364D01*
X11945971Y-11589364D02*
X12131686Y-11589364D01*
X12031686Y-11703650D01*
X12074543Y-11703650D01*
X12103114Y-11717936D01*
X12117400Y-11732221D01*
X12131686Y-11760793D01*
X12131686Y-11832221D01*
X12117400Y-11860793D01*
X12103114Y-11875079D01*
X12074543Y-11889364D01*
X11988828Y-11889364D01*
X11960257Y-11875079D01*
X11945971Y-11860793D01*
X12274543Y-11889364D02*
X12331686Y-11889364D01*
X12360257Y-11875079D01*
X12374543Y-11860793D01*
X12403114Y-11817936D01*
X12417400Y-11760793D01*
X12417400Y-11646507D01*
X12403114Y-11617936D01*
X12388828Y-11603650D01*
X12360257Y-11589364D01*
X12303114Y-11589364D01*
X12274543Y-11603650D01*
X12260257Y-11617936D01*
X12245971Y-11646507D01*
X12245971Y-11717936D01*
X12260257Y-11746507D01*
X12274543Y-11760793D01*
X12303114Y-11775079D01*
X12360257Y-11775079D01*
X12388828Y-11760793D01*
X12403114Y-11746507D01*
X12417400Y-11717936D01*
X12531686Y-11589364D02*
X12531686Y-11646507D01*
X12645971Y-11589364D02*
X12645971Y-11646507D01*
X13088828Y-12003650D02*
X13074543Y-11989364D01*
X13045971Y-11946507D01*
X13031686Y-11917936D01*
X13017400Y-11875079D01*
X13003114Y-11803650D01*
X13003114Y-11746507D01*
X13017400Y-11675079D01*
X13031686Y-11632221D01*
X13045971Y-11603650D01*
X13074543Y-11560793D01*
X13088828Y-11546507D01*
X13188828Y-11617936D02*
X13203114Y-11603650D01*
X13231686Y-11589364D01*
X13303114Y-11589364D01*
X13331686Y-11603650D01*
X13345971Y-11617936D01*
X13360257Y-11646507D01*
X13360257Y-11675079D01*
X13345971Y-11717936D01*
X13174543Y-11889364D01*
X13360257Y-11889364D01*
X13717400Y-11889364D02*
X13717400Y-11589364D01*
X13845971Y-11889364D02*
X13845971Y-11732221D01*
X13831686Y-11703650D01*
X13803114Y-11689364D01*
X13760257Y-11689364D01*
X13731686Y-11703650D01*
X13717400Y-11717936D01*
X14031686Y-11889364D02*
X14003114Y-11875079D01*
X13988828Y-11860793D01*
X13974543Y-11832221D01*
X13974543Y-11746507D01*
X13988828Y-11717936D01*
X14003114Y-11703650D01*
X14031686Y-11689364D01*
X14074543Y-11689364D01*
X14103114Y-11703650D01*
X14117400Y-11717936D01*
X14131686Y-11746507D01*
X14131686Y-11832221D01*
X14117400Y-11860793D01*
X14103114Y-11875079D01*
X14074543Y-11889364D01*
X14031686Y-11889364D01*
X14303114Y-11889364D02*
X14274543Y-11875079D01*
X14260257Y-11846507D01*
X14260257Y-11589364D01*
X14531686Y-11875079D02*
X14503114Y-11889364D01*
X14445971Y-11889364D01*
X14417400Y-11875079D01*
X14403114Y-11846507D01*
X14403114Y-11732221D01*
X14417400Y-11703650D01*
X14445971Y-11689364D01*
X14503114Y-11689364D01*
X14531686Y-11703650D01*
X14545971Y-11732221D01*
X14545971Y-11760793D01*
X14403114Y-11789364D01*
X14660257Y-11875079D02*
X14688828Y-11889364D01*
X14745971Y-11889364D01*
X14774543Y-11875079D01*
X14788828Y-11846507D01*
X14788828Y-11832221D01*
X14774543Y-11803650D01*
X14745971Y-11789364D01*
X14703114Y-11789364D01*
X14674543Y-11775079D01*
X14660257Y-11746507D01*
X14660257Y-11732221D01*
X14674543Y-11703650D01*
X14703114Y-11689364D01*
X14745971Y-11689364D01*
X14774543Y-11703650D01*
X14888828Y-12003650D02*
X14903114Y-11989364D01*
X14931686Y-11946507D01*
X14945971Y-11917936D01*
X14960257Y-11875079D01*
X14974543Y-11803650D01*
X14974543Y-11746507D01*
X14960257Y-11675079D01*
X14945971Y-11632221D01*
X14931686Y-11603650D01*
X14903114Y-11560793D01*
X14888828Y-11546507D01*
X15431686Y-12003650D02*
X15417400Y-11989364D01*
X15388828Y-11946507D01*
X15374543Y-11917936D01*
X15360257Y-11875079D01*
X15345971Y-11803650D01*
X15345971Y-11746507D01*
X15360257Y-11675079D01*
X15374543Y-11632221D01*
X15388828Y-11603650D01*
X15417400Y-11560793D01*
X15431686Y-11546507D01*
X15545971Y-11689364D02*
X15545971Y-11889364D01*
X15545971Y-11717936D02*
X15560257Y-11703650D01*
X15588828Y-11689364D01*
X15631686Y-11689364D01*
X15660257Y-11703650D01*
X15674543Y-11732221D01*
X15674543Y-11889364D01*
X15860257Y-11889364D02*
X15831686Y-11875079D01*
X15817400Y-11860793D01*
X15803114Y-11832221D01*
X15803114Y-11746507D01*
X15817400Y-11717936D01*
X15831686Y-11703650D01*
X15860257Y-11689364D01*
X15903114Y-11689364D01*
X15931686Y-11703650D01*
X15945971Y-11717936D01*
X15960257Y-11746507D01*
X15960257Y-11832221D01*
X15945971Y-11860793D01*
X15931686Y-11875079D01*
X15903114Y-11889364D01*
X15860257Y-11889364D01*
X16045971Y-11689364D02*
X16160257Y-11689364D01*
X16088828Y-11589364D02*
X16088828Y-11846507D01*
X16103114Y-11875079D01*
X16131686Y-11889364D01*
X16160257Y-11889364D01*
X16488828Y-11689364D02*
X16488828Y-11989364D01*
X16488828Y-11703650D02*
X16517400Y-11689364D01*
X16574543Y-11689364D01*
X16603114Y-11703650D01*
X16617400Y-11717936D01*
X16631686Y-11746507D01*
X16631686Y-11832221D01*
X16617400Y-11860793D01*
X16603114Y-11875079D01*
X16574543Y-11889364D01*
X16517400Y-11889364D01*
X16488828Y-11875079D01*
X16803114Y-11889364D02*
X16774543Y-11875079D01*
X16760257Y-11846507D01*
X16760257Y-11589364D01*
X17045971Y-11889364D02*
X17045971Y-11732221D01*
X17031686Y-11703650D01*
X17003114Y-11689364D01*
X16945971Y-11689364D01*
X16917400Y-11703650D01*
X17045971Y-11875079D02*
X17017400Y-11889364D01*
X16945971Y-11889364D01*
X16917400Y-11875079D01*
X16903114Y-11846507D01*
X16903114Y-11817936D01*
X16917400Y-11789364D01*
X16945971Y-11775079D01*
X17017400Y-11775079D01*
X17045971Y-11760793D01*
X17145971Y-11689364D02*
X17260257Y-11689364D01*
X17188828Y-11589364D02*
X17188828Y-11846507D01*
X17203114Y-11875079D01*
X17231686Y-11889364D01*
X17260257Y-11889364D01*
X17474543Y-11875079D02*
X17445971Y-11889364D01*
X17388828Y-11889364D01*
X17360257Y-11875079D01*
X17345971Y-11846507D01*
X17345971Y-11732221D01*
X17360257Y-11703650D01*
X17388828Y-11689364D01*
X17445971Y-11689364D01*
X17474543Y-11703650D01*
X17488828Y-11732221D01*
X17488828Y-11760793D01*
X17345971Y-11789364D01*
X17745971Y-11889364D02*
X17745971Y-11589364D01*
X17745971Y-11875079D02*
X17717400Y-11889364D01*
X17660257Y-11889364D01*
X17631686Y-11875079D01*
X17617400Y-11860793D01*
X17603114Y-11832221D01*
X17603114Y-11746507D01*
X17617400Y-11717936D01*
X17631686Y-11703650D01*
X17660257Y-11689364D01*
X17717400Y-11689364D01*
X17745971Y-11703650D01*
X17860257Y-12003650D02*
X17874543Y-11989364D01*
X17903114Y-11946507D01*
X17917400Y-11917936D01*
X17931686Y-11875079D01*
X17945971Y-11803650D01*
X17945971Y-11746507D01*
X17931686Y-11675079D01*
X17917400Y-11632221D01*
X17903114Y-11603650D01*
X17874543Y-11560793D01*
X17860257Y-11546507D01*
X8402400Y-12149650D02*
G75*
G03X8402400Y-12149650I-160000J0D01*
G01*
X8660257Y-11985364D02*
X8845971Y-11985364D01*
X8745971Y-12099650D01*
X8788828Y-12099650D01*
X8817400Y-12113936D01*
X8831686Y-12128221D01*
X8845971Y-12156793D01*
X8845971Y-12228221D01*
X8831686Y-12256793D01*
X8817400Y-12271079D01*
X8788828Y-12285364D01*
X8703114Y-12285364D01*
X8674543Y-12271079D01*
X8660257Y-12256793D01*
X8974543Y-12256793D02*
X8988828Y-12271079D01*
X8974543Y-12285364D01*
X8960257Y-12271079D01*
X8974543Y-12256793D01*
X8974543Y-12285364D01*
X9103114Y-12013936D02*
X9117400Y-11999650D01*
X9145971Y-11985364D01*
X9217400Y-11985364D01*
X9245971Y-11999650D01*
X9260257Y-12013936D01*
X9274543Y-12042507D01*
X9274543Y-12071079D01*
X9260257Y-12113936D01*
X9088828Y-12285364D01*
X9274543Y-12285364D01*
X9460257Y-11985364D02*
X9488828Y-11985364D01*
X9517400Y-11999650D01*
X9531686Y-12013936D01*
X9545971Y-12042507D01*
X9560257Y-12099650D01*
X9560257Y-12171079D01*
X9545971Y-12228221D01*
X9531686Y-12256793D01*
X9517400Y-12271079D01*
X9488828Y-12285364D01*
X9460257Y-12285364D01*
X9431686Y-12271079D01*
X9417400Y-12256793D01*
X9403114Y-12228221D01*
X9388828Y-12171079D01*
X9388828Y-12099650D01*
X9403114Y-12042507D01*
X9417400Y-12013936D01*
X9431686Y-11999650D01*
X9460257Y-11985364D01*
X9688828Y-12285364D02*
X9688828Y-12085364D01*
X9688828Y-12113936D02*
X9703114Y-12099650D01*
X9731686Y-12085364D01*
X9774543Y-12085364D01*
X9803114Y-12099650D01*
X9817400Y-12128221D01*
X9817400Y-12285364D01*
X9817400Y-12128221D02*
X9831686Y-12099650D01*
X9860257Y-12085364D01*
X9903114Y-12085364D01*
X9931686Y-12099650D01*
X9945971Y-12128221D01*
X9945971Y-12285364D01*
X10088828Y-12285364D02*
X10088828Y-12085364D01*
X10088828Y-12113936D02*
X10103114Y-12099650D01*
X10131686Y-12085364D01*
X10174543Y-12085364D01*
X10203114Y-12099650D01*
X10217400Y-12128221D01*
X10217400Y-12285364D01*
X10217400Y-12128221D02*
X10231686Y-12099650D01*
X10260257Y-12085364D01*
X10303114Y-12085364D01*
X10331686Y-12099650D01*
X10345971Y-12128221D01*
X10345971Y-12285364D01*
X10931686Y-11971079D02*
X10674543Y-12356793D01*
X11317400Y-11985364D02*
X11345971Y-11985364D01*
X11374543Y-11999650D01*
X11388828Y-12013936D01*
X11403114Y-12042507D01*
X11417400Y-12099650D01*
X11417400Y-12171079D01*
X11403114Y-12228221D01*
X11388828Y-12256793D01*
X11374543Y-12271079D01*
X11345971Y-12285364D01*
X11317400Y-12285364D01*
X11288828Y-12271079D01*
X11274543Y-12256793D01*
X11260257Y-12228221D01*
X11245971Y-12171079D01*
X11245971Y-12099650D01*
X11260257Y-12042507D01*
X11274543Y-12013936D01*
X11288828Y-11999650D01*
X11317400Y-11985364D01*
X11545971Y-12256793D02*
X11560257Y-12271079D01*
X11545971Y-12285364D01*
X11531686Y-12271079D01*
X11545971Y-12256793D01*
X11545971Y-12285364D01*
X11845971Y-12285364D02*
X11674543Y-12285364D01*
X11760257Y-12285364D02*
X11760257Y-11985364D01*
X11731686Y-12028221D01*
X11703114Y-12056793D01*
X11674543Y-12071079D01*
X11960257Y-12013936D02*
X11974543Y-11999650D01*
X12003114Y-11985364D01*
X12074543Y-11985364D01*
X12103114Y-11999650D01*
X12117400Y-12013936D01*
X12131686Y-12042507D01*
X12131686Y-12071079D01*
X12117400Y-12113936D01*
X11945971Y-12285364D01*
X12131686Y-12285364D01*
X12388828Y-11985364D02*
X12331686Y-11985364D01*
X12303114Y-11999650D01*
X12288828Y-12013936D01*
X12260257Y-12056793D01*
X12245971Y-12113936D01*
X12245971Y-12228221D01*
X12260257Y-12256793D01*
X12274543Y-12271079D01*
X12303114Y-12285364D01*
X12360257Y-12285364D01*
X12388828Y-12271079D01*
X12403114Y-12256793D01*
X12417400Y-12228221D01*
X12417400Y-12156793D01*
X12403114Y-12128221D01*
X12388828Y-12113936D01*
X12360257Y-12099650D01*
X12303114Y-12099650D01*
X12274543Y-12113936D01*
X12260257Y-12128221D01*
X12245971Y-12156793D01*
X12531686Y-11985364D02*
X12531686Y-12042507D01*
X12645971Y-11985364D02*
X12645971Y-12042507D01*
X13088828Y-12399650D02*
X13074543Y-12385364D01*
X13045971Y-12342507D01*
X13031686Y-12313936D01*
X13017400Y-12271079D01*
X13003114Y-12199650D01*
X13003114Y-12142507D01*
X13017400Y-12071079D01*
X13031686Y-12028221D01*
X13045971Y-11999650D01*
X13074543Y-11956793D01*
X13088828Y-11942507D01*
X13331686Y-12085364D02*
X13331686Y-12285364D01*
X13260257Y-11971079D02*
X13188828Y-12185364D01*
X13374543Y-12185364D01*
X13717400Y-12285364D02*
X13717400Y-11985364D01*
X13845971Y-12285364D02*
X13845971Y-12128221D01*
X13831686Y-12099650D01*
X13803114Y-12085364D01*
X13760257Y-12085364D01*
X13731686Y-12099650D01*
X13717400Y-12113936D01*
X14031686Y-12285364D02*
X14003114Y-12271079D01*
X13988828Y-12256793D01*
X13974543Y-12228221D01*
X13974543Y-12142507D01*
X13988828Y-12113936D01*
X14003114Y-12099650D01*
X14031686Y-12085364D01*
X14074543Y-12085364D01*
X14103114Y-12099650D01*
X14117400Y-12113936D01*
X14131686Y-12142507D01*
X14131686Y-12228221D01*
X14117400Y-12256793D01*
X14103114Y-12271079D01*
X14074543Y-12285364D01*
X14031686Y-12285364D01*
X14303114Y-12285364D02*
X14274543Y-12271079D01*
X14260257Y-12242507D01*
X14260257Y-11985364D01*
X14531686Y-12271079D02*
X14503114Y-12285364D01*
X14445971Y-12285364D01*
X14417400Y-12271079D01*
X14403114Y-12242507D01*
X14403114Y-12128221D01*
X14417400Y-12099650D01*
X14445971Y-12085364D01*
X14503114Y-12085364D01*
X14531686Y-12099650D01*
X14545971Y-12128221D01*
X14545971Y-12156793D01*
X14403114Y-12185364D01*
X14660257Y-12271079D02*
X14688828Y-12285364D01*
X14745971Y-12285364D01*
X14774543Y-12271079D01*
X14788828Y-12242507D01*
X14788828Y-12228221D01*
X14774543Y-12199650D01*
X14745971Y-12185364D01*
X14703114Y-12185364D01*
X14674543Y-12171079D01*
X14660257Y-12142507D01*
X14660257Y-12128221D01*
X14674543Y-12099650D01*
X14703114Y-12085364D01*
X14745971Y-12085364D01*
X14774543Y-12099650D01*
X14888828Y-12399650D02*
X14903114Y-12385364D01*
X14931686Y-12342507D01*
X14945971Y-12313936D01*
X14960257Y-12271079D01*
X14974543Y-12199650D01*
X14974543Y-12142507D01*
X14960257Y-12071079D01*
X14945971Y-12028221D01*
X14931686Y-11999650D01*
X14903114Y-11956793D01*
X14888828Y-11942507D01*
X15431686Y-12399650D02*
X15417400Y-12385364D01*
X15388828Y-12342507D01*
X15374543Y-12313936D01*
X15360257Y-12271079D01*
X15345971Y-12199650D01*
X15345971Y-12142507D01*
X15360257Y-12071079D01*
X15374543Y-12028221D01*
X15388828Y-11999650D01*
X15417400Y-11956793D01*
X15431686Y-11942507D01*
X15545971Y-12085364D02*
X15545971Y-12285364D01*
X15545971Y-12113936D02*
X15560257Y-12099650D01*
X15588828Y-12085364D01*
X15631686Y-12085364D01*
X15660257Y-12099650D01*
X15674543Y-12128221D01*
X15674543Y-12285364D01*
X15860257Y-12285364D02*
X15831686Y-12271079D01*
X15817400Y-12256793D01*
X15803114Y-12228221D01*
X15803114Y-12142507D01*
X15817400Y-12113936D01*
X15831686Y-12099650D01*
X15860257Y-12085364D01*
X15903114Y-12085364D01*
X15931686Y-12099650D01*
X15945971Y-12113936D01*
X15960257Y-12142507D01*
X15960257Y-12228221D01*
X15945971Y-12256793D01*
X15931686Y-12271079D01*
X15903114Y-12285364D01*
X15860257Y-12285364D01*
X16045971Y-12085364D02*
X16160257Y-12085364D01*
X16088828Y-11985364D02*
X16088828Y-12242507D01*
X16103114Y-12271079D01*
X16131686Y-12285364D01*
X16160257Y-12285364D01*
X16488828Y-12085364D02*
X16488828Y-12385364D01*
X16488828Y-12099650D02*
X16517400Y-12085364D01*
X16574543Y-12085364D01*
X16603114Y-12099650D01*
X16617400Y-12113936D01*
X16631686Y-12142507D01*
X16631686Y-12228221D01*
X16617400Y-12256793D01*
X16603114Y-12271079D01*
X16574543Y-12285364D01*
X16517400Y-12285364D01*
X16488828Y-12271079D01*
X16803114Y-12285364D02*
X16774543Y-12271079D01*
X16760257Y-12242507D01*
X16760257Y-11985364D01*
X17045971Y-12285364D02*
X17045971Y-12128221D01*
X17031686Y-12099650D01*
X17003114Y-12085364D01*
X16945971Y-12085364D01*
X16917400Y-12099650D01*
X17045971Y-12271079D02*
X17017400Y-12285364D01*
X16945971Y-12285364D01*
X16917400Y-12271079D01*
X16903114Y-12242507D01*
X16903114Y-12213936D01*
X16917400Y-12185364D01*
X16945971Y-12171079D01*
X17017400Y-12171079D01*
X17045971Y-12156793D01*
X17145971Y-12085364D02*
X17260257Y-12085364D01*
X17188828Y-11985364D02*
X17188828Y-12242507D01*
X17203114Y-12271079D01*
X17231686Y-12285364D01*
X17260257Y-12285364D01*
X17474543Y-12271079D02*
X17445971Y-12285364D01*
X17388828Y-12285364D01*
X17360257Y-12271079D01*
X17345971Y-12242507D01*
X17345971Y-12128221D01*
X17360257Y-12099650D01*
X17388828Y-12085364D01*
X17445971Y-12085364D01*
X17474543Y-12099650D01*
X17488828Y-12128221D01*
X17488828Y-12156793D01*
X17345971Y-12185364D01*
X17745971Y-12285364D02*
X17745971Y-11985364D01*
X17745971Y-12271079D02*
X17717400Y-12285364D01*
X17660257Y-12285364D01*
X17631686Y-12271079D01*
X17617400Y-12256793D01*
X17603114Y-12228221D01*
X17603114Y-12142507D01*
X17617400Y-12113936D01*
X17631686Y-12099650D01*
X17660257Y-12085364D01*
X17717400Y-12085364D01*
X17745971Y-12099650D01*
X17860257Y-12399650D02*
X17874543Y-12385364D01*
X17903114Y-12342507D01*
X17917400Y-12313936D01*
X17931686Y-12271079D01*
X17945971Y-12199650D01*
X17945971Y-12142507D01*
X17931686Y-12071079D01*
X17917400Y-12028221D01*
X17903114Y-11999650D01*
X17874543Y-11956793D01*
X17860257Y-11942507D01*
M02*
