%FSLAX45Y45*%
G04 Gerber Fmt 4.5, Leading zero omitted, Abs format (unit mm)*
G04 Created by KiCad (PCBNEW 5.0.1+dfsg1-2) date Fri 19 Oct 2018 12:08:07 CEST*
%MOMM*%
%LPD*%
G01*
G04 APERTURE LIST*
%ADD10C,0.100000*%
%ADD11C,0.200000*%
%ADD12C,0.300000*%
G04 APERTURE END LIST*
D10*
X8407400Y-5200650D02*
X8407400Y-10788650D01*
X13995400Y-10788650D02*
X8407400Y-10788650D01*
X13995400Y-5200650D02*
X13995400Y-10788650D01*
X8407400Y-5200650D02*
X13995400Y-5200650D01*
D11*
X8466380Y-5365040D02*
X8536380Y-5435040D01*
X8536380Y-5365040D02*
X8466380Y-5435040D01*
X8466380Y-5629200D02*
X8536380Y-5699200D01*
X8536380Y-5629200D02*
X8466380Y-5699200D01*
X8466380Y-5923840D02*
X8536380Y-5993840D01*
X8536380Y-5923840D02*
X8466380Y-5993840D01*
X8466380Y-6223560D02*
X8536380Y-6293560D01*
X8536380Y-6223560D02*
X8466380Y-6293560D01*
X8484222Y-6357376D02*
X8554222Y-6427376D01*
X8554222Y-6357376D02*
X8484222Y-6427376D01*
X8587792Y-9153704D02*
X8657792Y-9223704D01*
X8657792Y-9153704D02*
X8587792Y-9223704D01*
X8996224Y-10404908D02*
X9066224Y-10474908D01*
X9066224Y-10404908D02*
X8996224Y-10474908D01*
X9250732Y-5674920D02*
X9320732Y-5744920D01*
X9320732Y-5674920D02*
X9250732Y-5744920D01*
X9310676Y-7026200D02*
X9380676Y-7096200D01*
X9380676Y-7026200D02*
X9310676Y-7096200D01*
X9319820Y-9380780D02*
X9389820Y-9450780D01*
X9389820Y-9380780D02*
X9319820Y-9450780D01*
X9336584Y-6813856D02*
X9406584Y-6883856D01*
X9406584Y-6813856D02*
X9336584Y-6883856D01*
X9465964Y-6775310D02*
X9535964Y-6845310D01*
X9535964Y-6775310D02*
X9465964Y-6845310D01*
X9502067Y-10272953D02*
X9572067Y-10342953D01*
X9572067Y-10272953D02*
X9502067Y-10342953D01*
X9520480Y-9233460D02*
X9590480Y-9303460D01*
X9590480Y-9233460D02*
X9520480Y-9303460D01*
X9585504Y-7314236D02*
X9655504Y-7384236D01*
X9655504Y-7314236D02*
X9585504Y-7384236D01*
X9587536Y-7491782D02*
X9657536Y-7561782D01*
X9657536Y-7491782D02*
X9587536Y-7561782D01*
X9656624Y-9152688D02*
X9726624Y-9222688D01*
X9726624Y-9152688D02*
X9656624Y-9222688D01*
X9721140Y-9878620D02*
X9791140Y-9948620D01*
X9791140Y-9878620D02*
X9721140Y-9948620D01*
X9770162Y-8481366D02*
X9840162Y-8551366D01*
X9840162Y-8481366D02*
X9770162Y-8551366D01*
X9824772Y-9149176D02*
X9894772Y-9219176D01*
X9894772Y-9149176D02*
X9824772Y-9219176D01*
X9850680Y-10594392D02*
X9920680Y-10664392D01*
X9920680Y-10594392D02*
X9850680Y-10664392D01*
X9888780Y-7052108D02*
X9958780Y-7122108D01*
X9958780Y-7052108D02*
X9888780Y-7122108D01*
X9896400Y-9721140D02*
X9966400Y-9791140D01*
X9966400Y-9721140D02*
X9896400Y-9791140D01*
X9914468Y-9541571D02*
X9984468Y-9611571D01*
X9984468Y-9541571D02*
X9914468Y-9611571D01*
X10089440Y-10084360D02*
X10159440Y-10154360D01*
X10159440Y-10084360D02*
X10089440Y-10154360D01*
X10150908Y-6325160D02*
X10220908Y-6395160D01*
X10220908Y-6325160D02*
X10150908Y-6395160D01*
X10185960Y-7081064D02*
X10255960Y-7151064D01*
X10255960Y-7081064D02*
X10185960Y-7151064D01*
X10185960Y-9032292D02*
X10255960Y-9102292D01*
X10255960Y-9032292D02*
X10185960Y-9102292D01*
X10203232Y-6783376D02*
X10273232Y-6853376D01*
X10273232Y-6783376D02*
X10203232Y-6853376D01*
X10206280Y-6596940D02*
X10276280Y-6666940D01*
X10276280Y-6596940D02*
X10206280Y-6666940D01*
X10225076Y-10081312D02*
X10295076Y-10151312D01*
X10295076Y-10081312D02*
X10225076Y-10151312D01*
X10348520Y-9181136D02*
X10418520Y-9251136D01*
X10418520Y-9181136D02*
X10348520Y-9251136D01*
X10386620Y-5731860D02*
X10456620Y-5801860D01*
X10456620Y-5731860D02*
X10386620Y-5801860D01*
X10521600Y-5734208D02*
X10591600Y-5804208D01*
X10591600Y-5734208D02*
X10521600Y-5804208D01*
X10535972Y-9473236D02*
X10605972Y-9543236D01*
X10605972Y-9473236D02*
X10535972Y-9543236D01*
X10633000Y-6001564D02*
X10703000Y-6071564D01*
X10703000Y-6001564D02*
X10633000Y-6071564D01*
X10706152Y-7082080D02*
X10776152Y-7152080D01*
X10776152Y-7082080D02*
X10706152Y-7152080D01*
X10782846Y-5563505D02*
X10852846Y-5633505D01*
X10852846Y-5563505D02*
X10782846Y-5633505D01*
X10882936Y-6114340D02*
X10952936Y-6184340D01*
X10952936Y-6114340D02*
X10882936Y-6184340D01*
X11397540Y-7819950D02*
X11467540Y-7889950D01*
X11467540Y-7819950D02*
X11397540Y-7889950D01*
X11448340Y-8486700D02*
X11518340Y-8556700D01*
X11518340Y-8486700D02*
X11448340Y-8556700D01*
X11666780Y-9737650D02*
X11736780Y-9807650D01*
X11736780Y-9737650D02*
X11666780Y-9807650D01*
X11690656Y-7663232D02*
X11760656Y-7733232D01*
X11760656Y-7663232D02*
X11690656Y-7733232D01*
X11692180Y-9197900D02*
X11762180Y-9267900D01*
X11762180Y-9197900D02*
X11692180Y-9267900D01*
X11697573Y-9368393D02*
X11767573Y-9438393D01*
X11767573Y-9368393D02*
X11697573Y-9438393D01*
X11727740Y-8366050D02*
X11797740Y-8436050D01*
X11797740Y-8366050D02*
X11727740Y-8436050D01*
X11764316Y-8122718D02*
X11834316Y-8192718D01*
X11834316Y-8122718D02*
X11764316Y-8192718D01*
X11908080Y-9483650D02*
X11978080Y-9553650D01*
X11978080Y-9483650D02*
X11908080Y-9553650D01*
X11915700Y-10165132D02*
X11985700Y-10235132D01*
X11985700Y-10165132D02*
X11915700Y-10235132D01*
X11920272Y-8738160D02*
X11990272Y-8808160D01*
X11990272Y-8738160D02*
X11920272Y-8808160D01*
X12045240Y-6188000D02*
X12115240Y-6258000D01*
X12115240Y-6188000D02*
X12045240Y-6258000D01*
X12155730Y-9261400D02*
X12225730Y-9331400D01*
X12225730Y-9261400D02*
X12155730Y-9331400D01*
X12217452Y-7867956D02*
X12287452Y-7937956D01*
X12287452Y-7867956D02*
X12217452Y-7937956D01*
X12528348Y-6524804D02*
X12598348Y-6594804D01*
X12598348Y-6524804D02*
X12528348Y-6594804D01*
X12733580Y-5695240D02*
X12803580Y-5765240D01*
X12803580Y-5695240D02*
X12733580Y-5765240D01*
X12878360Y-6061000D02*
X12948360Y-6131000D01*
X12948360Y-6061000D02*
X12878360Y-6131000D01*
X13061240Y-6055920D02*
X13131240Y-6125920D01*
X13131240Y-6055920D02*
X13061240Y-6125920D01*
X13433096Y-5686096D02*
X13503096Y-5756096D01*
X13503096Y-5686096D02*
X13433096Y-5756096D01*
X10760000Y-6588050D02*
X10830000Y-6658050D01*
X10830000Y-6588050D02*
X10760000Y-6658050D01*
X13498120Y-6238800D02*
X13568120Y-6308800D01*
X13568120Y-6238800D02*
X13498120Y-6308800D01*
X10914940Y-8347000D02*
X10984940Y-8417000D01*
X10984940Y-8347000D02*
X10914940Y-8417000D01*
X10676180Y-9610650D02*
X10746180Y-9680650D01*
X10746180Y-9610650D02*
X10676180Y-9680650D01*
X9040420Y-6223560D02*
X9110420Y-6293560D01*
X9110420Y-6223560D02*
X9040420Y-6293560D01*
X9040420Y-5365040D02*
X9110420Y-5435040D01*
X9110420Y-5365040D02*
X9040420Y-5435040D01*
X10676180Y-9864650D02*
X10746180Y-9934650D01*
X10746180Y-9864650D02*
X10676180Y-9934650D01*
X10391700Y-6308650D02*
X10461700Y-6378650D01*
X10461700Y-6308650D02*
X10391700Y-6378650D01*
X9040420Y-5923840D02*
X9110420Y-5993840D01*
X9110420Y-5923840D02*
X9040420Y-5993840D01*
X10686340Y-8213650D02*
X10756340Y-8283650D01*
X10756340Y-8213650D02*
X10686340Y-8283650D01*
X11163352Y-7342684D02*
X11233352Y-7412684D01*
X11233352Y-7342684D02*
X11163352Y-7412684D01*
X10452152Y-7947712D02*
X10522152Y-8017712D01*
X10522152Y-7947712D02*
X10452152Y-8017712D01*
X12484660Y-5385360D02*
X12554660Y-5455360D01*
X12554660Y-5385360D02*
X12484660Y-5455360D01*
X9514130Y-5834940D02*
X9584130Y-5904940D01*
X9584130Y-5834940D02*
X9514130Y-5904940D01*
X10686340Y-8474000D02*
X10756340Y-8544000D01*
X10756340Y-8474000D02*
X10686340Y-8544000D01*
X10396780Y-10508540D02*
X10466780Y-10578540D01*
X10466780Y-10508540D02*
X10396780Y-10578540D01*
X10898430Y-9737650D02*
X10968430Y-9807650D01*
X10968430Y-9737650D02*
X10898430Y-9807650D01*
X10887000Y-6861100D02*
X10957000Y-6931100D01*
X10957000Y-6861100D02*
X10887000Y-6931100D01*
X10898430Y-9991650D02*
X10968430Y-10061650D01*
X10968430Y-9991650D02*
X10898430Y-10061650D01*
X10914940Y-8607350D02*
X10984940Y-8677350D01*
X10984940Y-8607350D02*
X10914940Y-8677350D01*
X9040420Y-5629200D02*
X9110420Y-5699200D01*
X9110420Y-5629200D02*
X9040420Y-5699200D01*
X12725300Y-7137400D02*
G75*
G03X12725300Y-7137400I-38000J0D01*
G01*
X12725300Y-7391400D02*
G75*
G03X12725300Y-7391400I-38000J0D01*
G01*
X12725300Y-7645400D02*
G75*
G03X12725300Y-7645400I-38000J0D01*
G01*
X12725300Y-7899400D02*
G75*
G03X12725300Y-7899400I-38000J0D01*
G01*
X12979300Y-7264400D02*
G75*
G03X12979300Y-7264400I-38000J0D01*
G01*
X12979300Y-7518400D02*
G75*
G03X12979300Y-7518400I-38000J0D01*
G01*
X12979300Y-7772400D02*
G75*
G03X12979300Y-7772400I-38000J0D01*
G01*
X12979300Y-8026400D02*
G75*
G03X12979300Y-8026400I-38000J0D01*
G01*
X12725300Y-9428480D02*
G75*
G03X12725300Y-9428480I-38000J0D01*
G01*
X12725300Y-9682480D02*
G75*
G03X12725300Y-9682480I-38000J0D01*
G01*
X12725300Y-9936480D02*
G75*
G03X12725300Y-9936480I-38000J0D01*
G01*
X12725300Y-10190480D02*
G75*
G03X12725300Y-10190480I-38000J0D01*
G01*
X12979300Y-9555480D02*
G75*
G03X12979300Y-9555480I-38000J0D01*
G01*
X12979300Y-9809480D02*
G75*
G03X12979300Y-9809480I-38000J0D01*
G01*
X12979300Y-10063480D02*
G75*
G03X12979300Y-10063480I-38000J0D01*
G01*
X12979300Y-10317480D02*
G75*
G03X12979300Y-10317480I-38000J0D01*
G01*
X11762740Y-5743740D02*
X11762740Y-5843740D01*
X11712740Y-5793740D02*
X11812740Y-5793740D01*
X11762740Y-5997740D02*
X11762740Y-6097740D01*
X11712740Y-6047740D02*
X11812740Y-6047740D01*
X10693400Y-5385600D02*
X10693400Y-5485600D01*
X10643400Y-5435600D02*
X10743400Y-5435600D01*
X11315700Y-5753900D02*
X11315700Y-5853900D01*
X11265700Y-5803900D02*
X11365700Y-5803900D01*
X11061700Y-5385600D02*
X11061700Y-5485600D01*
X11011700Y-5435600D02*
X11111700Y-5435600D01*
X11315700Y-5385600D02*
X11315700Y-5485600D01*
X11265700Y-5435600D02*
X11365700Y-5435600D01*
X11762740Y-5380520D02*
X11762740Y-5480520D01*
X11712740Y-5430520D02*
X11812740Y-5430520D01*
X12016740Y-5380520D02*
X12016740Y-5480520D01*
X11966740Y-5430520D02*
X12066740Y-5430520D01*
X9940544Y-8255292D02*
X9940544Y-8355292D01*
X9890544Y-8305292D02*
X9990544Y-8305292D01*
X8686800Y-6554000D02*
X8686800Y-6654000D01*
X8636800Y-6604000D02*
X8736800Y-6604000D01*
X8686800Y-6808000D02*
X8686800Y-6908000D01*
X8636800Y-6858000D02*
X8736800Y-6858000D01*
X8686800Y-7062000D02*
X8686800Y-7162000D01*
X8636800Y-7112000D02*
X8736800Y-7112000D01*
X8686800Y-7316000D02*
X8686800Y-7416000D01*
X8636800Y-7366000D02*
X8736800Y-7366000D01*
X8686800Y-7570000D02*
X8686800Y-7670000D01*
X8636800Y-7620000D02*
X8736800Y-7620000D01*
X8686800Y-7824000D02*
X8686800Y-7924000D01*
X8636800Y-7874000D02*
X8736800Y-7874000D01*
X8686800Y-8078000D02*
X8686800Y-8178000D01*
X8636800Y-8128000D02*
X8736800Y-8128000D01*
X8686800Y-8332000D02*
X8686800Y-8432000D01*
X8636800Y-8382000D02*
X8736800Y-8382000D01*
X8686800Y-8586000D02*
X8686800Y-8686000D01*
X8636800Y-8636000D02*
X8736800Y-8636000D01*
X8686800Y-8840000D02*
X8686800Y-8940000D01*
X8636800Y-8890000D02*
X8736800Y-8890000D01*
X8940800Y-6554000D02*
X8940800Y-6654000D01*
X8890800Y-6604000D02*
X8990800Y-6604000D01*
X8940800Y-6808000D02*
X8940800Y-6908000D01*
X8890800Y-6858000D02*
X8990800Y-6858000D01*
X8940800Y-7062000D02*
X8940800Y-7162000D01*
X8890800Y-7112000D02*
X8990800Y-7112000D01*
X8940800Y-7316000D02*
X8940800Y-7416000D01*
X8890800Y-7366000D02*
X8990800Y-7366000D01*
X8940800Y-7570000D02*
X8940800Y-7670000D01*
X8890800Y-7620000D02*
X8990800Y-7620000D01*
X8940800Y-7824000D02*
X8940800Y-7924000D01*
X8890800Y-7874000D02*
X8990800Y-7874000D01*
X8940800Y-8078000D02*
X8940800Y-8178000D01*
X8890800Y-8128000D02*
X8990800Y-8128000D01*
X8940800Y-8332000D02*
X8940800Y-8432000D01*
X8890800Y-8382000D02*
X8990800Y-8382000D01*
X8940800Y-8586000D02*
X8940800Y-8686000D01*
X8890800Y-8636000D02*
X8990800Y-8636000D01*
X8940800Y-8840000D02*
X8940800Y-8940000D01*
X8890800Y-8890000D02*
X8990800Y-8890000D01*
X13277850Y-8547900D02*
X13277850Y-8647900D01*
X13227850Y-8597900D02*
X13327850Y-8597900D01*
X13277850Y-8801900D02*
X13277850Y-8901900D01*
X13227850Y-8851900D02*
X13327850Y-8851900D01*
X13736320Y-8550440D02*
X13736320Y-8650440D01*
X13686320Y-8600440D02*
X13786320Y-8600440D01*
X13736320Y-8804440D02*
X13736320Y-8904440D01*
X13686320Y-8854440D02*
X13786320Y-8854440D01*
X9604756Y-5351564D02*
X9604756Y-5451564D01*
X9554756Y-5401564D02*
X9654756Y-5401564D01*
X9570104Y-7699922D02*
X9570104Y-7799922D01*
X9520104Y-7749922D02*
X9620104Y-7749922D01*
X9570104Y-7953922D02*
X9570104Y-8053922D01*
X9520104Y-8003922D02*
X9620104Y-8003922D01*
X9570104Y-8207922D02*
X9570104Y-8307922D01*
X9520104Y-8257922D02*
X9620104Y-8257922D01*
X9570104Y-8461922D02*
X9570104Y-8561922D01*
X9520104Y-8511922D02*
X9620104Y-8511922D01*
D12*
X8688828Y-11259364D02*
X8688828Y-10959364D01*
X8760257Y-10959364D01*
X8803114Y-10973650D01*
X8831686Y-11002222D01*
X8845971Y-11030793D01*
X8860257Y-11087936D01*
X8860257Y-11130793D01*
X8845971Y-11187936D01*
X8831686Y-11216507D01*
X8803114Y-11245079D01*
X8760257Y-11259364D01*
X8688828Y-11259364D01*
X8988828Y-11259364D02*
X8988828Y-11059364D01*
X8988828Y-11116507D02*
X9003114Y-11087936D01*
X9017400Y-11073650D01*
X9045971Y-11059364D01*
X9074543Y-11059364D01*
X9174543Y-11259364D02*
X9174543Y-11059364D01*
X9174543Y-10959364D02*
X9160257Y-10973650D01*
X9174543Y-10987936D01*
X9188828Y-10973650D01*
X9174543Y-10959364D01*
X9174543Y-10987936D01*
X9360257Y-11259364D02*
X9331686Y-11245079D01*
X9317400Y-11216507D01*
X9317400Y-10959364D01*
X9517400Y-11259364D02*
X9488828Y-11245079D01*
X9474543Y-11216507D01*
X9474543Y-10959364D01*
X9860257Y-11259364D02*
X9860257Y-10959364D01*
X9960257Y-11173650D01*
X10060257Y-10959364D01*
X10060257Y-11259364D01*
X10331686Y-11259364D02*
X10331686Y-11102222D01*
X10317400Y-11073650D01*
X10288828Y-11059364D01*
X10231686Y-11059364D01*
X10203114Y-11073650D01*
X10331686Y-11245079D02*
X10303114Y-11259364D01*
X10231686Y-11259364D01*
X10203114Y-11245079D01*
X10188828Y-11216507D01*
X10188828Y-11187936D01*
X10203114Y-11159364D01*
X10231686Y-11145079D01*
X10303114Y-11145079D01*
X10331686Y-11130793D01*
X10474543Y-11059364D02*
X10474543Y-11359364D01*
X10474543Y-11073650D02*
X10503114Y-11059364D01*
X10560257Y-11059364D01*
X10588828Y-11073650D01*
X10603114Y-11087936D01*
X10617400Y-11116507D01*
X10617400Y-11202221D01*
X10603114Y-11230793D01*
X10588828Y-11245079D01*
X10560257Y-11259364D01*
X10503114Y-11259364D01*
X10474543Y-11245079D01*
X10745971Y-11230793D02*
X10760257Y-11245079D01*
X10745971Y-11259364D01*
X10731686Y-11245079D01*
X10745971Y-11230793D01*
X10745971Y-11259364D01*
X10745971Y-11073650D02*
X10760257Y-11087936D01*
X10745971Y-11102222D01*
X10731686Y-11087936D01*
X10745971Y-11073650D01*
X10745971Y-11102222D01*
X8332400Y-11718650D02*
X8402400Y-11788650D01*
X8402400Y-11718650D02*
X8332400Y-11788650D01*
X8745971Y-11589364D02*
X8774543Y-11589364D01*
X8803114Y-11603650D01*
X8817400Y-11617936D01*
X8831686Y-11646507D01*
X8845971Y-11703650D01*
X8845971Y-11775079D01*
X8831686Y-11832221D01*
X8817400Y-11860793D01*
X8803114Y-11875079D01*
X8774543Y-11889364D01*
X8745971Y-11889364D01*
X8717400Y-11875079D01*
X8703114Y-11860793D01*
X8688828Y-11832221D01*
X8674543Y-11775079D01*
X8674543Y-11703650D01*
X8688828Y-11646507D01*
X8703114Y-11617936D01*
X8717400Y-11603650D01*
X8745971Y-11589364D01*
X8974543Y-11860793D02*
X8988828Y-11875079D01*
X8974543Y-11889364D01*
X8960257Y-11875079D01*
X8974543Y-11860793D01*
X8974543Y-11889364D01*
X9088828Y-11589364D02*
X9288828Y-11589364D01*
X9160257Y-11889364D01*
X9460257Y-11589364D02*
X9488828Y-11589364D01*
X9517400Y-11603650D01*
X9531686Y-11617936D01*
X9545971Y-11646507D01*
X9560257Y-11703650D01*
X9560257Y-11775079D01*
X9545971Y-11832221D01*
X9531686Y-11860793D01*
X9517400Y-11875079D01*
X9488828Y-11889364D01*
X9460257Y-11889364D01*
X9431686Y-11875079D01*
X9417400Y-11860793D01*
X9403114Y-11832221D01*
X9388828Y-11775079D01*
X9388828Y-11703650D01*
X9403114Y-11646507D01*
X9417400Y-11617936D01*
X9431686Y-11603650D01*
X9460257Y-11589364D01*
X9688828Y-11889364D02*
X9688828Y-11689364D01*
X9688828Y-11717936D02*
X9703114Y-11703650D01*
X9731686Y-11689364D01*
X9774543Y-11689364D01*
X9803114Y-11703650D01*
X9817400Y-11732221D01*
X9817400Y-11889364D01*
X9817400Y-11732221D02*
X9831686Y-11703650D01*
X9860257Y-11689364D01*
X9903114Y-11689364D01*
X9931686Y-11703650D01*
X9945971Y-11732221D01*
X9945971Y-11889364D01*
X10088828Y-11889364D02*
X10088828Y-11689364D01*
X10088828Y-11717936D02*
X10103114Y-11703650D01*
X10131686Y-11689364D01*
X10174543Y-11689364D01*
X10203114Y-11703650D01*
X10217400Y-11732221D01*
X10217400Y-11889364D01*
X10217400Y-11732221D02*
X10231686Y-11703650D01*
X10260257Y-11689364D01*
X10303114Y-11689364D01*
X10331686Y-11703650D01*
X10345971Y-11732221D01*
X10345971Y-11889364D01*
X10931686Y-11575079D02*
X10674543Y-11960793D01*
X11317400Y-11589364D02*
X11345971Y-11589364D01*
X11374543Y-11603650D01*
X11388828Y-11617936D01*
X11403114Y-11646507D01*
X11417400Y-11703650D01*
X11417400Y-11775079D01*
X11403114Y-11832221D01*
X11388828Y-11860793D01*
X11374543Y-11875079D01*
X11345971Y-11889364D01*
X11317400Y-11889364D01*
X11288828Y-11875079D01*
X11274543Y-11860793D01*
X11260257Y-11832221D01*
X11245971Y-11775079D01*
X11245971Y-11703650D01*
X11260257Y-11646507D01*
X11274543Y-11617936D01*
X11288828Y-11603650D01*
X11317400Y-11589364D01*
X11545971Y-11860793D02*
X11560257Y-11875079D01*
X11545971Y-11889364D01*
X11531686Y-11875079D01*
X11545971Y-11860793D01*
X11545971Y-11889364D01*
X11745971Y-11589364D02*
X11774543Y-11589364D01*
X11803114Y-11603650D01*
X11817400Y-11617936D01*
X11831686Y-11646507D01*
X11845971Y-11703650D01*
X11845971Y-11775079D01*
X11831686Y-11832221D01*
X11817400Y-11860793D01*
X11803114Y-11875079D01*
X11774543Y-11889364D01*
X11745971Y-11889364D01*
X11717400Y-11875079D01*
X11703114Y-11860793D01*
X11688828Y-11832221D01*
X11674543Y-11775079D01*
X11674543Y-11703650D01*
X11688828Y-11646507D01*
X11703114Y-11617936D01*
X11717400Y-11603650D01*
X11745971Y-11589364D01*
X11960257Y-11617936D02*
X11974543Y-11603650D01*
X12003114Y-11589364D01*
X12074543Y-11589364D01*
X12103114Y-11603650D01*
X12117400Y-11617936D01*
X12131686Y-11646507D01*
X12131686Y-11675079D01*
X12117400Y-11717936D01*
X11945971Y-11889364D01*
X12131686Y-11889364D01*
X12303114Y-11717936D02*
X12274543Y-11703650D01*
X12260257Y-11689364D01*
X12245971Y-11660793D01*
X12245971Y-11646507D01*
X12260257Y-11617936D01*
X12274543Y-11603650D01*
X12303114Y-11589364D01*
X12360257Y-11589364D01*
X12388828Y-11603650D01*
X12403114Y-11617936D01*
X12417400Y-11646507D01*
X12417400Y-11660793D01*
X12403114Y-11689364D01*
X12388828Y-11703650D01*
X12360257Y-11717936D01*
X12303114Y-11717936D01*
X12274543Y-11732221D01*
X12260257Y-11746507D01*
X12245971Y-11775079D01*
X12245971Y-11832221D01*
X12260257Y-11860793D01*
X12274543Y-11875079D01*
X12303114Y-11889364D01*
X12360257Y-11889364D01*
X12388828Y-11875079D01*
X12403114Y-11860793D01*
X12417400Y-11832221D01*
X12417400Y-11775079D01*
X12403114Y-11746507D01*
X12388828Y-11732221D01*
X12360257Y-11717936D01*
X12531686Y-11589364D02*
X12531686Y-11646507D01*
X12645971Y-11589364D02*
X12645971Y-11646507D01*
X13088828Y-12003650D02*
X13074543Y-11989364D01*
X13045971Y-11946507D01*
X13031686Y-11917936D01*
X13017400Y-11875079D01*
X13003114Y-11803650D01*
X13003114Y-11746507D01*
X13017400Y-11675079D01*
X13031686Y-11632221D01*
X13045971Y-11603650D01*
X13074543Y-11560793D01*
X13088828Y-11546507D01*
X13174543Y-11589364D02*
X13374543Y-11589364D01*
X13245971Y-11889364D01*
X13503114Y-11889364D02*
X13560257Y-11889364D01*
X13588828Y-11875079D01*
X13603114Y-11860793D01*
X13631686Y-11817936D01*
X13645971Y-11760793D01*
X13645971Y-11646507D01*
X13631686Y-11617936D01*
X13617400Y-11603650D01*
X13588828Y-11589364D01*
X13531686Y-11589364D01*
X13503114Y-11603650D01*
X13488828Y-11617936D01*
X13474543Y-11646507D01*
X13474543Y-11717936D01*
X13488828Y-11746507D01*
X13503114Y-11760793D01*
X13531686Y-11775079D01*
X13588828Y-11775079D01*
X13617400Y-11760793D01*
X13631686Y-11746507D01*
X13645971Y-11717936D01*
X14003114Y-11889364D02*
X14003114Y-11589364D01*
X14131686Y-11889364D02*
X14131686Y-11732221D01*
X14117400Y-11703650D01*
X14088828Y-11689364D01*
X14045971Y-11689364D01*
X14017400Y-11703650D01*
X14003114Y-11717936D01*
X14317400Y-11889364D02*
X14288828Y-11875079D01*
X14274543Y-11860793D01*
X14260257Y-11832221D01*
X14260257Y-11746507D01*
X14274543Y-11717936D01*
X14288828Y-11703650D01*
X14317400Y-11689364D01*
X14360257Y-11689364D01*
X14388828Y-11703650D01*
X14403114Y-11717936D01*
X14417400Y-11746507D01*
X14417400Y-11832221D01*
X14403114Y-11860793D01*
X14388828Y-11875079D01*
X14360257Y-11889364D01*
X14317400Y-11889364D01*
X14588828Y-11889364D02*
X14560257Y-11875079D01*
X14545971Y-11846507D01*
X14545971Y-11589364D01*
X14817400Y-11875079D02*
X14788828Y-11889364D01*
X14731686Y-11889364D01*
X14703114Y-11875079D01*
X14688828Y-11846507D01*
X14688828Y-11732221D01*
X14703114Y-11703650D01*
X14731686Y-11689364D01*
X14788828Y-11689364D01*
X14817400Y-11703650D01*
X14831686Y-11732221D01*
X14831686Y-11760793D01*
X14688828Y-11789364D01*
X14945971Y-11875079D02*
X14974543Y-11889364D01*
X15031686Y-11889364D01*
X15060257Y-11875079D01*
X15074543Y-11846507D01*
X15074543Y-11832221D01*
X15060257Y-11803650D01*
X15031686Y-11789364D01*
X14988828Y-11789364D01*
X14960257Y-11775079D01*
X14945971Y-11746507D01*
X14945971Y-11732221D01*
X14960257Y-11703650D01*
X14988828Y-11689364D01*
X15031686Y-11689364D01*
X15060257Y-11703650D01*
X15174543Y-12003650D02*
X15188828Y-11989364D01*
X15217400Y-11946507D01*
X15231686Y-11917936D01*
X15245971Y-11875079D01*
X15260257Y-11803650D01*
X15260257Y-11746507D01*
X15245971Y-11675079D01*
X15231686Y-11632221D01*
X15217400Y-11603650D01*
X15188828Y-11560793D01*
X15174543Y-11546507D01*
X8402400Y-12149650D02*
G75*
G03X8402400Y-12149650I-38000J0D01*
G01*
X8745971Y-11985364D02*
X8774543Y-11985364D01*
X8803114Y-11999650D01*
X8817400Y-12013936D01*
X8831686Y-12042507D01*
X8845971Y-12099650D01*
X8845971Y-12171079D01*
X8831686Y-12228221D01*
X8817400Y-12256793D01*
X8803114Y-12271079D01*
X8774543Y-12285364D01*
X8745971Y-12285364D01*
X8717400Y-12271079D01*
X8703114Y-12256793D01*
X8688828Y-12228221D01*
X8674543Y-12171079D01*
X8674543Y-12099650D01*
X8688828Y-12042507D01*
X8703114Y-12013936D01*
X8717400Y-11999650D01*
X8745971Y-11985364D01*
X8974543Y-12256793D02*
X8988828Y-12271079D01*
X8974543Y-12285364D01*
X8960257Y-12271079D01*
X8974543Y-12256793D01*
X8974543Y-12285364D01*
X9088828Y-11985364D02*
X9288828Y-11985364D01*
X9160257Y-12285364D01*
X9531686Y-11985364D02*
X9474543Y-11985364D01*
X9445971Y-11999650D01*
X9431686Y-12013936D01*
X9403114Y-12056793D01*
X9388828Y-12113936D01*
X9388828Y-12228221D01*
X9403114Y-12256793D01*
X9417400Y-12271079D01*
X9445971Y-12285364D01*
X9503114Y-12285364D01*
X9531686Y-12271079D01*
X9545971Y-12256793D01*
X9560257Y-12228221D01*
X9560257Y-12156793D01*
X9545971Y-12128221D01*
X9531686Y-12113936D01*
X9503114Y-12099650D01*
X9445971Y-12099650D01*
X9417400Y-12113936D01*
X9403114Y-12128221D01*
X9388828Y-12156793D01*
X9688828Y-12285364D02*
X9688828Y-12085364D01*
X9688828Y-12113936D02*
X9703114Y-12099650D01*
X9731686Y-12085364D01*
X9774543Y-12085364D01*
X9803114Y-12099650D01*
X9817400Y-12128221D01*
X9817400Y-12285364D01*
X9817400Y-12128221D02*
X9831686Y-12099650D01*
X9860257Y-12085364D01*
X9903114Y-12085364D01*
X9931686Y-12099650D01*
X9945971Y-12128221D01*
X9945971Y-12285364D01*
X10088828Y-12285364D02*
X10088828Y-12085364D01*
X10088828Y-12113936D02*
X10103114Y-12099650D01*
X10131686Y-12085364D01*
X10174543Y-12085364D01*
X10203114Y-12099650D01*
X10217400Y-12128221D01*
X10217400Y-12285364D01*
X10217400Y-12128221D02*
X10231686Y-12099650D01*
X10260257Y-12085364D01*
X10303114Y-12085364D01*
X10331686Y-12099650D01*
X10345971Y-12128221D01*
X10345971Y-12285364D01*
X10931686Y-11971079D02*
X10674543Y-12356793D01*
X11317400Y-11985364D02*
X11345971Y-11985364D01*
X11374543Y-11999650D01*
X11388828Y-12013936D01*
X11403114Y-12042507D01*
X11417400Y-12099650D01*
X11417400Y-12171079D01*
X11403114Y-12228221D01*
X11388828Y-12256793D01*
X11374543Y-12271079D01*
X11345971Y-12285364D01*
X11317400Y-12285364D01*
X11288828Y-12271079D01*
X11274543Y-12256793D01*
X11260257Y-12228221D01*
X11245971Y-12171079D01*
X11245971Y-12099650D01*
X11260257Y-12042507D01*
X11274543Y-12013936D01*
X11288828Y-11999650D01*
X11317400Y-11985364D01*
X11545971Y-12256793D02*
X11560257Y-12271079D01*
X11545971Y-12285364D01*
X11531686Y-12271079D01*
X11545971Y-12256793D01*
X11545971Y-12285364D01*
X11745971Y-11985364D02*
X11774543Y-11985364D01*
X11803114Y-11999650D01*
X11817400Y-12013936D01*
X11831686Y-12042507D01*
X11845971Y-12099650D01*
X11845971Y-12171079D01*
X11831686Y-12228221D01*
X11817400Y-12256793D01*
X11803114Y-12271079D01*
X11774543Y-12285364D01*
X11745971Y-12285364D01*
X11717400Y-12271079D01*
X11703114Y-12256793D01*
X11688828Y-12228221D01*
X11674543Y-12171079D01*
X11674543Y-12099650D01*
X11688828Y-12042507D01*
X11703114Y-12013936D01*
X11717400Y-11999650D01*
X11745971Y-11985364D01*
X11945971Y-11985364D02*
X12131686Y-11985364D01*
X12031686Y-12099650D01*
X12074543Y-12099650D01*
X12103114Y-12113936D01*
X12117400Y-12128221D01*
X12131686Y-12156793D01*
X12131686Y-12228221D01*
X12117400Y-12256793D01*
X12103114Y-12271079D01*
X12074543Y-12285364D01*
X11988828Y-12285364D01*
X11960257Y-12271079D01*
X11945971Y-12256793D01*
X12317400Y-11985364D02*
X12345971Y-11985364D01*
X12374543Y-11999650D01*
X12388828Y-12013936D01*
X12403114Y-12042507D01*
X12417400Y-12099650D01*
X12417400Y-12171079D01*
X12403114Y-12228221D01*
X12388828Y-12256793D01*
X12374543Y-12271079D01*
X12345971Y-12285364D01*
X12317400Y-12285364D01*
X12288828Y-12271079D01*
X12274543Y-12256793D01*
X12260257Y-12228221D01*
X12245971Y-12171079D01*
X12245971Y-12099650D01*
X12260257Y-12042507D01*
X12274543Y-12013936D01*
X12288828Y-11999650D01*
X12317400Y-11985364D01*
X12531686Y-11985364D02*
X12531686Y-12042507D01*
X12645971Y-11985364D02*
X12645971Y-12042507D01*
X13088828Y-12399650D02*
X13074543Y-12385364D01*
X13045971Y-12342507D01*
X13031686Y-12313936D01*
X13017400Y-12271079D01*
X13003114Y-12199650D01*
X13003114Y-12142507D01*
X13017400Y-12071079D01*
X13031686Y-12028221D01*
X13045971Y-11999650D01*
X13074543Y-11956793D01*
X13088828Y-11942507D01*
X13360257Y-12285364D02*
X13188828Y-12285364D01*
X13274543Y-12285364D02*
X13274543Y-11985364D01*
X13245971Y-12028221D01*
X13217400Y-12056793D01*
X13188828Y-12071079D01*
X13617400Y-11985364D02*
X13560257Y-11985364D01*
X13531686Y-11999650D01*
X13517400Y-12013936D01*
X13488828Y-12056793D01*
X13474543Y-12113936D01*
X13474543Y-12228221D01*
X13488828Y-12256793D01*
X13503114Y-12271079D01*
X13531686Y-12285364D01*
X13588828Y-12285364D01*
X13617400Y-12271079D01*
X13631686Y-12256793D01*
X13645971Y-12228221D01*
X13645971Y-12156793D01*
X13631686Y-12128221D01*
X13617400Y-12113936D01*
X13588828Y-12099650D01*
X13531686Y-12099650D01*
X13503114Y-12113936D01*
X13488828Y-12128221D01*
X13474543Y-12156793D01*
X14003114Y-12285364D02*
X14003114Y-11985364D01*
X14131686Y-12285364D02*
X14131686Y-12128221D01*
X14117400Y-12099650D01*
X14088828Y-12085364D01*
X14045971Y-12085364D01*
X14017400Y-12099650D01*
X14003114Y-12113936D01*
X14317400Y-12285364D02*
X14288828Y-12271079D01*
X14274543Y-12256793D01*
X14260257Y-12228221D01*
X14260257Y-12142507D01*
X14274543Y-12113936D01*
X14288828Y-12099650D01*
X14317400Y-12085364D01*
X14360257Y-12085364D01*
X14388828Y-12099650D01*
X14403114Y-12113936D01*
X14417400Y-12142507D01*
X14417400Y-12228221D01*
X14403114Y-12256793D01*
X14388828Y-12271079D01*
X14360257Y-12285364D01*
X14317400Y-12285364D01*
X14588828Y-12285364D02*
X14560257Y-12271079D01*
X14545971Y-12242507D01*
X14545971Y-11985364D01*
X14817400Y-12271079D02*
X14788828Y-12285364D01*
X14731686Y-12285364D01*
X14703114Y-12271079D01*
X14688828Y-12242507D01*
X14688828Y-12128221D01*
X14703114Y-12099650D01*
X14731686Y-12085364D01*
X14788828Y-12085364D01*
X14817400Y-12099650D01*
X14831686Y-12128221D01*
X14831686Y-12156793D01*
X14688828Y-12185364D01*
X14945971Y-12271079D02*
X14974543Y-12285364D01*
X15031686Y-12285364D01*
X15060257Y-12271079D01*
X15074543Y-12242507D01*
X15074543Y-12228221D01*
X15060257Y-12199650D01*
X15031686Y-12185364D01*
X14988828Y-12185364D01*
X14960257Y-12171079D01*
X14945971Y-12142507D01*
X14945971Y-12128221D01*
X14960257Y-12099650D01*
X14988828Y-12085364D01*
X15031686Y-12085364D01*
X15060257Y-12099650D01*
X15174543Y-12399650D02*
X15188828Y-12385364D01*
X15217400Y-12342507D01*
X15231686Y-12313936D01*
X15245971Y-12271079D01*
X15260257Y-12199650D01*
X15260257Y-12142507D01*
X15245971Y-12071079D01*
X15231686Y-12028221D01*
X15217400Y-11999650D01*
X15188828Y-11956793D01*
X15174543Y-11942507D01*
X8352400Y-12495650D02*
X8352400Y-12595650D01*
X8302400Y-12545650D02*
X8402400Y-12545650D01*
X8845971Y-12681364D02*
X8674543Y-12681364D01*
X8760257Y-12681364D02*
X8760257Y-12381364D01*
X8731686Y-12424221D01*
X8703114Y-12452793D01*
X8674543Y-12467079D01*
X8974543Y-12652793D02*
X8988828Y-12667079D01*
X8974543Y-12681364D01*
X8960257Y-12667079D01*
X8974543Y-12652793D01*
X8974543Y-12681364D01*
X9174543Y-12381364D02*
X9203114Y-12381364D01*
X9231686Y-12395650D01*
X9245971Y-12409936D01*
X9260257Y-12438507D01*
X9274543Y-12495650D01*
X9274543Y-12567079D01*
X9260257Y-12624221D01*
X9245971Y-12652793D01*
X9231686Y-12667079D01*
X9203114Y-12681364D01*
X9174543Y-12681364D01*
X9145971Y-12667079D01*
X9131686Y-12652793D01*
X9117400Y-12624221D01*
X9103114Y-12567079D01*
X9103114Y-12495650D01*
X9117400Y-12438507D01*
X9131686Y-12409936D01*
X9145971Y-12395650D01*
X9174543Y-12381364D01*
X9460257Y-12381364D02*
X9488828Y-12381364D01*
X9517400Y-12395650D01*
X9531686Y-12409936D01*
X9545971Y-12438507D01*
X9560257Y-12495650D01*
X9560257Y-12567079D01*
X9545971Y-12624221D01*
X9531686Y-12652793D01*
X9517400Y-12667079D01*
X9488828Y-12681364D01*
X9460257Y-12681364D01*
X9431686Y-12667079D01*
X9417400Y-12652793D01*
X9403114Y-12624221D01*
X9388828Y-12567079D01*
X9388828Y-12495650D01*
X9403114Y-12438507D01*
X9417400Y-12409936D01*
X9431686Y-12395650D01*
X9460257Y-12381364D01*
X9688828Y-12681364D02*
X9688828Y-12481364D01*
X9688828Y-12509936D02*
X9703114Y-12495650D01*
X9731686Y-12481364D01*
X9774543Y-12481364D01*
X9803114Y-12495650D01*
X9817400Y-12524221D01*
X9817400Y-12681364D01*
X9817400Y-12524221D02*
X9831686Y-12495650D01*
X9860257Y-12481364D01*
X9903114Y-12481364D01*
X9931686Y-12495650D01*
X9945971Y-12524221D01*
X9945971Y-12681364D01*
X10088828Y-12681364D02*
X10088828Y-12481364D01*
X10088828Y-12509936D02*
X10103114Y-12495650D01*
X10131686Y-12481364D01*
X10174543Y-12481364D01*
X10203114Y-12495650D01*
X10217400Y-12524221D01*
X10217400Y-12681364D01*
X10217400Y-12524221D02*
X10231686Y-12495650D01*
X10260257Y-12481364D01*
X10303114Y-12481364D01*
X10331686Y-12495650D01*
X10345971Y-12524221D01*
X10345971Y-12681364D01*
X10931686Y-12367079D02*
X10674543Y-12752793D01*
X11317400Y-12381364D02*
X11345971Y-12381364D01*
X11374543Y-12395650D01*
X11388828Y-12409936D01*
X11403114Y-12438507D01*
X11417400Y-12495650D01*
X11417400Y-12567079D01*
X11403114Y-12624221D01*
X11388828Y-12652793D01*
X11374543Y-12667079D01*
X11345971Y-12681364D01*
X11317400Y-12681364D01*
X11288828Y-12667079D01*
X11274543Y-12652793D01*
X11260257Y-12624221D01*
X11245971Y-12567079D01*
X11245971Y-12495650D01*
X11260257Y-12438507D01*
X11274543Y-12409936D01*
X11288828Y-12395650D01*
X11317400Y-12381364D01*
X11545971Y-12652793D02*
X11560257Y-12667079D01*
X11545971Y-12681364D01*
X11531686Y-12667079D01*
X11545971Y-12652793D01*
X11545971Y-12681364D01*
X11745971Y-12381364D02*
X11774543Y-12381364D01*
X11803114Y-12395650D01*
X11817400Y-12409936D01*
X11831686Y-12438507D01*
X11845971Y-12495650D01*
X11845971Y-12567079D01*
X11831686Y-12624221D01*
X11817400Y-12652793D01*
X11803114Y-12667079D01*
X11774543Y-12681364D01*
X11745971Y-12681364D01*
X11717400Y-12667079D01*
X11703114Y-12652793D01*
X11688828Y-12624221D01*
X11674543Y-12567079D01*
X11674543Y-12495650D01*
X11688828Y-12438507D01*
X11703114Y-12409936D01*
X11717400Y-12395650D01*
X11745971Y-12381364D01*
X11945971Y-12381364D02*
X12131686Y-12381364D01*
X12031686Y-12495650D01*
X12074543Y-12495650D01*
X12103114Y-12509936D01*
X12117400Y-12524221D01*
X12131686Y-12552793D01*
X12131686Y-12624221D01*
X12117400Y-12652793D01*
X12103114Y-12667079D01*
X12074543Y-12681364D01*
X11988828Y-12681364D01*
X11960257Y-12667079D01*
X11945971Y-12652793D01*
X12274543Y-12681364D02*
X12331686Y-12681364D01*
X12360257Y-12667079D01*
X12374543Y-12652793D01*
X12403114Y-12609936D01*
X12417400Y-12552793D01*
X12417400Y-12438507D01*
X12403114Y-12409936D01*
X12388828Y-12395650D01*
X12360257Y-12381364D01*
X12303114Y-12381364D01*
X12274543Y-12395650D01*
X12260257Y-12409936D01*
X12245971Y-12438507D01*
X12245971Y-12509936D01*
X12260257Y-12538507D01*
X12274543Y-12552793D01*
X12303114Y-12567079D01*
X12360257Y-12567079D01*
X12388828Y-12552793D01*
X12403114Y-12538507D01*
X12417400Y-12509936D01*
X12531686Y-12381364D02*
X12531686Y-12438507D01*
X12645971Y-12381364D02*
X12645971Y-12438507D01*
X13088828Y-12795650D02*
X13074543Y-12781364D01*
X13045971Y-12738507D01*
X13031686Y-12709936D01*
X13017400Y-12667079D01*
X13003114Y-12595650D01*
X13003114Y-12538507D01*
X13017400Y-12467079D01*
X13031686Y-12424221D01*
X13045971Y-12395650D01*
X13074543Y-12352793D01*
X13088828Y-12338507D01*
X13174543Y-12381364D02*
X13360257Y-12381364D01*
X13260257Y-12495650D01*
X13303114Y-12495650D01*
X13331686Y-12509936D01*
X13345971Y-12524221D01*
X13360257Y-12552793D01*
X13360257Y-12624221D01*
X13345971Y-12652793D01*
X13331686Y-12667079D01*
X13303114Y-12681364D01*
X13217400Y-12681364D01*
X13188828Y-12667079D01*
X13174543Y-12652793D01*
X13531686Y-12509936D02*
X13503114Y-12495650D01*
X13488828Y-12481364D01*
X13474543Y-12452793D01*
X13474543Y-12438507D01*
X13488828Y-12409936D01*
X13503114Y-12395650D01*
X13531686Y-12381364D01*
X13588828Y-12381364D01*
X13617400Y-12395650D01*
X13631686Y-12409936D01*
X13645971Y-12438507D01*
X13645971Y-12452793D01*
X13631686Y-12481364D01*
X13617400Y-12495650D01*
X13588828Y-12509936D01*
X13531686Y-12509936D01*
X13503114Y-12524221D01*
X13488828Y-12538507D01*
X13474543Y-12567079D01*
X13474543Y-12624221D01*
X13488828Y-12652793D01*
X13503114Y-12667079D01*
X13531686Y-12681364D01*
X13588828Y-12681364D01*
X13617400Y-12667079D01*
X13631686Y-12652793D01*
X13645971Y-12624221D01*
X13645971Y-12567079D01*
X13631686Y-12538507D01*
X13617400Y-12524221D01*
X13588828Y-12509936D01*
X14003114Y-12681364D02*
X14003114Y-12381364D01*
X14131686Y-12681364D02*
X14131686Y-12524221D01*
X14117400Y-12495650D01*
X14088828Y-12481364D01*
X14045971Y-12481364D01*
X14017400Y-12495650D01*
X14003114Y-12509936D01*
X14317400Y-12681364D02*
X14288828Y-12667079D01*
X14274543Y-12652793D01*
X14260257Y-12624221D01*
X14260257Y-12538507D01*
X14274543Y-12509936D01*
X14288828Y-12495650D01*
X14317400Y-12481364D01*
X14360257Y-12481364D01*
X14388828Y-12495650D01*
X14403114Y-12509936D01*
X14417400Y-12538507D01*
X14417400Y-12624221D01*
X14403114Y-12652793D01*
X14388828Y-12667079D01*
X14360257Y-12681364D01*
X14317400Y-12681364D01*
X14588828Y-12681364D02*
X14560257Y-12667079D01*
X14545971Y-12638507D01*
X14545971Y-12381364D01*
X14817400Y-12667079D02*
X14788828Y-12681364D01*
X14731686Y-12681364D01*
X14703114Y-12667079D01*
X14688828Y-12638507D01*
X14688828Y-12524221D01*
X14703114Y-12495650D01*
X14731686Y-12481364D01*
X14788828Y-12481364D01*
X14817400Y-12495650D01*
X14831686Y-12524221D01*
X14831686Y-12552793D01*
X14688828Y-12581364D01*
X14945971Y-12667079D02*
X14974543Y-12681364D01*
X15031686Y-12681364D01*
X15060257Y-12667079D01*
X15074543Y-12638507D01*
X15074543Y-12624221D01*
X15060257Y-12595650D01*
X15031686Y-12581364D01*
X14988828Y-12581364D01*
X14960257Y-12567079D01*
X14945971Y-12538507D01*
X14945971Y-12524221D01*
X14960257Y-12495650D01*
X14988828Y-12481364D01*
X15031686Y-12481364D01*
X15060257Y-12495650D01*
X15174543Y-12795650D02*
X15188828Y-12781364D01*
X15217400Y-12738507D01*
X15231686Y-12709936D01*
X15245971Y-12667079D01*
X15260257Y-12595650D01*
X15260257Y-12538507D01*
X15245971Y-12467079D01*
X15231686Y-12424221D01*
X15217400Y-12395650D01*
X15188828Y-12352793D01*
X15174543Y-12338507D01*
M02*
