G04 #@! TF.GenerationSoftware,KiCad,Pcbnew,5.0.1+dfsg1-3*
G04 #@! TF.CreationDate,2018-11-04T01:21:10+01:00*
G04 #@! TF.ProjectId,stk3700_beesensors,73746B333730305F62656573656E736F,rev?*
G04 #@! TF.SameCoordinates,Original*
G04 #@! TF.FileFunction,Paste,Bot*
G04 #@! TF.FilePolarity,Positive*
%FSLAX46Y46*%
G04 Gerber Fmt 4.6, Leading zero omitted, Abs format (unit mm)*
G04 Created by KiCad (PCBNEW 5.0.1+dfsg1-3) date Sun 04 Nov 2018 01:21:10 CET*
%MOMM*%
%LPD*%
G01*
G04 APERTURE LIST*
%ADD10C,0.100000*%
%ADD11C,0.875000*%
%ADD12C,0.975000*%
%ADD13R,0.600000X1.550000*%
%ADD14R,1.200000X0.600000*%
%ADD15R,0.600000X1.200000*%
G04 APERTURE END LIST*
D10*
G04 #@! TO.C,C9*
G36*
X100963291Y-90368453D02*
X100984526Y-90371603D01*
X101005350Y-90376819D01*
X101025562Y-90384051D01*
X101044968Y-90393230D01*
X101063381Y-90404266D01*
X101080624Y-90417054D01*
X101096530Y-90431470D01*
X101110946Y-90447376D01*
X101123734Y-90464619D01*
X101134770Y-90483032D01*
X101143949Y-90502438D01*
X101151181Y-90522650D01*
X101156397Y-90543474D01*
X101159547Y-90564709D01*
X101160600Y-90586150D01*
X101160600Y-91023650D01*
X101159547Y-91045091D01*
X101156397Y-91066326D01*
X101151181Y-91087150D01*
X101143949Y-91107362D01*
X101134770Y-91126768D01*
X101123734Y-91145181D01*
X101110946Y-91162424D01*
X101096530Y-91178330D01*
X101080624Y-91192746D01*
X101063381Y-91205534D01*
X101044968Y-91216570D01*
X101025562Y-91225749D01*
X101005350Y-91232981D01*
X100984526Y-91238197D01*
X100963291Y-91241347D01*
X100941850Y-91242400D01*
X100429350Y-91242400D01*
X100407909Y-91241347D01*
X100386674Y-91238197D01*
X100365850Y-91232981D01*
X100345638Y-91225749D01*
X100326232Y-91216570D01*
X100307819Y-91205534D01*
X100290576Y-91192746D01*
X100274670Y-91178330D01*
X100260254Y-91162424D01*
X100247466Y-91145181D01*
X100236430Y-91126768D01*
X100227251Y-91107362D01*
X100220019Y-91087150D01*
X100214803Y-91066326D01*
X100211653Y-91045091D01*
X100210600Y-91023650D01*
X100210600Y-90586150D01*
X100211653Y-90564709D01*
X100214803Y-90543474D01*
X100220019Y-90522650D01*
X100227251Y-90502438D01*
X100236430Y-90483032D01*
X100247466Y-90464619D01*
X100260254Y-90447376D01*
X100274670Y-90431470D01*
X100290576Y-90417054D01*
X100307819Y-90404266D01*
X100326232Y-90393230D01*
X100345638Y-90384051D01*
X100365850Y-90376819D01*
X100386674Y-90371603D01*
X100407909Y-90368453D01*
X100429350Y-90367400D01*
X100941850Y-90367400D01*
X100963291Y-90368453D01*
X100963291Y-90368453D01*
G37*
D11*
X100685600Y-90804900D03*
D10*
G36*
X100963291Y-91943453D02*
X100984526Y-91946603D01*
X101005350Y-91951819D01*
X101025562Y-91959051D01*
X101044968Y-91968230D01*
X101063381Y-91979266D01*
X101080624Y-91992054D01*
X101096530Y-92006470D01*
X101110946Y-92022376D01*
X101123734Y-92039619D01*
X101134770Y-92058032D01*
X101143949Y-92077438D01*
X101151181Y-92097650D01*
X101156397Y-92118474D01*
X101159547Y-92139709D01*
X101160600Y-92161150D01*
X101160600Y-92598650D01*
X101159547Y-92620091D01*
X101156397Y-92641326D01*
X101151181Y-92662150D01*
X101143949Y-92682362D01*
X101134770Y-92701768D01*
X101123734Y-92720181D01*
X101110946Y-92737424D01*
X101096530Y-92753330D01*
X101080624Y-92767746D01*
X101063381Y-92780534D01*
X101044968Y-92791570D01*
X101025562Y-92800749D01*
X101005350Y-92807981D01*
X100984526Y-92813197D01*
X100963291Y-92816347D01*
X100941850Y-92817400D01*
X100429350Y-92817400D01*
X100407909Y-92816347D01*
X100386674Y-92813197D01*
X100365850Y-92807981D01*
X100345638Y-92800749D01*
X100326232Y-92791570D01*
X100307819Y-92780534D01*
X100290576Y-92767746D01*
X100274670Y-92753330D01*
X100260254Y-92737424D01*
X100247466Y-92720181D01*
X100236430Y-92701768D01*
X100227251Y-92682362D01*
X100220019Y-92662150D01*
X100214803Y-92641326D01*
X100211653Y-92620091D01*
X100210600Y-92598650D01*
X100210600Y-92161150D01*
X100211653Y-92139709D01*
X100214803Y-92118474D01*
X100220019Y-92097650D01*
X100227251Y-92077438D01*
X100236430Y-92058032D01*
X100247466Y-92039619D01*
X100260254Y-92022376D01*
X100274670Y-92006470D01*
X100290576Y-91992054D01*
X100307819Y-91979266D01*
X100326232Y-91968230D01*
X100345638Y-91959051D01*
X100365850Y-91951819D01*
X100386674Y-91946603D01*
X100407909Y-91943453D01*
X100429350Y-91942400D01*
X100941850Y-91942400D01*
X100963291Y-91943453D01*
X100963291Y-91943453D01*
G37*
D11*
X100685600Y-92379900D03*
G04 #@! TD*
D10*
G04 #@! TO.C,C7*
G36*
X102182491Y-105888053D02*
X102203726Y-105891203D01*
X102224550Y-105896419D01*
X102244762Y-105903651D01*
X102264168Y-105912830D01*
X102282581Y-105923866D01*
X102299824Y-105936654D01*
X102315730Y-105951070D01*
X102330146Y-105966976D01*
X102342934Y-105984219D01*
X102353970Y-106002632D01*
X102363149Y-106022038D01*
X102370381Y-106042250D01*
X102375597Y-106063074D01*
X102378747Y-106084309D01*
X102379800Y-106105750D01*
X102379800Y-106543250D01*
X102378747Y-106564691D01*
X102375597Y-106585926D01*
X102370381Y-106606750D01*
X102363149Y-106626962D01*
X102353970Y-106646368D01*
X102342934Y-106664781D01*
X102330146Y-106682024D01*
X102315730Y-106697930D01*
X102299824Y-106712346D01*
X102282581Y-106725134D01*
X102264168Y-106736170D01*
X102244762Y-106745349D01*
X102224550Y-106752581D01*
X102203726Y-106757797D01*
X102182491Y-106760947D01*
X102161050Y-106762000D01*
X101648550Y-106762000D01*
X101627109Y-106760947D01*
X101605874Y-106757797D01*
X101585050Y-106752581D01*
X101564838Y-106745349D01*
X101545432Y-106736170D01*
X101527019Y-106725134D01*
X101509776Y-106712346D01*
X101493870Y-106697930D01*
X101479454Y-106682024D01*
X101466666Y-106664781D01*
X101455630Y-106646368D01*
X101446451Y-106626962D01*
X101439219Y-106606750D01*
X101434003Y-106585926D01*
X101430853Y-106564691D01*
X101429800Y-106543250D01*
X101429800Y-106105750D01*
X101430853Y-106084309D01*
X101434003Y-106063074D01*
X101439219Y-106042250D01*
X101446451Y-106022038D01*
X101455630Y-106002632D01*
X101466666Y-105984219D01*
X101479454Y-105966976D01*
X101493870Y-105951070D01*
X101509776Y-105936654D01*
X101527019Y-105923866D01*
X101545432Y-105912830D01*
X101564838Y-105903651D01*
X101585050Y-105896419D01*
X101605874Y-105891203D01*
X101627109Y-105888053D01*
X101648550Y-105887000D01*
X102161050Y-105887000D01*
X102182491Y-105888053D01*
X102182491Y-105888053D01*
G37*
D11*
X101904800Y-106324500D03*
D10*
G36*
X102182491Y-104313053D02*
X102203726Y-104316203D01*
X102224550Y-104321419D01*
X102244762Y-104328651D01*
X102264168Y-104337830D01*
X102282581Y-104348866D01*
X102299824Y-104361654D01*
X102315730Y-104376070D01*
X102330146Y-104391976D01*
X102342934Y-104409219D01*
X102353970Y-104427632D01*
X102363149Y-104447038D01*
X102370381Y-104467250D01*
X102375597Y-104488074D01*
X102378747Y-104509309D01*
X102379800Y-104530750D01*
X102379800Y-104968250D01*
X102378747Y-104989691D01*
X102375597Y-105010926D01*
X102370381Y-105031750D01*
X102363149Y-105051962D01*
X102353970Y-105071368D01*
X102342934Y-105089781D01*
X102330146Y-105107024D01*
X102315730Y-105122930D01*
X102299824Y-105137346D01*
X102282581Y-105150134D01*
X102264168Y-105161170D01*
X102244762Y-105170349D01*
X102224550Y-105177581D01*
X102203726Y-105182797D01*
X102182491Y-105185947D01*
X102161050Y-105187000D01*
X101648550Y-105187000D01*
X101627109Y-105185947D01*
X101605874Y-105182797D01*
X101585050Y-105177581D01*
X101564838Y-105170349D01*
X101545432Y-105161170D01*
X101527019Y-105150134D01*
X101509776Y-105137346D01*
X101493870Y-105122930D01*
X101479454Y-105107024D01*
X101466666Y-105089781D01*
X101455630Y-105071368D01*
X101446451Y-105051962D01*
X101439219Y-105031750D01*
X101434003Y-105010926D01*
X101430853Y-104989691D01*
X101429800Y-104968250D01*
X101429800Y-104530750D01*
X101430853Y-104509309D01*
X101434003Y-104488074D01*
X101439219Y-104467250D01*
X101446451Y-104447038D01*
X101455630Y-104427632D01*
X101466666Y-104409219D01*
X101479454Y-104391976D01*
X101493870Y-104376070D01*
X101509776Y-104361654D01*
X101527019Y-104348866D01*
X101545432Y-104337830D01*
X101564838Y-104328651D01*
X101585050Y-104321419D01*
X101605874Y-104316203D01*
X101627109Y-104313053D01*
X101648550Y-104312000D01*
X102161050Y-104312000D01*
X102182491Y-104313053D01*
X102182491Y-104313053D01*
G37*
D11*
X101904800Y-104749500D03*
G04 #@! TD*
D10*
G04 #@! TO.C,C3*
G36*
X103464442Y-58799574D02*
X103488103Y-58803084D01*
X103511307Y-58808896D01*
X103533829Y-58816954D01*
X103555453Y-58827182D01*
X103575970Y-58839479D01*
X103595183Y-58853729D01*
X103612907Y-58869793D01*
X103628971Y-58887517D01*
X103643221Y-58906730D01*
X103655518Y-58927247D01*
X103665746Y-58948871D01*
X103673804Y-58971393D01*
X103679616Y-58994597D01*
X103683126Y-59018258D01*
X103684300Y-59042150D01*
X103684300Y-59529650D01*
X103683126Y-59553542D01*
X103679616Y-59577203D01*
X103673804Y-59600407D01*
X103665746Y-59622929D01*
X103655518Y-59644553D01*
X103643221Y-59665070D01*
X103628971Y-59684283D01*
X103612907Y-59702007D01*
X103595183Y-59718071D01*
X103575970Y-59732321D01*
X103555453Y-59744618D01*
X103533829Y-59754846D01*
X103511307Y-59762904D01*
X103488103Y-59768716D01*
X103464442Y-59772226D01*
X103440550Y-59773400D01*
X102528050Y-59773400D01*
X102504158Y-59772226D01*
X102480497Y-59768716D01*
X102457293Y-59762904D01*
X102434771Y-59754846D01*
X102413147Y-59744618D01*
X102392630Y-59732321D01*
X102373417Y-59718071D01*
X102355693Y-59702007D01*
X102339629Y-59684283D01*
X102325379Y-59665070D01*
X102313082Y-59644553D01*
X102302854Y-59622929D01*
X102294796Y-59600407D01*
X102288984Y-59577203D01*
X102285474Y-59553542D01*
X102284300Y-59529650D01*
X102284300Y-59042150D01*
X102285474Y-59018258D01*
X102288984Y-58994597D01*
X102294796Y-58971393D01*
X102302854Y-58948871D01*
X102313082Y-58927247D01*
X102325379Y-58906730D01*
X102339629Y-58887517D01*
X102355693Y-58869793D01*
X102373417Y-58853729D01*
X102392630Y-58839479D01*
X102413147Y-58827182D01*
X102434771Y-58816954D01*
X102457293Y-58808896D01*
X102480497Y-58803084D01*
X102504158Y-58799574D01*
X102528050Y-58798400D01*
X103440550Y-58798400D01*
X103464442Y-58799574D01*
X103464442Y-58799574D01*
G37*
D12*
X102984300Y-59285900D03*
D10*
G36*
X103464442Y-60674574D02*
X103488103Y-60678084D01*
X103511307Y-60683896D01*
X103533829Y-60691954D01*
X103555453Y-60702182D01*
X103575970Y-60714479D01*
X103595183Y-60728729D01*
X103612907Y-60744793D01*
X103628971Y-60762517D01*
X103643221Y-60781730D01*
X103655518Y-60802247D01*
X103665746Y-60823871D01*
X103673804Y-60846393D01*
X103679616Y-60869597D01*
X103683126Y-60893258D01*
X103684300Y-60917150D01*
X103684300Y-61404650D01*
X103683126Y-61428542D01*
X103679616Y-61452203D01*
X103673804Y-61475407D01*
X103665746Y-61497929D01*
X103655518Y-61519553D01*
X103643221Y-61540070D01*
X103628971Y-61559283D01*
X103612907Y-61577007D01*
X103595183Y-61593071D01*
X103575970Y-61607321D01*
X103555453Y-61619618D01*
X103533829Y-61629846D01*
X103511307Y-61637904D01*
X103488103Y-61643716D01*
X103464442Y-61647226D01*
X103440550Y-61648400D01*
X102528050Y-61648400D01*
X102504158Y-61647226D01*
X102480497Y-61643716D01*
X102457293Y-61637904D01*
X102434771Y-61629846D01*
X102413147Y-61619618D01*
X102392630Y-61607321D01*
X102373417Y-61593071D01*
X102355693Y-61577007D01*
X102339629Y-61559283D01*
X102325379Y-61540070D01*
X102313082Y-61519553D01*
X102302854Y-61497929D01*
X102294796Y-61475407D01*
X102288984Y-61452203D01*
X102285474Y-61428542D01*
X102284300Y-61404650D01*
X102284300Y-60917150D01*
X102285474Y-60893258D01*
X102288984Y-60869597D01*
X102294796Y-60846393D01*
X102302854Y-60823871D01*
X102313082Y-60802247D01*
X102325379Y-60781730D01*
X102339629Y-60762517D01*
X102355693Y-60744793D01*
X102373417Y-60728729D01*
X102392630Y-60714479D01*
X102413147Y-60702182D01*
X102434771Y-60691954D01*
X102457293Y-60683896D01*
X102480497Y-60678084D01*
X102504158Y-60674574D01*
X102528050Y-60673400D01*
X103440550Y-60673400D01*
X103464442Y-60674574D01*
X103464442Y-60674574D01*
G37*
D12*
X102984300Y-61160900D03*
G04 #@! TD*
D10*
G04 #@! TO.C,C6*
G36*
X131253142Y-58533974D02*
X131276803Y-58537484D01*
X131300007Y-58543296D01*
X131322529Y-58551354D01*
X131344153Y-58561582D01*
X131364670Y-58573879D01*
X131383883Y-58588129D01*
X131401607Y-58604193D01*
X131417671Y-58621917D01*
X131431921Y-58641130D01*
X131444218Y-58661647D01*
X131454446Y-58683271D01*
X131462504Y-58705793D01*
X131468316Y-58728997D01*
X131471826Y-58752658D01*
X131473000Y-58776550D01*
X131473000Y-59689050D01*
X131471826Y-59712942D01*
X131468316Y-59736603D01*
X131462504Y-59759807D01*
X131454446Y-59782329D01*
X131444218Y-59803953D01*
X131431921Y-59824470D01*
X131417671Y-59843683D01*
X131401607Y-59861407D01*
X131383883Y-59877471D01*
X131364670Y-59891721D01*
X131344153Y-59904018D01*
X131322529Y-59914246D01*
X131300007Y-59922304D01*
X131276803Y-59928116D01*
X131253142Y-59931626D01*
X131229250Y-59932800D01*
X130741750Y-59932800D01*
X130717858Y-59931626D01*
X130694197Y-59928116D01*
X130670993Y-59922304D01*
X130648471Y-59914246D01*
X130626847Y-59904018D01*
X130606330Y-59891721D01*
X130587117Y-59877471D01*
X130569393Y-59861407D01*
X130553329Y-59843683D01*
X130539079Y-59824470D01*
X130526782Y-59803953D01*
X130516554Y-59782329D01*
X130508496Y-59759807D01*
X130502684Y-59736603D01*
X130499174Y-59712942D01*
X130498000Y-59689050D01*
X130498000Y-58776550D01*
X130499174Y-58752658D01*
X130502684Y-58728997D01*
X130508496Y-58705793D01*
X130516554Y-58683271D01*
X130526782Y-58661647D01*
X130539079Y-58641130D01*
X130553329Y-58621917D01*
X130569393Y-58604193D01*
X130587117Y-58588129D01*
X130606330Y-58573879D01*
X130626847Y-58561582D01*
X130648471Y-58551354D01*
X130670993Y-58543296D01*
X130694197Y-58537484D01*
X130717858Y-58533974D01*
X130741750Y-58532800D01*
X131229250Y-58532800D01*
X131253142Y-58533974D01*
X131253142Y-58533974D01*
G37*
D12*
X130985500Y-59232800D03*
D10*
G36*
X129378142Y-58533974D02*
X129401803Y-58537484D01*
X129425007Y-58543296D01*
X129447529Y-58551354D01*
X129469153Y-58561582D01*
X129489670Y-58573879D01*
X129508883Y-58588129D01*
X129526607Y-58604193D01*
X129542671Y-58621917D01*
X129556921Y-58641130D01*
X129569218Y-58661647D01*
X129579446Y-58683271D01*
X129587504Y-58705793D01*
X129593316Y-58728997D01*
X129596826Y-58752658D01*
X129598000Y-58776550D01*
X129598000Y-59689050D01*
X129596826Y-59712942D01*
X129593316Y-59736603D01*
X129587504Y-59759807D01*
X129579446Y-59782329D01*
X129569218Y-59803953D01*
X129556921Y-59824470D01*
X129542671Y-59843683D01*
X129526607Y-59861407D01*
X129508883Y-59877471D01*
X129489670Y-59891721D01*
X129469153Y-59904018D01*
X129447529Y-59914246D01*
X129425007Y-59922304D01*
X129401803Y-59928116D01*
X129378142Y-59931626D01*
X129354250Y-59932800D01*
X128866750Y-59932800D01*
X128842858Y-59931626D01*
X128819197Y-59928116D01*
X128795993Y-59922304D01*
X128773471Y-59914246D01*
X128751847Y-59904018D01*
X128731330Y-59891721D01*
X128712117Y-59877471D01*
X128694393Y-59861407D01*
X128678329Y-59843683D01*
X128664079Y-59824470D01*
X128651782Y-59803953D01*
X128641554Y-59782329D01*
X128633496Y-59759807D01*
X128627684Y-59736603D01*
X128624174Y-59712942D01*
X128623000Y-59689050D01*
X128623000Y-58776550D01*
X128624174Y-58752658D01*
X128627684Y-58728997D01*
X128633496Y-58705793D01*
X128641554Y-58683271D01*
X128651782Y-58661647D01*
X128664079Y-58641130D01*
X128678329Y-58621917D01*
X128694393Y-58604193D01*
X128712117Y-58588129D01*
X128731330Y-58573879D01*
X128751847Y-58561582D01*
X128773471Y-58551354D01*
X128795993Y-58543296D01*
X128819197Y-58537484D01*
X128842858Y-58533974D01*
X128866750Y-58532800D01*
X129354250Y-58532800D01*
X129378142Y-58533974D01*
X129378142Y-58533974D01*
G37*
D12*
X129110500Y-59232800D03*
G04 #@! TD*
D10*
G04 #@! TO.C,C13*
G36*
X100932811Y-74706813D02*
X100954046Y-74709963D01*
X100974870Y-74715179D01*
X100995082Y-74722411D01*
X101014488Y-74731590D01*
X101032901Y-74742626D01*
X101050144Y-74755414D01*
X101066050Y-74769830D01*
X101080466Y-74785736D01*
X101093254Y-74802979D01*
X101104290Y-74821392D01*
X101113469Y-74840798D01*
X101120701Y-74861010D01*
X101125917Y-74881834D01*
X101129067Y-74903069D01*
X101130120Y-74924510D01*
X101130120Y-75362010D01*
X101129067Y-75383451D01*
X101125917Y-75404686D01*
X101120701Y-75425510D01*
X101113469Y-75445722D01*
X101104290Y-75465128D01*
X101093254Y-75483541D01*
X101080466Y-75500784D01*
X101066050Y-75516690D01*
X101050144Y-75531106D01*
X101032901Y-75543894D01*
X101014488Y-75554930D01*
X100995082Y-75564109D01*
X100974870Y-75571341D01*
X100954046Y-75576557D01*
X100932811Y-75579707D01*
X100911370Y-75580760D01*
X100398870Y-75580760D01*
X100377429Y-75579707D01*
X100356194Y-75576557D01*
X100335370Y-75571341D01*
X100315158Y-75564109D01*
X100295752Y-75554930D01*
X100277339Y-75543894D01*
X100260096Y-75531106D01*
X100244190Y-75516690D01*
X100229774Y-75500784D01*
X100216986Y-75483541D01*
X100205950Y-75465128D01*
X100196771Y-75445722D01*
X100189539Y-75425510D01*
X100184323Y-75404686D01*
X100181173Y-75383451D01*
X100180120Y-75362010D01*
X100180120Y-74924510D01*
X100181173Y-74903069D01*
X100184323Y-74881834D01*
X100189539Y-74861010D01*
X100196771Y-74840798D01*
X100205950Y-74821392D01*
X100216986Y-74802979D01*
X100229774Y-74785736D01*
X100244190Y-74769830D01*
X100260096Y-74755414D01*
X100277339Y-74742626D01*
X100295752Y-74731590D01*
X100315158Y-74722411D01*
X100335370Y-74715179D01*
X100356194Y-74709963D01*
X100377429Y-74706813D01*
X100398870Y-74705760D01*
X100911370Y-74705760D01*
X100932811Y-74706813D01*
X100932811Y-74706813D01*
G37*
D11*
X100655120Y-75143260D03*
D10*
G36*
X100932811Y-76281813D02*
X100954046Y-76284963D01*
X100974870Y-76290179D01*
X100995082Y-76297411D01*
X101014488Y-76306590D01*
X101032901Y-76317626D01*
X101050144Y-76330414D01*
X101066050Y-76344830D01*
X101080466Y-76360736D01*
X101093254Y-76377979D01*
X101104290Y-76396392D01*
X101113469Y-76415798D01*
X101120701Y-76436010D01*
X101125917Y-76456834D01*
X101129067Y-76478069D01*
X101130120Y-76499510D01*
X101130120Y-76937010D01*
X101129067Y-76958451D01*
X101125917Y-76979686D01*
X101120701Y-77000510D01*
X101113469Y-77020722D01*
X101104290Y-77040128D01*
X101093254Y-77058541D01*
X101080466Y-77075784D01*
X101066050Y-77091690D01*
X101050144Y-77106106D01*
X101032901Y-77118894D01*
X101014488Y-77129930D01*
X100995082Y-77139109D01*
X100974870Y-77146341D01*
X100954046Y-77151557D01*
X100932811Y-77154707D01*
X100911370Y-77155760D01*
X100398870Y-77155760D01*
X100377429Y-77154707D01*
X100356194Y-77151557D01*
X100335370Y-77146341D01*
X100315158Y-77139109D01*
X100295752Y-77129930D01*
X100277339Y-77118894D01*
X100260096Y-77106106D01*
X100244190Y-77091690D01*
X100229774Y-77075784D01*
X100216986Y-77058541D01*
X100205950Y-77040128D01*
X100196771Y-77020722D01*
X100189539Y-77000510D01*
X100184323Y-76979686D01*
X100181173Y-76958451D01*
X100180120Y-76937010D01*
X100180120Y-76499510D01*
X100181173Y-76478069D01*
X100184323Y-76456834D01*
X100189539Y-76436010D01*
X100196771Y-76415798D01*
X100205950Y-76396392D01*
X100216986Y-76377979D01*
X100229774Y-76360736D01*
X100244190Y-76344830D01*
X100260096Y-76330414D01*
X100277339Y-76317626D01*
X100295752Y-76306590D01*
X100315158Y-76297411D01*
X100335370Y-76290179D01*
X100356194Y-76284963D01*
X100377429Y-76281813D01*
X100398870Y-76280760D01*
X100911370Y-76280760D01*
X100932811Y-76281813D01*
X100932811Y-76281813D01*
G37*
D11*
X100655120Y-76718260D03*
G04 #@! TD*
D10*
G04 #@! TO.C,C15*
G36*
X109264011Y-75977013D02*
X109285246Y-75980163D01*
X109306070Y-75985379D01*
X109326282Y-75992611D01*
X109345688Y-76001790D01*
X109364101Y-76012826D01*
X109381344Y-76025614D01*
X109397250Y-76040030D01*
X109411666Y-76055936D01*
X109424454Y-76073179D01*
X109435490Y-76091592D01*
X109444669Y-76110998D01*
X109451901Y-76131210D01*
X109457117Y-76152034D01*
X109460267Y-76173269D01*
X109461320Y-76194710D01*
X109461320Y-76632210D01*
X109460267Y-76653651D01*
X109457117Y-76674886D01*
X109451901Y-76695710D01*
X109444669Y-76715922D01*
X109435490Y-76735328D01*
X109424454Y-76753741D01*
X109411666Y-76770984D01*
X109397250Y-76786890D01*
X109381344Y-76801306D01*
X109364101Y-76814094D01*
X109345688Y-76825130D01*
X109326282Y-76834309D01*
X109306070Y-76841541D01*
X109285246Y-76846757D01*
X109264011Y-76849907D01*
X109242570Y-76850960D01*
X108730070Y-76850960D01*
X108708629Y-76849907D01*
X108687394Y-76846757D01*
X108666570Y-76841541D01*
X108646358Y-76834309D01*
X108626952Y-76825130D01*
X108608539Y-76814094D01*
X108591296Y-76801306D01*
X108575390Y-76786890D01*
X108560974Y-76770984D01*
X108548186Y-76753741D01*
X108537150Y-76735328D01*
X108527971Y-76715922D01*
X108520739Y-76695710D01*
X108515523Y-76674886D01*
X108512373Y-76653651D01*
X108511320Y-76632210D01*
X108511320Y-76194710D01*
X108512373Y-76173269D01*
X108515523Y-76152034D01*
X108520739Y-76131210D01*
X108527971Y-76110998D01*
X108537150Y-76091592D01*
X108548186Y-76073179D01*
X108560974Y-76055936D01*
X108575390Y-76040030D01*
X108591296Y-76025614D01*
X108608539Y-76012826D01*
X108626952Y-76001790D01*
X108646358Y-75992611D01*
X108666570Y-75985379D01*
X108687394Y-75980163D01*
X108708629Y-75977013D01*
X108730070Y-75975960D01*
X109242570Y-75975960D01*
X109264011Y-75977013D01*
X109264011Y-75977013D01*
G37*
D11*
X108986320Y-76413460D03*
D10*
G36*
X109264011Y-74402013D02*
X109285246Y-74405163D01*
X109306070Y-74410379D01*
X109326282Y-74417611D01*
X109345688Y-74426790D01*
X109364101Y-74437826D01*
X109381344Y-74450614D01*
X109397250Y-74465030D01*
X109411666Y-74480936D01*
X109424454Y-74498179D01*
X109435490Y-74516592D01*
X109444669Y-74535998D01*
X109451901Y-74556210D01*
X109457117Y-74577034D01*
X109460267Y-74598269D01*
X109461320Y-74619710D01*
X109461320Y-75057210D01*
X109460267Y-75078651D01*
X109457117Y-75099886D01*
X109451901Y-75120710D01*
X109444669Y-75140922D01*
X109435490Y-75160328D01*
X109424454Y-75178741D01*
X109411666Y-75195984D01*
X109397250Y-75211890D01*
X109381344Y-75226306D01*
X109364101Y-75239094D01*
X109345688Y-75250130D01*
X109326282Y-75259309D01*
X109306070Y-75266541D01*
X109285246Y-75271757D01*
X109264011Y-75274907D01*
X109242570Y-75275960D01*
X108730070Y-75275960D01*
X108708629Y-75274907D01*
X108687394Y-75271757D01*
X108666570Y-75266541D01*
X108646358Y-75259309D01*
X108626952Y-75250130D01*
X108608539Y-75239094D01*
X108591296Y-75226306D01*
X108575390Y-75211890D01*
X108560974Y-75195984D01*
X108548186Y-75178741D01*
X108537150Y-75160328D01*
X108527971Y-75140922D01*
X108520739Y-75120710D01*
X108515523Y-75099886D01*
X108512373Y-75078651D01*
X108511320Y-75057210D01*
X108511320Y-74619710D01*
X108512373Y-74598269D01*
X108515523Y-74577034D01*
X108520739Y-74556210D01*
X108527971Y-74535998D01*
X108537150Y-74516592D01*
X108548186Y-74498179D01*
X108560974Y-74480936D01*
X108575390Y-74465030D01*
X108591296Y-74450614D01*
X108608539Y-74437826D01*
X108626952Y-74426790D01*
X108646358Y-74417611D01*
X108666570Y-74410379D01*
X108687394Y-74405163D01*
X108708629Y-74402013D01*
X108730070Y-74400960D01*
X109242570Y-74400960D01*
X109264011Y-74402013D01*
X109264011Y-74402013D01*
G37*
D11*
X108986320Y-74838460D03*
G04 #@! TD*
D10*
G04 #@! TO.C,C17*
G36*
X97661991Y-70607953D02*
X97683226Y-70611103D01*
X97704050Y-70616319D01*
X97724262Y-70623551D01*
X97743668Y-70632730D01*
X97762081Y-70643766D01*
X97779324Y-70656554D01*
X97795230Y-70670970D01*
X97809646Y-70686876D01*
X97822434Y-70704119D01*
X97833470Y-70722532D01*
X97842649Y-70741938D01*
X97849881Y-70762150D01*
X97855097Y-70782974D01*
X97858247Y-70804209D01*
X97859300Y-70825650D01*
X97859300Y-71338150D01*
X97858247Y-71359591D01*
X97855097Y-71380826D01*
X97849881Y-71401650D01*
X97842649Y-71421862D01*
X97833470Y-71441268D01*
X97822434Y-71459681D01*
X97809646Y-71476924D01*
X97795230Y-71492830D01*
X97779324Y-71507246D01*
X97762081Y-71520034D01*
X97743668Y-71531070D01*
X97724262Y-71540249D01*
X97704050Y-71547481D01*
X97683226Y-71552697D01*
X97661991Y-71555847D01*
X97640550Y-71556900D01*
X97203050Y-71556900D01*
X97181609Y-71555847D01*
X97160374Y-71552697D01*
X97139550Y-71547481D01*
X97119338Y-71540249D01*
X97099932Y-71531070D01*
X97081519Y-71520034D01*
X97064276Y-71507246D01*
X97048370Y-71492830D01*
X97033954Y-71476924D01*
X97021166Y-71459681D01*
X97010130Y-71441268D01*
X97000951Y-71421862D01*
X96993719Y-71401650D01*
X96988503Y-71380826D01*
X96985353Y-71359591D01*
X96984300Y-71338150D01*
X96984300Y-70825650D01*
X96985353Y-70804209D01*
X96988503Y-70782974D01*
X96993719Y-70762150D01*
X97000951Y-70741938D01*
X97010130Y-70722532D01*
X97021166Y-70704119D01*
X97033954Y-70686876D01*
X97048370Y-70670970D01*
X97064276Y-70656554D01*
X97081519Y-70643766D01*
X97099932Y-70632730D01*
X97119338Y-70623551D01*
X97139550Y-70616319D01*
X97160374Y-70611103D01*
X97181609Y-70607953D01*
X97203050Y-70606900D01*
X97640550Y-70606900D01*
X97661991Y-70607953D01*
X97661991Y-70607953D01*
G37*
D11*
X97421800Y-71081900D03*
D10*
G36*
X96086991Y-70607953D02*
X96108226Y-70611103D01*
X96129050Y-70616319D01*
X96149262Y-70623551D01*
X96168668Y-70632730D01*
X96187081Y-70643766D01*
X96204324Y-70656554D01*
X96220230Y-70670970D01*
X96234646Y-70686876D01*
X96247434Y-70704119D01*
X96258470Y-70722532D01*
X96267649Y-70741938D01*
X96274881Y-70762150D01*
X96280097Y-70782974D01*
X96283247Y-70804209D01*
X96284300Y-70825650D01*
X96284300Y-71338150D01*
X96283247Y-71359591D01*
X96280097Y-71380826D01*
X96274881Y-71401650D01*
X96267649Y-71421862D01*
X96258470Y-71441268D01*
X96247434Y-71459681D01*
X96234646Y-71476924D01*
X96220230Y-71492830D01*
X96204324Y-71507246D01*
X96187081Y-71520034D01*
X96168668Y-71531070D01*
X96149262Y-71540249D01*
X96129050Y-71547481D01*
X96108226Y-71552697D01*
X96086991Y-71555847D01*
X96065550Y-71556900D01*
X95628050Y-71556900D01*
X95606609Y-71555847D01*
X95585374Y-71552697D01*
X95564550Y-71547481D01*
X95544338Y-71540249D01*
X95524932Y-71531070D01*
X95506519Y-71520034D01*
X95489276Y-71507246D01*
X95473370Y-71492830D01*
X95458954Y-71476924D01*
X95446166Y-71459681D01*
X95435130Y-71441268D01*
X95425951Y-71421862D01*
X95418719Y-71401650D01*
X95413503Y-71380826D01*
X95410353Y-71359591D01*
X95409300Y-71338150D01*
X95409300Y-70825650D01*
X95410353Y-70804209D01*
X95413503Y-70782974D01*
X95418719Y-70762150D01*
X95425951Y-70741938D01*
X95435130Y-70722532D01*
X95446166Y-70704119D01*
X95458954Y-70686876D01*
X95473370Y-70670970D01*
X95489276Y-70656554D01*
X95506519Y-70643766D01*
X95524932Y-70632730D01*
X95544338Y-70623551D01*
X95564550Y-70616319D01*
X95585374Y-70611103D01*
X95606609Y-70607953D01*
X95628050Y-70606900D01*
X96065550Y-70606900D01*
X96086991Y-70607953D01*
X96086991Y-70607953D01*
G37*
D11*
X95846800Y-71081900D03*
G04 #@! TD*
D10*
G04 #@! TO.C,R5*
G36*
X101204942Y-58254574D02*
X101228603Y-58258084D01*
X101251807Y-58263896D01*
X101274329Y-58271954D01*
X101295953Y-58282182D01*
X101316470Y-58294479D01*
X101335683Y-58308729D01*
X101353407Y-58324793D01*
X101369471Y-58342517D01*
X101383721Y-58361730D01*
X101396018Y-58382247D01*
X101406246Y-58403871D01*
X101414304Y-58426393D01*
X101420116Y-58449597D01*
X101423626Y-58473258D01*
X101424800Y-58497150D01*
X101424800Y-59409650D01*
X101423626Y-59433542D01*
X101420116Y-59457203D01*
X101414304Y-59480407D01*
X101406246Y-59502929D01*
X101396018Y-59524553D01*
X101383721Y-59545070D01*
X101369471Y-59564283D01*
X101353407Y-59582007D01*
X101335683Y-59598071D01*
X101316470Y-59612321D01*
X101295953Y-59624618D01*
X101274329Y-59634846D01*
X101251807Y-59642904D01*
X101228603Y-59648716D01*
X101204942Y-59652226D01*
X101181050Y-59653400D01*
X100693550Y-59653400D01*
X100669658Y-59652226D01*
X100645997Y-59648716D01*
X100622793Y-59642904D01*
X100600271Y-59634846D01*
X100578647Y-59624618D01*
X100558130Y-59612321D01*
X100538917Y-59598071D01*
X100521193Y-59582007D01*
X100505129Y-59564283D01*
X100490879Y-59545070D01*
X100478582Y-59524553D01*
X100468354Y-59502929D01*
X100460296Y-59480407D01*
X100454484Y-59457203D01*
X100450974Y-59433542D01*
X100449800Y-59409650D01*
X100449800Y-58497150D01*
X100450974Y-58473258D01*
X100454484Y-58449597D01*
X100460296Y-58426393D01*
X100468354Y-58403871D01*
X100478582Y-58382247D01*
X100490879Y-58361730D01*
X100505129Y-58342517D01*
X100521193Y-58324793D01*
X100538917Y-58308729D01*
X100558130Y-58294479D01*
X100578647Y-58282182D01*
X100600271Y-58271954D01*
X100622793Y-58263896D01*
X100645997Y-58258084D01*
X100669658Y-58254574D01*
X100693550Y-58253400D01*
X101181050Y-58253400D01*
X101204942Y-58254574D01*
X101204942Y-58254574D01*
G37*
D12*
X100937300Y-58953400D03*
D10*
G36*
X99329942Y-58254574D02*
X99353603Y-58258084D01*
X99376807Y-58263896D01*
X99399329Y-58271954D01*
X99420953Y-58282182D01*
X99441470Y-58294479D01*
X99460683Y-58308729D01*
X99478407Y-58324793D01*
X99494471Y-58342517D01*
X99508721Y-58361730D01*
X99521018Y-58382247D01*
X99531246Y-58403871D01*
X99539304Y-58426393D01*
X99545116Y-58449597D01*
X99548626Y-58473258D01*
X99549800Y-58497150D01*
X99549800Y-59409650D01*
X99548626Y-59433542D01*
X99545116Y-59457203D01*
X99539304Y-59480407D01*
X99531246Y-59502929D01*
X99521018Y-59524553D01*
X99508721Y-59545070D01*
X99494471Y-59564283D01*
X99478407Y-59582007D01*
X99460683Y-59598071D01*
X99441470Y-59612321D01*
X99420953Y-59624618D01*
X99399329Y-59634846D01*
X99376807Y-59642904D01*
X99353603Y-59648716D01*
X99329942Y-59652226D01*
X99306050Y-59653400D01*
X98818550Y-59653400D01*
X98794658Y-59652226D01*
X98770997Y-59648716D01*
X98747793Y-59642904D01*
X98725271Y-59634846D01*
X98703647Y-59624618D01*
X98683130Y-59612321D01*
X98663917Y-59598071D01*
X98646193Y-59582007D01*
X98630129Y-59564283D01*
X98615879Y-59545070D01*
X98603582Y-59524553D01*
X98593354Y-59502929D01*
X98585296Y-59480407D01*
X98579484Y-59457203D01*
X98575974Y-59433542D01*
X98574800Y-59409650D01*
X98574800Y-58497150D01*
X98575974Y-58473258D01*
X98579484Y-58449597D01*
X98585296Y-58426393D01*
X98593354Y-58403871D01*
X98603582Y-58382247D01*
X98615879Y-58361730D01*
X98630129Y-58342517D01*
X98646193Y-58324793D01*
X98663917Y-58308729D01*
X98683130Y-58294479D01*
X98703647Y-58282182D01*
X98725271Y-58271954D01*
X98747793Y-58263896D01*
X98770997Y-58258084D01*
X98794658Y-58254574D01*
X98818550Y-58253400D01*
X99306050Y-58253400D01*
X99329942Y-58254574D01*
X99329942Y-58254574D01*
G37*
D12*
X99062300Y-58953400D03*
G04 #@! TD*
D10*
G04 #@! TO.C,R6*
G36*
X99329942Y-60540574D02*
X99353603Y-60544084D01*
X99376807Y-60549896D01*
X99399329Y-60557954D01*
X99420953Y-60568182D01*
X99441470Y-60580479D01*
X99460683Y-60594729D01*
X99478407Y-60610793D01*
X99494471Y-60628517D01*
X99508721Y-60647730D01*
X99521018Y-60668247D01*
X99531246Y-60689871D01*
X99539304Y-60712393D01*
X99545116Y-60735597D01*
X99548626Y-60759258D01*
X99549800Y-60783150D01*
X99549800Y-61695650D01*
X99548626Y-61719542D01*
X99545116Y-61743203D01*
X99539304Y-61766407D01*
X99531246Y-61788929D01*
X99521018Y-61810553D01*
X99508721Y-61831070D01*
X99494471Y-61850283D01*
X99478407Y-61868007D01*
X99460683Y-61884071D01*
X99441470Y-61898321D01*
X99420953Y-61910618D01*
X99399329Y-61920846D01*
X99376807Y-61928904D01*
X99353603Y-61934716D01*
X99329942Y-61938226D01*
X99306050Y-61939400D01*
X98818550Y-61939400D01*
X98794658Y-61938226D01*
X98770997Y-61934716D01*
X98747793Y-61928904D01*
X98725271Y-61920846D01*
X98703647Y-61910618D01*
X98683130Y-61898321D01*
X98663917Y-61884071D01*
X98646193Y-61868007D01*
X98630129Y-61850283D01*
X98615879Y-61831070D01*
X98603582Y-61810553D01*
X98593354Y-61788929D01*
X98585296Y-61766407D01*
X98579484Y-61743203D01*
X98575974Y-61719542D01*
X98574800Y-61695650D01*
X98574800Y-60783150D01*
X98575974Y-60759258D01*
X98579484Y-60735597D01*
X98585296Y-60712393D01*
X98593354Y-60689871D01*
X98603582Y-60668247D01*
X98615879Y-60647730D01*
X98630129Y-60628517D01*
X98646193Y-60610793D01*
X98663917Y-60594729D01*
X98683130Y-60580479D01*
X98703647Y-60568182D01*
X98725271Y-60557954D01*
X98747793Y-60549896D01*
X98770997Y-60544084D01*
X98794658Y-60540574D01*
X98818550Y-60539400D01*
X99306050Y-60539400D01*
X99329942Y-60540574D01*
X99329942Y-60540574D01*
G37*
D12*
X99062300Y-61239400D03*
D10*
G36*
X101204942Y-60540574D02*
X101228603Y-60544084D01*
X101251807Y-60549896D01*
X101274329Y-60557954D01*
X101295953Y-60568182D01*
X101316470Y-60580479D01*
X101335683Y-60594729D01*
X101353407Y-60610793D01*
X101369471Y-60628517D01*
X101383721Y-60647730D01*
X101396018Y-60668247D01*
X101406246Y-60689871D01*
X101414304Y-60712393D01*
X101420116Y-60735597D01*
X101423626Y-60759258D01*
X101424800Y-60783150D01*
X101424800Y-61695650D01*
X101423626Y-61719542D01*
X101420116Y-61743203D01*
X101414304Y-61766407D01*
X101406246Y-61788929D01*
X101396018Y-61810553D01*
X101383721Y-61831070D01*
X101369471Y-61850283D01*
X101353407Y-61868007D01*
X101335683Y-61884071D01*
X101316470Y-61898321D01*
X101295953Y-61910618D01*
X101274329Y-61920846D01*
X101251807Y-61928904D01*
X101228603Y-61934716D01*
X101204942Y-61938226D01*
X101181050Y-61939400D01*
X100693550Y-61939400D01*
X100669658Y-61938226D01*
X100645997Y-61934716D01*
X100622793Y-61928904D01*
X100600271Y-61920846D01*
X100578647Y-61910618D01*
X100558130Y-61898321D01*
X100538917Y-61884071D01*
X100521193Y-61868007D01*
X100505129Y-61850283D01*
X100490879Y-61831070D01*
X100478582Y-61810553D01*
X100468354Y-61788929D01*
X100460296Y-61766407D01*
X100454484Y-61743203D01*
X100450974Y-61719542D01*
X100449800Y-61695650D01*
X100449800Y-60783150D01*
X100450974Y-60759258D01*
X100454484Y-60735597D01*
X100460296Y-60712393D01*
X100468354Y-60689871D01*
X100478582Y-60668247D01*
X100490879Y-60647730D01*
X100505129Y-60628517D01*
X100521193Y-60610793D01*
X100538917Y-60594729D01*
X100558130Y-60580479D01*
X100578647Y-60568182D01*
X100600271Y-60557954D01*
X100622793Y-60549896D01*
X100645997Y-60544084D01*
X100669658Y-60540574D01*
X100693550Y-60539400D01*
X101181050Y-60539400D01*
X101204942Y-60540574D01*
X101204942Y-60540574D01*
G37*
D12*
X100937300Y-61239400D03*
G04 #@! TD*
D10*
G04 #@! TO.C,R11*
G36*
X131253142Y-61988374D02*
X131276803Y-61991884D01*
X131300007Y-61997696D01*
X131322529Y-62005754D01*
X131344153Y-62015982D01*
X131364670Y-62028279D01*
X131383883Y-62042529D01*
X131401607Y-62058593D01*
X131417671Y-62076317D01*
X131431921Y-62095530D01*
X131444218Y-62116047D01*
X131454446Y-62137671D01*
X131462504Y-62160193D01*
X131468316Y-62183397D01*
X131471826Y-62207058D01*
X131473000Y-62230950D01*
X131473000Y-63143450D01*
X131471826Y-63167342D01*
X131468316Y-63191003D01*
X131462504Y-63214207D01*
X131454446Y-63236729D01*
X131444218Y-63258353D01*
X131431921Y-63278870D01*
X131417671Y-63298083D01*
X131401607Y-63315807D01*
X131383883Y-63331871D01*
X131364670Y-63346121D01*
X131344153Y-63358418D01*
X131322529Y-63368646D01*
X131300007Y-63376704D01*
X131276803Y-63382516D01*
X131253142Y-63386026D01*
X131229250Y-63387200D01*
X130741750Y-63387200D01*
X130717858Y-63386026D01*
X130694197Y-63382516D01*
X130670993Y-63376704D01*
X130648471Y-63368646D01*
X130626847Y-63358418D01*
X130606330Y-63346121D01*
X130587117Y-63331871D01*
X130569393Y-63315807D01*
X130553329Y-63298083D01*
X130539079Y-63278870D01*
X130526782Y-63258353D01*
X130516554Y-63236729D01*
X130508496Y-63214207D01*
X130502684Y-63191003D01*
X130499174Y-63167342D01*
X130498000Y-63143450D01*
X130498000Y-62230950D01*
X130499174Y-62207058D01*
X130502684Y-62183397D01*
X130508496Y-62160193D01*
X130516554Y-62137671D01*
X130526782Y-62116047D01*
X130539079Y-62095530D01*
X130553329Y-62076317D01*
X130569393Y-62058593D01*
X130587117Y-62042529D01*
X130606330Y-62028279D01*
X130626847Y-62015982D01*
X130648471Y-62005754D01*
X130670993Y-61997696D01*
X130694197Y-61991884D01*
X130717858Y-61988374D01*
X130741750Y-61987200D01*
X131229250Y-61987200D01*
X131253142Y-61988374D01*
X131253142Y-61988374D01*
G37*
D12*
X130985500Y-62687200D03*
D10*
G36*
X129378142Y-61988374D02*
X129401803Y-61991884D01*
X129425007Y-61997696D01*
X129447529Y-62005754D01*
X129469153Y-62015982D01*
X129489670Y-62028279D01*
X129508883Y-62042529D01*
X129526607Y-62058593D01*
X129542671Y-62076317D01*
X129556921Y-62095530D01*
X129569218Y-62116047D01*
X129579446Y-62137671D01*
X129587504Y-62160193D01*
X129593316Y-62183397D01*
X129596826Y-62207058D01*
X129598000Y-62230950D01*
X129598000Y-63143450D01*
X129596826Y-63167342D01*
X129593316Y-63191003D01*
X129587504Y-63214207D01*
X129579446Y-63236729D01*
X129569218Y-63258353D01*
X129556921Y-63278870D01*
X129542671Y-63298083D01*
X129526607Y-63315807D01*
X129508883Y-63331871D01*
X129489670Y-63346121D01*
X129469153Y-63358418D01*
X129447529Y-63368646D01*
X129425007Y-63376704D01*
X129401803Y-63382516D01*
X129378142Y-63386026D01*
X129354250Y-63387200D01*
X128866750Y-63387200D01*
X128842858Y-63386026D01*
X128819197Y-63382516D01*
X128795993Y-63376704D01*
X128773471Y-63368646D01*
X128751847Y-63358418D01*
X128731330Y-63346121D01*
X128712117Y-63331871D01*
X128694393Y-63315807D01*
X128678329Y-63298083D01*
X128664079Y-63278870D01*
X128651782Y-63258353D01*
X128641554Y-63236729D01*
X128633496Y-63214207D01*
X128627684Y-63191003D01*
X128624174Y-63167342D01*
X128623000Y-63143450D01*
X128623000Y-62230950D01*
X128624174Y-62207058D01*
X128627684Y-62183397D01*
X128633496Y-62160193D01*
X128641554Y-62137671D01*
X128651782Y-62116047D01*
X128664079Y-62095530D01*
X128678329Y-62076317D01*
X128694393Y-62058593D01*
X128712117Y-62042529D01*
X128731330Y-62028279D01*
X128751847Y-62015982D01*
X128773471Y-62005754D01*
X128795993Y-61997696D01*
X128819197Y-61991884D01*
X128842858Y-61988374D01*
X128866750Y-61987200D01*
X129354250Y-61987200D01*
X129378142Y-61988374D01*
X129378142Y-61988374D01*
G37*
D12*
X129110500Y-62687200D03*
G04 #@! TD*
D10*
G04 #@! TO.C,R12*
G36*
X95773942Y-60540574D02*
X95797603Y-60544084D01*
X95820807Y-60549896D01*
X95843329Y-60557954D01*
X95864953Y-60568182D01*
X95885470Y-60580479D01*
X95904683Y-60594729D01*
X95922407Y-60610793D01*
X95938471Y-60628517D01*
X95952721Y-60647730D01*
X95965018Y-60668247D01*
X95975246Y-60689871D01*
X95983304Y-60712393D01*
X95989116Y-60735597D01*
X95992626Y-60759258D01*
X95993800Y-60783150D01*
X95993800Y-61695650D01*
X95992626Y-61719542D01*
X95989116Y-61743203D01*
X95983304Y-61766407D01*
X95975246Y-61788929D01*
X95965018Y-61810553D01*
X95952721Y-61831070D01*
X95938471Y-61850283D01*
X95922407Y-61868007D01*
X95904683Y-61884071D01*
X95885470Y-61898321D01*
X95864953Y-61910618D01*
X95843329Y-61920846D01*
X95820807Y-61928904D01*
X95797603Y-61934716D01*
X95773942Y-61938226D01*
X95750050Y-61939400D01*
X95262550Y-61939400D01*
X95238658Y-61938226D01*
X95214997Y-61934716D01*
X95191793Y-61928904D01*
X95169271Y-61920846D01*
X95147647Y-61910618D01*
X95127130Y-61898321D01*
X95107917Y-61884071D01*
X95090193Y-61868007D01*
X95074129Y-61850283D01*
X95059879Y-61831070D01*
X95047582Y-61810553D01*
X95037354Y-61788929D01*
X95029296Y-61766407D01*
X95023484Y-61743203D01*
X95019974Y-61719542D01*
X95018800Y-61695650D01*
X95018800Y-60783150D01*
X95019974Y-60759258D01*
X95023484Y-60735597D01*
X95029296Y-60712393D01*
X95037354Y-60689871D01*
X95047582Y-60668247D01*
X95059879Y-60647730D01*
X95074129Y-60628517D01*
X95090193Y-60610793D01*
X95107917Y-60594729D01*
X95127130Y-60580479D01*
X95147647Y-60568182D01*
X95169271Y-60557954D01*
X95191793Y-60549896D01*
X95214997Y-60544084D01*
X95238658Y-60540574D01*
X95262550Y-60539400D01*
X95750050Y-60539400D01*
X95773942Y-60540574D01*
X95773942Y-60540574D01*
G37*
D12*
X95506300Y-61239400D03*
D10*
G36*
X97648942Y-60540574D02*
X97672603Y-60544084D01*
X97695807Y-60549896D01*
X97718329Y-60557954D01*
X97739953Y-60568182D01*
X97760470Y-60580479D01*
X97779683Y-60594729D01*
X97797407Y-60610793D01*
X97813471Y-60628517D01*
X97827721Y-60647730D01*
X97840018Y-60668247D01*
X97850246Y-60689871D01*
X97858304Y-60712393D01*
X97864116Y-60735597D01*
X97867626Y-60759258D01*
X97868800Y-60783150D01*
X97868800Y-61695650D01*
X97867626Y-61719542D01*
X97864116Y-61743203D01*
X97858304Y-61766407D01*
X97850246Y-61788929D01*
X97840018Y-61810553D01*
X97827721Y-61831070D01*
X97813471Y-61850283D01*
X97797407Y-61868007D01*
X97779683Y-61884071D01*
X97760470Y-61898321D01*
X97739953Y-61910618D01*
X97718329Y-61920846D01*
X97695807Y-61928904D01*
X97672603Y-61934716D01*
X97648942Y-61938226D01*
X97625050Y-61939400D01*
X97137550Y-61939400D01*
X97113658Y-61938226D01*
X97089997Y-61934716D01*
X97066793Y-61928904D01*
X97044271Y-61920846D01*
X97022647Y-61910618D01*
X97002130Y-61898321D01*
X96982917Y-61884071D01*
X96965193Y-61868007D01*
X96949129Y-61850283D01*
X96934879Y-61831070D01*
X96922582Y-61810553D01*
X96912354Y-61788929D01*
X96904296Y-61766407D01*
X96898484Y-61743203D01*
X96894974Y-61719542D01*
X96893800Y-61695650D01*
X96893800Y-60783150D01*
X96894974Y-60759258D01*
X96898484Y-60735597D01*
X96904296Y-60712393D01*
X96912354Y-60689871D01*
X96922582Y-60668247D01*
X96934879Y-60647730D01*
X96949129Y-60628517D01*
X96965193Y-60610793D01*
X96982917Y-60594729D01*
X97002130Y-60580479D01*
X97022647Y-60568182D01*
X97044271Y-60557954D01*
X97066793Y-60549896D01*
X97089997Y-60544084D01*
X97113658Y-60540574D01*
X97137550Y-60539400D01*
X97625050Y-60539400D01*
X97648942Y-60540574D01*
X97648942Y-60540574D01*
G37*
D12*
X97381300Y-61239400D03*
G04 #@! TD*
D10*
G04 #@! TO.C,R13*
G36*
X93825142Y-96035974D02*
X93848803Y-96039484D01*
X93872007Y-96045296D01*
X93894529Y-96053354D01*
X93916153Y-96063582D01*
X93936670Y-96075879D01*
X93955883Y-96090129D01*
X93973607Y-96106193D01*
X93989671Y-96123917D01*
X94003921Y-96143130D01*
X94016218Y-96163647D01*
X94026446Y-96185271D01*
X94034504Y-96207793D01*
X94040316Y-96230997D01*
X94043826Y-96254658D01*
X94045000Y-96278550D01*
X94045000Y-96766050D01*
X94043826Y-96789942D01*
X94040316Y-96813603D01*
X94034504Y-96836807D01*
X94026446Y-96859329D01*
X94016218Y-96880953D01*
X94003921Y-96901470D01*
X93989671Y-96920683D01*
X93973607Y-96938407D01*
X93955883Y-96954471D01*
X93936670Y-96968721D01*
X93916153Y-96981018D01*
X93894529Y-96991246D01*
X93872007Y-96999304D01*
X93848803Y-97005116D01*
X93825142Y-97008626D01*
X93801250Y-97009800D01*
X92888750Y-97009800D01*
X92864858Y-97008626D01*
X92841197Y-97005116D01*
X92817993Y-96999304D01*
X92795471Y-96991246D01*
X92773847Y-96981018D01*
X92753330Y-96968721D01*
X92734117Y-96954471D01*
X92716393Y-96938407D01*
X92700329Y-96920683D01*
X92686079Y-96901470D01*
X92673782Y-96880953D01*
X92663554Y-96859329D01*
X92655496Y-96836807D01*
X92649684Y-96813603D01*
X92646174Y-96789942D01*
X92645000Y-96766050D01*
X92645000Y-96278550D01*
X92646174Y-96254658D01*
X92649684Y-96230997D01*
X92655496Y-96207793D01*
X92663554Y-96185271D01*
X92673782Y-96163647D01*
X92686079Y-96143130D01*
X92700329Y-96123917D01*
X92716393Y-96106193D01*
X92734117Y-96090129D01*
X92753330Y-96075879D01*
X92773847Y-96063582D01*
X92795471Y-96053354D01*
X92817993Y-96045296D01*
X92841197Y-96039484D01*
X92864858Y-96035974D01*
X92888750Y-96034800D01*
X93801250Y-96034800D01*
X93825142Y-96035974D01*
X93825142Y-96035974D01*
G37*
D12*
X93345000Y-96522300D03*
D10*
G36*
X93825142Y-97910974D02*
X93848803Y-97914484D01*
X93872007Y-97920296D01*
X93894529Y-97928354D01*
X93916153Y-97938582D01*
X93936670Y-97950879D01*
X93955883Y-97965129D01*
X93973607Y-97981193D01*
X93989671Y-97998917D01*
X94003921Y-98018130D01*
X94016218Y-98038647D01*
X94026446Y-98060271D01*
X94034504Y-98082793D01*
X94040316Y-98105997D01*
X94043826Y-98129658D01*
X94045000Y-98153550D01*
X94045000Y-98641050D01*
X94043826Y-98664942D01*
X94040316Y-98688603D01*
X94034504Y-98711807D01*
X94026446Y-98734329D01*
X94016218Y-98755953D01*
X94003921Y-98776470D01*
X93989671Y-98795683D01*
X93973607Y-98813407D01*
X93955883Y-98829471D01*
X93936670Y-98843721D01*
X93916153Y-98856018D01*
X93894529Y-98866246D01*
X93872007Y-98874304D01*
X93848803Y-98880116D01*
X93825142Y-98883626D01*
X93801250Y-98884800D01*
X92888750Y-98884800D01*
X92864858Y-98883626D01*
X92841197Y-98880116D01*
X92817993Y-98874304D01*
X92795471Y-98866246D01*
X92773847Y-98856018D01*
X92753330Y-98843721D01*
X92734117Y-98829471D01*
X92716393Y-98813407D01*
X92700329Y-98795683D01*
X92686079Y-98776470D01*
X92673782Y-98755953D01*
X92663554Y-98734329D01*
X92655496Y-98711807D01*
X92649684Y-98688603D01*
X92646174Y-98664942D01*
X92645000Y-98641050D01*
X92645000Y-98153550D01*
X92646174Y-98129658D01*
X92649684Y-98105997D01*
X92655496Y-98082793D01*
X92663554Y-98060271D01*
X92673782Y-98038647D01*
X92686079Y-98018130D01*
X92700329Y-97998917D01*
X92716393Y-97981193D01*
X92734117Y-97965129D01*
X92753330Y-97950879D01*
X92773847Y-97938582D01*
X92795471Y-97928354D01*
X92817993Y-97920296D01*
X92841197Y-97914484D01*
X92864858Y-97910974D01*
X92888750Y-97909800D01*
X93801250Y-97909800D01*
X93825142Y-97910974D01*
X93825142Y-97910974D01*
G37*
D12*
X93345000Y-98397300D03*
G04 #@! TD*
D10*
G04 #@! TO.C,R18*
G36*
X117118042Y-81851174D02*
X117141703Y-81854684D01*
X117164907Y-81860496D01*
X117187429Y-81868554D01*
X117209053Y-81878782D01*
X117229570Y-81891079D01*
X117248783Y-81905329D01*
X117266507Y-81921393D01*
X117282571Y-81939117D01*
X117296821Y-81958330D01*
X117309118Y-81978847D01*
X117319346Y-82000471D01*
X117327404Y-82022993D01*
X117333216Y-82046197D01*
X117336726Y-82069858D01*
X117337900Y-82093750D01*
X117337900Y-83006250D01*
X117336726Y-83030142D01*
X117333216Y-83053803D01*
X117327404Y-83077007D01*
X117319346Y-83099529D01*
X117309118Y-83121153D01*
X117296821Y-83141670D01*
X117282571Y-83160883D01*
X117266507Y-83178607D01*
X117248783Y-83194671D01*
X117229570Y-83208921D01*
X117209053Y-83221218D01*
X117187429Y-83231446D01*
X117164907Y-83239504D01*
X117141703Y-83245316D01*
X117118042Y-83248826D01*
X117094150Y-83250000D01*
X116606650Y-83250000D01*
X116582758Y-83248826D01*
X116559097Y-83245316D01*
X116535893Y-83239504D01*
X116513371Y-83231446D01*
X116491747Y-83221218D01*
X116471230Y-83208921D01*
X116452017Y-83194671D01*
X116434293Y-83178607D01*
X116418229Y-83160883D01*
X116403979Y-83141670D01*
X116391682Y-83121153D01*
X116381454Y-83099529D01*
X116373396Y-83077007D01*
X116367584Y-83053803D01*
X116364074Y-83030142D01*
X116362900Y-83006250D01*
X116362900Y-82093750D01*
X116364074Y-82069858D01*
X116367584Y-82046197D01*
X116373396Y-82022993D01*
X116381454Y-82000471D01*
X116391682Y-81978847D01*
X116403979Y-81958330D01*
X116418229Y-81939117D01*
X116434293Y-81921393D01*
X116452017Y-81905329D01*
X116471230Y-81891079D01*
X116491747Y-81878782D01*
X116513371Y-81868554D01*
X116535893Y-81860496D01*
X116559097Y-81854684D01*
X116582758Y-81851174D01*
X116606650Y-81850000D01*
X117094150Y-81850000D01*
X117118042Y-81851174D01*
X117118042Y-81851174D01*
G37*
D12*
X116850400Y-82550000D03*
D10*
G36*
X115243042Y-81851174D02*
X115266703Y-81854684D01*
X115289907Y-81860496D01*
X115312429Y-81868554D01*
X115334053Y-81878782D01*
X115354570Y-81891079D01*
X115373783Y-81905329D01*
X115391507Y-81921393D01*
X115407571Y-81939117D01*
X115421821Y-81958330D01*
X115434118Y-81978847D01*
X115444346Y-82000471D01*
X115452404Y-82022993D01*
X115458216Y-82046197D01*
X115461726Y-82069858D01*
X115462900Y-82093750D01*
X115462900Y-83006250D01*
X115461726Y-83030142D01*
X115458216Y-83053803D01*
X115452404Y-83077007D01*
X115444346Y-83099529D01*
X115434118Y-83121153D01*
X115421821Y-83141670D01*
X115407571Y-83160883D01*
X115391507Y-83178607D01*
X115373783Y-83194671D01*
X115354570Y-83208921D01*
X115334053Y-83221218D01*
X115312429Y-83231446D01*
X115289907Y-83239504D01*
X115266703Y-83245316D01*
X115243042Y-83248826D01*
X115219150Y-83250000D01*
X114731650Y-83250000D01*
X114707758Y-83248826D01*
X114684097Y-83245316D01*
X114660893Y-83239504D01*
X114638371Y-83231446D01*
X114616747Y-83221218D01*
X114596230Y-83208921D01*
X114577017Y-83194671D01*
X114559293Y-83178607D01*
X114543229Y-83160883D01*
X114528979Y-83141670D01*
X114516682Y-83121153D01*
X114506454Y-83099529D01*
X114498396Y-83077007D01*
X114492584Y-83053803D01*
X114489074Y-83030142D01*
X114487900Y-83006250D01*
X114487900Y-82093750D01*
X114489074Y-82069858D01*
X114492584Y-82046197D01*
X114498396Y-82022993D01*
X114506454Y-82000471D01*
X114516682Y-81978847D01*
X114528979Y-81958330D01*
X114543229Y-81939117D01*
X114559293Y-81921393D01*
X114577017Y-81905329D01*
X114596230Y-81891079D01*
X114616747Y-81878782D01*
X114638371Y-81868554D01*
X114660893Y-81860496D01*
X114684097Y-81854684D01*
X114707758Y-81851174D01*
X114731650Y-81850000D01*
X115219150Y-81850000D01*
X115243042Y-81851174D01*
X115243042Y-81851174D01*
G37*
D12*
X114975400Y-82550000D03*
G04 #@! TD*
D10*
G04 #@! TO.C,R19*
G36*
X88758942Y-53301574D02*
X88782603Y-53305084D01*
X88805807Y-53310896D01*
X88828329Y-53318954D01*
X88849953Y-53329182D01*
X88870470Y-53341479D01*
X88889683Y-53355729D01*
X88907407Y-53371793D01*
X88923471Y-53389517D01*
X88937721Y-53408730D01*
X88950018Y-53429247D01*
X88960246Y-53450871D01*
X88968304Y-53473393D01*
X88974116Y-53496597D01*
X88977626Y-53520258D01*
X88978800Y-53544150D01*
X88978800Y-54456650D01*
X88977626Y-54480542D01*
X88974116Y-54504203D01*
X88968304Y-54527407D01*
X88960246Y-54549929D01*
X88950018Y-54571553D01*
X88937721Y-54592070D01*
X88923471Y-54611283D01*
X88907407Y-54629007D01*
X88889683Y-54645071D01*
X88870470Y-54659321D01*
X88849953Y-54671618D01*
X88828329Y-54681846D01*
X88805807Y-54689904D01*
X88782603Y-54695716D01*
X88758942Y-54699226D01*
X88735050Y-54700400D01*
X88247550Y-54700400D01*
X88223658Y-54699226D01*
X88199997Y-54695716D01*
X88176793Y-54689904D01*
X88154271Y-54681846D01*
X88132647Y-54671618D01*
X88112130Y-54659321D01*
X88092917Y-54645071D01*
X88075193Y-54629007D01*
X88059129Y-54611283D01*
X88044879Y-54592070D01*
X88032582Y-54571553D01*
X88022354Y-54549929D01*
X88014296Y-54527407D01*
X88008484Y-54504203D01*
X88004974Y-54480542D01*
X88003800Y-54456650D01*
X88003800Y-53544150D01*
X88004974Y-53520258D01*
X88008484Y-53496597D01*
X88014296Y-53473393D01*
X88022354Y-53450871D01*
X88032582Y-53429247D01*
X88044879Y-53408730D01*
X88059129Y-53389517D01*
X88075193Y-53371793D01*
X88092917Y-53355729D01*
X88112130Y-53341479D01*
X88132647Y-53329182D01*
X88154271Y-53318954D01*
X88176793Y-53310896D01*
X88199997Y-53305084D01*
X88223658Y-53301574D01*
X88247550Y-53300400D01*
X88735050Y-53300400D01*
X88758942Y-53301574D01*
X88758942Y-53301574D01*
G37*
D12*
X88491300Y-54000400D03*
D10*
G36*
X86883942Y-53301574D02*
X86907603Y-53305084D01*
X86930807Y-53310896D01*
X86953329Y-53318954D01*
X86974953Y-53329182D01*
X86995470Y-53341479D01*
X87014683Y-53355729D01*
X87032407Y-53371793D01*
X87048471Y-53389517D01*
X87062721Y-53408730D01*
X87075018Y-53429247D01*
X87085246Y-53450871D01*
X87093304Y-53473393D01*
X87099116Y-53496597D01*
X87102626Y-53520258D01*
X87103800Y-53544150D01*
X87103800Y-54456650D01*
X87102626Y-54480542D01*
X87099116Y-54504203D01*
X87093304Y-54527407D01*
X87085246Y-54549929D01*
X87075018Y-54571553D01*
X87062721Y-54592070D01*
X87048471Y-54611283D01*
X87032407Y-54629007D01*
X87014683Y-54645071D01*
X86995470Y-54659321D01*
X86974953Y-54671618D01*
X86953329Y-54681846D01*
X86930807Y-54689904D01*
X86907603Y-54695716D01*
X86883942Y-54699226D01*
X86860050Y-54700400D01*
X86372550Y-54700400D01*
X86348658Y-54699226D01*
X86324997Y-54695716D01*
X86301793Y-54689904D01*
X86279271Y-54681846D01*
X86257647Y-54671618D01*
X86237130Y-54659321D01*
X86217917Y-54645071D01*
X86200193Y-54629007D01*
X86184129Y-54611283D01*
X86169879Y-54592070D01*
X86157582Y-54571553D01*
X86147354Y-54549929D01*
X86139296Y-54527407D01*
X86133484Y-54504203D01*
X86129974Y-54480542D01*
X86128800Y-54456650D01*
X86128800Y-53544150D01*
X86129974Y-53520258D01*
X86133484Y-53496597D01*
X86139296Y-53473393D01*
X86147354Y-53450871D01*
X86157582Y-53429247D01*
X86169879Y-53408730D01*
X86184129Y-53389517D01*
X86200193Y-53371793D01*
X86217917Y-53355729D01*
X86237130Y-53341479D01*
X86257647Y-53329182D01*
X86279271Y-53318954D01*
X86301793Y-53310896D01*
X86324997Y-53305084D01*
X86348658Y-53301574D01*
X86372550Y-53300400D01*
X86860050Y-53300400D01*
X86883942Y-53301574D01*
X86883942Y-53301574D01*
G37*
D12*
X86616300Y-54000400D03*
G04 #@! TD*
D10*
G04 #@! TO.C,R20*
G36*
X88758942Y-55943174D02*
X88782603Y-55946684D01*
X88805807Y-55952496D01*
X88828329Y-55960554D01*
X88849953Y-55970782D01*
X88870470Y-55983079D01*
X88889683Y-55997329D01*
X88907407Y-56013393D01*
X88923471Y-56031117D01*
X88937721Y-56050330D01*
X88950018Y-56070847D01*
X88960246Y-56092471D01*
X88968304Y-56114993D01*
X88974116Y-56138197D01*
X88977626Y-56161858D01*
X88978800Y-56185750D01*
X88978800Y-57098250D01*
X88977626Y-57122142D01*
X88974116Y-57145803D01*
X88968304Y-57169007D01*
X88960246Y-57191529D01*
X88950018Y-57213153D01*
X88937721Y-57233670D01*
X88923471Y-57252883D01*
X88907407Y-57270607D01*
X88889683Y-57286671D01*
X88870470Y-57300921D01*
X88849953Y-57313218D01*
X88828329Y-57323446D01*
X88805807Y-57331504D01*
X88782603Y-57337316D01*
X88758942Y-57340826D01*
X88735050Y-57342000D01*
X88247550Y-57342000D01*
X88223658Y-57340826D01*
X88199997Y-57337316D01*
X88176793Y-57331504D01*
X88154271Y-57323446D01*
X88132647Y-57313218D01*
X88112130Y-57300921D01*
X88092917Y-57286671D01*
X88075193Y-57270607D01*
X88059129Y-57252883D01*
X88044879Y-57233670D01*
X88032582Y-57213153D01*
X88022354Y-57191529D01*
X88014296Y-57169007D01*
X88008484Y-57145803D01*
X88004974Y-57122142D01*
X88003800Y-57098250D01*
X88003800Y-56185750D01*
X88004974Y-56161858D01*
X88008484Y-56138197D01*
X88014296Y-56114993D01*
X88022354Y-56092471D01*
X88032582Y-56070847D01*
X88044879Y-56050330D01*
X88059129Y-56031117D01*
X88075193Y-56013393D01*
X88092917Y-55997329D01*
X88112130Y-55983079D01*
X88132647Y-55970782D01*
X88154271Y-55960554D01*
X88176793Y-55952496D01*
X88199997Y-55946684D01*
X88223658Y-55943174D01*
X88247550Y-55942000D01*
X88735050Y-55942000D01*
X88758942Y-55943174D01*
X88758942Y-55943174D01*
G37*
D12*
X88491300Y-56642000D03*
D10*
G36*
X86883942Y-55943174D02*
X86907603Y-55946684D01*
X86930807Y-55952496D01*
X86953329Y-55960554D01*
X86974953Y-55970782D01*
X86995470Y-55983079D01*
X87014683Y-55997329D01*
X87032407Y-56013393D01*
X87048471Y-56031117D01*
X87062721Y-56050330D01*
X87075018Y-56070847D01*
X87085246Y-56092471D01*
X87093304Y-56114993D01*
X87099116Y-56138197D01*
X87102626Y-56161858D01*
X87103800Y-56185750D01*
X87103800Y-57098250D01*
X87102626Y-57122142D01*
X87099116Y-57145803D01*
X87093304Y-57169007D01*
X87085246Y-57191529D01*
X87075018Y-57213153D01*
X87062721Y-57233670D01*
X87048471Y-57252883D01*
X87032407Y-57270607D01*
X87014683Y-57286671D01*
X86995470Y-57300921D01*
X86974953Y-57313218D01*
X86953329Y-57323446D01*
X86930807Y-57331504D01*
X86907603Y-57337316D01*
X86883942Y-57340826D01*
X86860050Y-57342000D01*
X86372550Y-57342000D01*
X86348658Y-57340826D01*
X86324997Y-57337316D01*
X86301793Y-57331504D01*
X86279271Y-57323446D01*
X86257647Y-57313218D01*
X86237130Y-57300921D01*
X86217917Y-57286671D01*
X86200193Y-57270607D01*
X86184129Y-57252883D01*
X86169879Y-57233670D01*
X86157582Y-57213153D01*
X86147354Y-57191529D01*
X86139296Y-57169007D01*
X86133484Y-57145803D01*
X86129974Y-57122142D01*
X86128800Y-57098250D01*
X86128800Y-56185750D01*
X86129974Y-56161858D01*
X86133484Y-56138197D01*
X86139296Y-56114993D01*
X86147354Y-56092471D01*
X86157582Y-56070847D01*
X86169879Y-56050330D01*
X86184129Y-56031117D01*
X86200193Y-56013393D01*
X86217917Y-55997329D01*
X86237130Y-55983079D01*
X86257647Y-55970782D01*
X86279271Y-55960554D01*
X86301793Y-55952496D01*
X86324997Y-55946684D01*
X86348658Y-55943174D01*
X86372550Y-55942000D01*
X86860050Y-55942000D01*
X86883942Y-55943174D01*
X86883942Y-55943174D01*
G37*
D12*
X86616300Y-56642000D03*
G04 #@! TD*
D10*
G04 #@! TO.C,R21*
G36*
X86883942Y-58889574D02*
X86907603Y-58893084D01*
X86930807Y-58898896D01*
X86953329Y-58906954D01*
X86974953Y-58917182D01*
X86995470Y-58929479D01*
X87014683Y-58943729D01*
X87032407Y-58959793D01*
X87048471Y-58977517D01*
X87062721Y-58996730D01*
X87075018Y-59017247D01*
X87085246Y-59038871D01*
X87093304Y-59061393D01*
X87099116Y-59084597D01*
X87102626Y-59108258D01*
X87103800Y-59132150D01*
X87103800Y-60044650D01*
X87102626Y-60068542D01*
X87099116Y-60092203D01*
X87093304Y-60115407D01*
X87085246Y-60137929D01*
X87075018Y-60159553D01*
X87062721Y-60180070D01*
X87048471Y-60199283D01*
X87032407Y-60217007D01*
X87014683Y-60233071D01*
X86995470Y-60247321D01*
X86974953Y-60259618D01*
X86953329Y-60269846D01*
X86930807Y-60277904D01*
X86907603Y-60283716D01*
X86883942Y-60287226D01*
X86860050Y-60288400D01*
X86372550Y-60288400D01*
X86348658Y-60287226D01*
X86324997Y-60283716D01*
X86301793Y-60277904D01*
X86279271Y-60269846D01*
X86257647Y-60259618D01*
X86237130Y-60247321D01*
X86217917Y-60233071D01*
X86200193Y-60217007D01*
X86184129Y-60199283D01*
X86169879Y-60180070D01*
X86157582Y-60159553D01*
X86147354Y-60137929D01*
X86139296Y-60115407D01*
X86133484Y-60092203D01*
X86129974Y-60068542D01*
X86128800Y-60044650D01*
X86128800Y-59132150D01*
X86129974Y-59108258D01*
X86133484Y-59084597D01*
X86139296Y-59061393D01*
X86147354Y-59038871D01*
X86157582Y-59017247D01*
X86169879Y-58996730D01*
X86184129Y-58977517D01*
X86200193Y-58959793D01*
X86217917Y-58943729D01*
X86237130Y-58929479D01*
X86257647Y-58917182D01*
X86279271Y-58906954D01*
X86301793Y-58898896D01*
X86324997Y-58893084D01*
X86348658Y-58889574D01*
X86372550Y-58888400D01*
X86860050Y-58888400D01*
X86883942Y-58889574D01*
X86883942Y-58889574D01*
G37*
D12*
X86616300Y-59588400D03*
D10*
G36*
X88758942Y-58889574D02*
X88782603Y-58893084D01*
X88805807Y-58898896D01*
X88828329Y-58906954D01*
X88849953Y-58917182D01*
X88870470Y-58929479D01*
X88889683Y-58943729D01*
X88907407Y-58959793D01*
X88923471Y-58977517D01*
X88937721Y-58996730D01*
X88950018Y-59017247D01*
X88960246Y-59038871D01*
X88968304Y-59061393D01*
X88974116Y-59084597D01*
X88977626Y-59108258D01*
X88978800Y-59132150D01*
X88978800Y-60044650D01*
X88977626Y-60068542D01*
X88974116Y-60092203D01*
X88968304Y-60115407D01*
X88960246Y-60137929D01*
X88950018Y-60159553D01*
X88937721Y-60180070D01*
X88923471Y-60199283D01*
X88907407Y-60217007D01*
X88889683Y-60233071D01*
X88870470Y-60247321D01*
X88849953Y-60259618D01*
X88828329Y-60269846D01*
X88805807Y-60277904D01*
X88782603Y-60283716D01*
X88758942Y-60287226D01*
X88735050Y-60288400D01*
X88247550Y-60288400D01*
X88223658Y-60287226D01*
X88199997Y-60283716D01*
X88176793Y-60277904D01*
X88154271Y-60269846D01*
X88132647Y-60259618D01*
X88112130Y-60247321D01*
X88092917Y-60233071D01*
X88075193Y-60217007D01*
X88059129Y-60199283D01*
X88044879Y-60180070D01*
X88032582Y-60159553D01*
X88022354Y-60137929D01*
X88014296Y-60115407D01*
X88008484Y-60092203D01*
X88004974Y-60068542D01*
X88003800Y-60044650D01*
X88003800Y-59132150D01*
X88004974Y-59108258D01*
X88008484Y-59084597D01*
X88014296Y-59061393D01*
X88022354Y-59038871D01*
X88032582Y-59017247D01*
X88044879Y-58996730D01*
X88059129Y-58977517D01*
X88075193Y-58959793D01*
X88092917Y-58943729D01*
X88112130Y-58929479D01*
X88132647Y-58917182D01*
X88154271Y-58906954D01*
X88176793Y-58898896D01*
X88199997Y-58893084D01*
X88223658Y-58889574D01*
X88247550Y-58888400D01*
X88735050Y-58888400D01*
X88758942Y-58889574D01*
X88758942Y-58889574D01*
G37*
D12*
X88491300Y-59588400D03*
G04 #@! TD*
D10*
G04 #@! TO.C,R22*
G36*
X86883942Y-61886774D02*
X86907603Y-61890284D01*
X86930807Y-61896096D01*
X86953329Y-61904154D01*
X86974953Y-61914382D01*
X86995470Y-61926679D01*
X87014683Y-61940929D01*
X87032407Y-61956993D01*
X87048471Y-61974717D01*
X87062721Y-61993930D01*
X87075018Y-62014447D01*
X87085246Y-62036071D01*
X87093304Y-62058593D01*
X87099116Y-62081797D01*
X87102626Y-62105458D01*
X87103800Y-62129350D01*
X87103800Y-63041850D01*
X87102626Y-63065742D01*
X87099116Y-63089403D01*
X87093304Y-63112607D01*
X87085246Y-63135129D01*
X87075018Y-63156753D01*
X87062721Y-63177270D01*
X87048471Y-63196483D01*
X87032407Y-63214207D01*
X87014683Y-63230271D01*
X86995470Y-63244521D01*
X86974953Y-63256818D01*
X86953329Y-63267046D01*
X86930807Y-63275104D01*
X86907603Y-63280916D01*
X86883942Y-63284426D01*
X86860050Y-63285600D01*
X86372550Y-63285600D01*
X86348658Y-63284426D01*
X86324997Y-63280916D01*
X86301793Y-63275104D01*
X86279271Y-63267046D01*
X86257647Y-63256818D01*
X86237130Y-63244521D01*
X86217917Y-63230271D01*
X86200193Y-63214207D01*
X86184129Y-63196483D01*
X86169879Y-63177270D01*
X86157582Y-63156753D01*
X86147354Y-63135129D01*
X86139296Y-63112607D01*
X86133484Y-63089403D01*
X86129974Y-63065742D01*
X86128800Y-63041850D01*
X86128800Y-62129350D01*
X86129974Y-62105458D01*
X86133484Y-62081797D01*
X86139296Y-62058593D01*
X86147354Y-62036071D01*
X86157582Y-62014447D01*
X86169879Y-61993930D01*
X86184129Y-61974717D01*
X86200193Y-61956993D01*
X86217917Y-61940929D01*
X86237130Y-61926679D01*
X86257647Y-61914382D01*
X86279271Y-61904154D01*
X86301793Y-61896096D01*
X86324997Y-61890284D01*
X86348658Y-61886774D01*
X86372550Y-61885600D01*
X86860050Y-61885600D01*
X86883942Y-61886774D01*
X86883942Y-61886774D01*
G37*
D12*
X86616300Y-62585600D03*
D10*
G36*
X88758942Y-61886774D02*
X88782603Y-61890284D01*
X88805807Y-61896096D01*
X88828329Y-61904154D01*
X88849953Y-61914382D01*
X88870470Y-61926679D01*
X88889683Y-61940929D01*
X88907407Y-61956993D01*
X88923471Y-61974717D01*
X88937721Y-61993930D01*
X88950018Y-62014447D01*
X88960246Y-62036071D01*
X88968304Y-62058593D01*
X88974116Y-62081797D01*
X88977626Y-62105458D01*
X88978800Y-62129350D01*
X88978800Y-63041850D01*
X88977626Y-63065742D01*
X88974116Y-63089403D01*
X88968304Y-63112607D01*
X88960246Y-63135129D01*
X88950018Y-63156753D01*
X88937721Y-63177270D01*
X88923471Y-63196483D01*
X88907407Y-63214207D01*
X88889683Y-63230271D01*
X88870470Y-63244521D01*
X88849953Y-63256818D01*
X88828329Y-63267046D01*
X88805807Y-63275104D01*
X88782603Y-63280916D01*
X88758942Y-63284426D01*
X88735050Y-63285600D01*
X88247550Y-63285600D01*
X88223658Y-63284426D01*
X88199997Y-63280916D01*
X88176793Y-63275104D01*
X88154271Y-63267046D01*
X88132647Y-63256818D01*
X88112130Y-63244521D01*
X88092917Y-63230271D01*
X88075193Y-63214207D01*
X88059129Y-63196483D01*
X88044879Y-63177270D01*
X88032582Y-63156753D01*
X88022354Y-63135129D01*
X88014296Y-63112607D01*
X88008484Y-63089403D01*
X88004974Y-63065742D01*
X88003800Y-63041850D01*
X88003800Y-62129350D01*
X88004974Y-62105458D01*
X88008484Y-62081797D01*
X88014296Y-62058593D01*
X88022354Y-62036071D01*
X88032582Y-62014447D01*
X88044879Y-61993930D01*
X88059129Y-61974717D01*
X88075193Y-61956993D01*
X88092917Y-61940929D01*
X88112130Y-61926679D01*
X88132647Y-61914382D01*
X88154271Y-61904154D01*
X88176793Y-61896096D01*
X88199997Y-61890284D01*
X88223658Y-61886774D01*
X88247550Y-61885600D01*
X88735050Y-61885600D01*
X88758942Y-61886774D01*
X88758942Y-61886774D01*
G37*
D12*
X88491300Y-62585600D03*
G04 #@! TD*
D10*
G04 #@! TO.C,R23*
G36*
X115179542Y-86169174D02*
X115203203Y-86172684D01*
X115226407Y-86178496D01*
X115248929Y-86186554D01*
X115270553Y-86196782D01*
X115291070Y-86209079D01*
X115310283Y-86223329D01*
X115328007Y-86239393D01*
X115344071Y-86257117D01*
X115358321Y-86276330D01*
X115370618Y-86296847D01*
X115380846Y-86318471D01*
X115388904Y-86340993D01*
X115394716Y-86364197D01*
X115398226Y-86387858D01*
X115399400Y-86411750D01*
X115399400Y-87324250D01*
X115398226Y-87348142D01*
X115394716Y-87371803D01*
X115388904Y-87395007D01*
X115380846Y-87417529D01*
X115370618Y-87439153D01*
X115358321Y-87459670D01*
X115344071Y-87478883D01*
X115328007Y-87496607D01*
X115310283Y-87512671D01*
X115291070Y-87526921D01*
X115270553Y-87539218D01*
X115248929Y-87549446D01*
X115226407Y-87557504D01*
X115203203Y-87563316D01*
X115179542Y-87566826D01*
X115155650Y-87568000D01*
X114668150Y-87568000D01*
X114644258Y-87566826D01*
X114620597Y-87563316D01*
X114597393Y-87557504D01*
X114574871Y-87549446D01*
X114553247Y-87539218D01*
X114532730Y-87526921D01*
X114513517Y-87512671D01*
X114495793Y-87496607D01*
X114479729Y-87478883D01*
X114465479Y-87459670D01*
X114453182Y-87439153D01*
X114442954Y-87417529D01*
X114434896Y-87395007D01*
X114429084Y-87371803D01*
X114425574Y-87348142D01*
X114424400Y-87324250D01*
X114424400Y-86411750D01*
X114425574Y-86387858D01*
X114429084Y-86364197D01*
X114434896Y-86340993D01*
X114442954Y-86318471D01*
X114453182Y-86296847D01*
X114465479Y-86276330D01*
X114479729Y-86257117D01*
X114495793Y-86239393D01*
X114513517Y-86223329D01*
X114532730Y-86209079D01*
X114553247Y-86196782D01*
X114574871Y-86186554D01*
X114597393Y-86178496D01*
X114620597Y-86172684D01*
X114644258Y-86169174D01*
X114668150Y-86168000D01*
X115155650Y-86168000D01*
X115179542Y-86169174D01*
X115179542Y-86169174D01*
G37*
D12*
X114911900Y-86868000D03*
D10*
G36*
X117054542Y-86169174D02*
X117078203Y-86172684D01*
X117101407Y-86178496D01*
X117123929Y-86186554D01*
X117145553Y-86196782D01*
X117166070Y-86209079D01*
X117185283Y-86223329D01*
X117203007Y-86239393D01*
X117219071Y-86257117D01*
X117233321Y-86276330D01*
X117245618Y-86296847D01*
X117255846Y-86318471D01*
X117263904Y-86340993D01*
X117269716Y-86364197D01*
X117273226Y-86387858D01*
X117274400Y-86411750D01*
X117274400Y-87324250D01*
X117273226Y-87348142D01*
X117269716Y-87371803D01*
X117263904Y-87395007D01*
X117255846Y-87417529D01*
X117245618Y-87439153D01*
X117233321Y-87459670D01*
X117219071Y-87478883D01*
X117203007Y-87496607D01*
X117185283Y-87512671D01*
X117166070Y-87526921D01*
X117145553Y-87539218D01*
X117123929Y-87549446D01*
X117101407Y-87557504D01*
X117078203Y-87563316D01*
X117054542Y-87566826D01*
X117030650Y-87568000D01*
X116543150Y-87568000D01*
X116519258Y-87566826D01*
X116495597Y-87563316D01*
X116472393Y-87557504D01*
X116449871Y-87549446D01*
X116428247Y-87539218D01*
X116407730Y-87526921D01*
X116388517Y-87512671D01*
X116370793Y-87496607D01*
X116354729Y-87478883D01*
X116340479Y-87459670D01*
X116328182Y-87439153D01*
X116317954Y-87417529D01*
X116309896Y-87395007D01*
X116304084Y-87371803D01*
X116300574Y-87348142D01*
X116299400Y-87324250D01*
X116299400Y-86411750D01*
X116300574Y-86387858D01*
X116304084Y-86364197D01*
X116309896Y-86340993D01*
X116317954Y-86318471D01*
X116328182Y-86296847D01*
X116340479Y-86276330D01*
X116354729Y-86257117D01*
X116370793Y-86239393D01*
X116388517Y-86223329D01*
X116407730Y-86209079D01*
X116428247Y-86196782D01*
X116449871Y-86186554D01*
X116472393Y-86178496D01*
X116495597Y-86172684D01*
X116519258Y-86169174D01*
X116543150Y-86168000D01*
X117030650Y-86168000D01*
X117054542Y-86169174D01*
X117054542Y-86169174D01*
G37*
D12*
X116786900Y-86868000D03*
G04 #@! TD*
D10*
G04 #@! TO.C,R24*
G36*
X115077942Y-99694674D02*
X115101603Y-99698184D01*
X115124807Y-99703996D01*
X115147329Y-99712054D01*
X115168953Y-99722282D01*
X115189470Y-99734579D01*
X115208683Y-99748829D01*
X115226407Y-99764893D01*
X115242471Y-99782617D01*
X115256721Y-99801830D01*
X115269018Y-99822347D01*
X115279246Y-99843971D01*
X115287304Y-99866493D01*
X115293116Y-99889697D01*
X115296626Y-99913358D01*
X115297800Y-99937250D01*
X115297800Y-100849750D01*
X115296626Y-100873642D01*
X115293116Y-100897303D01*
X115287304Y-100920507D01*
X115279246Y-100943029D01*
X115269018Y-100964653D01*
X115256721Y-100985170D01*
X115242471Y-101004383D01*
X115226407Y-101022107D01*
X115208683Y-101038171D01*
X115189470Y-101052421D01*
X115168953Y-101064718D01*
X115147329Y-101074946D01*
X115124807Y-101083004D01*
X115101603Y-101088816D01*
X115077942Y-101092326D01*
X115054050Y-101093500D01*
X114566550Y-101093500D01*
X114542658Y-101092326D01*
X114518997Y-101088816D01*
X114495793Y-101083004D01*
X114473271Y-101074946D01*
X114451647Y-101064718D01*
X114431130Y-101052421D01*
X114411917Y-101038171D01*
X114394193Y-101022107D01*
X114378129Y-101004383D01*
X114363879Y-100985170D01*
X114351582Y-100964653D01*
X114341354Y-100943029D01*
X114333296Y-100920507D01*
X114327484Y-100897303D01*
X114323974Y-100873642D01*
X114322800Y-100849750D01*
X114322800Y-99937250D01*
X114323974Y-99913358D01*
X114327484Y-99889697D01*
X114333296Y-99866493D01*
X114341354Y-99843971D01*
X114351582Y-99822347D01*
X114363879Y-99801830D01*
X114378129Y-99782617D01*
X114394193Y-99764893D01*
X114411917Y-99748829D01*
X114431130Y-99734579D01*
X114451647Y-99722282D01*
X114473271Y-99712054D01*
X114495793Y-99703996D01*
X114518997Y-99698184D01*
X114542658Y-99694674D01*
X114566550Y-99693500D01*
X115054050Y-99693500D01*
X115077942Y-99694674D01*
X115077942Y-99694674D01*
G37*
D12*
X114810300Y-100393500D03*
D10*
G36*
X116952942Y-99694674D02*
X116976603Y-99698184D01*
X116999807Y-99703996D01*
X117022329Y-99712054D01*
X117043953Y-99722282D01*
X117064470Y-99734579D01*
X117083683Y-99748829D01*
X117101407Y-99764893D01*
X117117471Y-99782617D01*
X117131721Y-99801830D01*
X117144018Y-99822347D01*
X117154246Y-99843971D01*
X117162304Y-99866493D01*
X117168116Y-99889697D01*
X117171626Y-99913358D01*
X117172800Y-99937250D01*
X117172800Y-100849750D01*
X117171626Y-100873642D01*
X117168116Y-100897303D01*
X117162304Y-100920507D01*
X117154246Y-100943029D01*
X117144018Y-100964653D01*
X117131721Y-100985170D01*
X117117471Y-101004383D01*
X117101407Y-101022107D01*
X117083683Y-101038171D01*
X117064470Y-101052421D01*
X117043953Y-101064718D01*
X117022329Y-101074946D01*
X116999807Y-101083004D01*
X116976603Y-101088816D01*
X116952942Y-101092326D01*
X116929050Y-101093500D01*
X116441550Y-101093500D01*
X116417658Y-101092326D01*
X116393997Y-101088816D01*
X116370793Y-101083004D01*
X116348271Y-101074946D01*
X116326647Y-101064718D01*
X116306130Y-101052421D01*
X116286917Y-101038171D01*
X116269193Y-101022107D01*
X116253129Y-101004383D01*
X116238879Y-100985170D01*
X116226582Y-100964653D01*
X116216354Y-100943029D01*
X116208296Y-100920507D01*
X116202484Y-100897303D01*
X116198974Y-100873642D01*
X116197800Y-100849750D01*
X116197800Y-99937250D01*
X116198974Y-99913358D01*
X116202484Y-99889697D01*
X116208296Y-99866493D01*
X116216354Y-99843971D01*
X116226582Y-99822347D01*
X116238879Y-99801830D01*
X116253129Y-99782617D01*
X116269193Y-99764893D01*
X116286917Y-99748829D01*
X116306130Y-99734579D01*
X116326647Y-99722282D01*
X116348271Y-99712054D01*
X116370793Y-99703996D01*
X116393997Y-99698184D01*
X116417658Y-99694674D01*
X116441550Y-99693500D01*
X116929050Y-99693500D01*
X116952942Y-99694674D01*
X116952942Y-99694674D01*
G37*
D12*
X116685300Y-100393500D03*
G04 #@! TD*
D13*
G04 #@! TO.C,U1*
X96126300Y-69019400D03*
X97396300Y-69019400D03*
X98666300Y-69019400D03*
X99936300Y-69019400D03*
X99936300Y-63619400D03*
X98666300Y-63619400D03*
X97396300Y-63619400D03*
X96126300Y-63619400D03*
G04 #@! TD*
D14*
G04 #@! TO.C,U3*
X95673600Y-101555200D03*
X95673600Y-100755200D03*
X95673600Y-99955200D03*
X95673600Y-99155200D03*
X95673600Y-98355200D03*
X95673600Y-97555200D03*
X95673600Y-96755200D03*
X95673600Y-95955200D03*
D15*
X97123600Y-94505200D03*
X97923600Y-94505200D03*
X98723600Y-94505200D03*
X99523600Y-94505200D03*
X100323600Y-94505200D03*
X101123600Y-94505200D03*
X101923600Y-94505200D03*
X102723600Y-94505200D03*
D14*
X104173600Y-95955200D03*
X104173600Y-96755200D03*
X104173600Y-97555200D03*
X104173600Y-98355200D03*
X104173600Y-99155200D03*
X104173600Y-99955200D03*
X104173600Y-100755200D03*
X104173600Y-101555200D03*
D15*
X102723600Y-103005200D03*
X101923600Y-103005200D03*
X101123600Y-103005200D03*
X100323600Y-103005200D03*
X99523600Y-103005200D03*
X98723600Y-103005200D03*
X97923600Y-103005200D03*
X97123600Y-103005200D03*
G04 #@! TD*
M02*
